<svg width="41.968750" height="50.000244" viewBox="0 0 41.9688 50.0002" fill="none" xmlns="http://www.w3.org/2000/svg" xmlns:xlink="http://www.w3.org/1999/xlink">
	<desc>
			Created with Pixso.
	</desc>
	<defs/>
	<path id="Rectangle 22" d="M2.98 30.85L7.8 30L7.8 50L2.98 50L2.98 30.85Z" fill="#8EACCD" fill-opacity="1.000000" fill-rule="nonzero"/>
	<path id="Rectangle 22" d="M6.8 30.17L2.98 30.85L2.98 50L7.8 50L7.8 30L6.8 30.17ZM6.8 31.19L6.8 49L3.98 49L3.98 31.69L6.8 31.19Z" fill="#8EACCD" fill-opacity="1.000000" fill-rule="evenodd"/>
	<path id="Rectangle 23" d="M8.8 30.16L12.98 30.85L12.98 50L7.8 50L7.8 30L8.8 30.16ZM8.8 31.17L8.8 49L11.98 49L11.98 31.7L8.8 31.17Z" fill="#8EACCD" fill-opacity="1.000000" fill-rule="evenodd"/>
	<path id="Star 1" d="M20.18 0L19.83 3.14L17.24 3.51L19.82 3.89L20.09 7.03L20.44 3.89L23.03 3.51L20.45 3.14L20.18 0Z" fill="#8EACCD" fill-opacity="1.000000" fill-rule="evenodd"/>
	<path id="Star 1" d="M21.68 1.8L20.18 3.2L18.69 1.78L19.86 3.58L18.67 5.36L20.18 3.96L21.67 5.38L20.5 3.58L21.68 1.8Z" fill="#8EACCD" fill-opacity="1.000000" fill-rule="evenodd"/>
	<rect id="Rectangle 26" x="18.875000" y="11.224609" width="2.573263" height="3.705921" fill="#8EACCD" fill-opacity="1.000000"/>
	<path id="Rectangle 27" d="M19.71 7.14L20.56 7.14L20.56 12.24L19.71 12.24L19.71 7.14Z" fill="#8EACCD" fill-opacity="1.000000" fill-rule="nonzero"/>
	<path id="Rectangle 24" d="M21.81 13.88L27.98 15.21L27.98 50L20.81 50L20.81 13.66L21.81 13.88ZM21.81 14.9L21.81 49L26.98 49L26.98 16.02L21.81 14.9Z" fill="#8EACCD" fill-opacity="1.000000" fill-rule="evenodd"/>
	<path id="Rectangle 25" d="M12.98 15.21L21 13.66L21 50L12.98 50L12.98 15.21Z" fill="#8EACCD" fill-opacity="1.000000" fill-rule="nonzero"/>
	<path id="Rectangle 22" d="M37.98 30.85L33.16 30L33.16 50L37.98 50L37.98 30.85Z" fill="#8EACCD" fill-opacity="1.000000" fill-rule="nonzero"/>
	<path id="Rectangle 22" d="M34.16 30.17L37.98 30.85L37.98 50L33.16 50L33.16 30L34.16 30.17ZM34.16 31.19L34.16 49L36.98 49L36.98 31.69L34.16 31.19Z" fill="#8EACCD" fill-opacity="1.000000" fill-rule="evenodd"/>
	<path id="Rectangle 23" d="M32.16 30.16L27.98 30.85L27.98 50L33.16 50L33.16 30L32.16 30.16ZM32.16 31.17L32.16 49L28.98 49L28.98 31.7L32.16 31.17Z" fill="#8EACCD" fill-opacity="1.000000" fill-rule="evenodd"/>
</svg>
