<svg width="997" height="167" viewBox="0 0 997 167" fill="none" xmlns="http://www.w3.org/2000/svg">
<path d="M199.734 109.96C197.43 109.96 195.382 109.384 193.59 108.232C191.841 107.037 190.454 105.395 189.43 103.304C188.406 101.171 187.894 98.7174 187.894 95.9441C187.894 93.4267 188.47 91.1227 189.622 89.0321C190.817 86.9414 192.396 85.2774 194.358 84.04C196.321 82.76 198.476 82.12 200.822 82.12C202.572 82.12 204.129 82.4827 205.494 83.208C206.902 83.8907 207.99 84.872 208.758 86.152C209.569 87.3894 209.974 88.8187 209.974 90.44C209.974 91.848 209.313 92.552 207.99 92.552H194.742C194.145 92.552 193.718 92.7227 193.462 93.064C193.206 93.4054 193.078 94.0241 193.078 94.9201C193.078 96.7974 193.505 98.5254 194.358 100.104C195.212 101.64 196.342 102.877 197.75 103.816C199.158 104.755 200.716 105.224 202.422 105.224C203.702 105.224 204.854 104.989 205.878 104.52C206.945 104.008 207.926 103.304 208.822 102.408C208.95 102.237 209.057 102.109 209.142 102.024C209.27 101.939 209.398 101.896 209.526 101.896C209.91 101.896 210.102 102.131 210.102 102.6C210.102 103.283 209.804 104.093 209.206 105.032C208.609 105.928 207.841 106.76 206.902 107.528C206.006 108.253 204.94 108.829 203.702 109.256C202.508 109.725 201.185 109.96 199.734 109.96ZM194.806 90.3761H199.926C201.036 90.3761 201.91 90.3547 202.55 90.312C203.19 90.2694 203.788 90.1841 204.342 90.0561C204.556 89.9707 204.705 89.8001 204.79 89.5441C204.876 89.2454 204.918 88.8827 204.918 88.456C204.918 87.2614 204.428 86.2587 203.446 85.4481C202.465 84.5947 201.292 84.1681 199.926 84.1681C198.988 84.1681 198.049 84.4454 197.11 85C196.214 85.5547 195.468 86.2587 194.87 87.1121C194.273 87.9227 193.996 88.7547 194.038 89.608C194.038 90.12 194.294 90.3761 194.806 90.3761Z" fill="#8EACCD"/>
<path d="M217.693 118.216C217.437 118.216 217.16 118.024 216.861 117.64C216.562 117.256 216.37 116.744 216.285 116.104C216.242 114.312 216.072 112.84 215.773 111.688C215.517 110.579 215.261 109.683 215.005 109C214.792 108.317 214.685 107.763 214.685 107.336C214.685 106.995 214.77 106.76 214.941 106.632C215.112 106.461 215.325 106.376 215.581 106.376C215.794 106.376 216.029 106.397 216.285 106.44C216.584 106.483 216.84 106.504 217.053 106.504C218.205 106.504 219.165 106.013 219.933 105.032C220.701 104.008 221.32 102.643 221.789 100.936C222.258 99.1867 222.578 97.2027 222.749 94.984C222.962 92.7654 223.069 90.4614 223.069 88.0721C223.069 86.8347 222.792 86.0241 222.237 85.6401C221.682 85.2134 220.914 84.8934 219.933 84.68C219.634 84.5947 219.336 84.488 219.037 84.36C218.781 84.1894 218.653 83.9334 218.653 83.592C218.653 83.336 218.845 83.1441 219.229 83.0161C219.613 82.8454 219.89 82.76 220.061 82.76C221 82.76 221.789 82.8027 222.429 82.888C223.069 82.9307 223.794 82.952 224.605 82.952H237.277C238.13 82.952 238.898 82.9307 239.581 82.888C240.264 82.8027 241.074 82.76 242.013 82.76C242.184 82.76 242.44 82.8454 242.781 83.0161C243.122 83.1441 243.293 83.336 243.293 83.592C243.293 83.9334 243.165 84.1894 242.909 84.36C242.653 84.488 242.418 84.5947 242.205 84.68C241.266 84.8934 240.562 85.2347 240.093 85.704C239.624 86.1734 239.389 87.1974 239.389 88.776V103.752C239.389 104.648 239.474 105.331 239.645 105.8C239.858 106.269 240.392 106.504 241.245 106.504C241.458 106.504 241.736 106.483 242.077 106.44C242.461 106.397 242.802 106.376 243.101 106.376C243.442 106.376 243.72 106.419 243.933 106.504C244.146 106.589 244.253 106.739 244.253 106.952C244.253 107.08 244.232 107.187 244.189 107.272C244.018 107.741 243.805 108.275 243.549 108.872C243.336 109.427 243.122 110.259 242.909 111.368C242.696 112.477 242.546 114.056 242.461 116.104C242.418 116.744 242.248 117.256 241.949 117.64C241.65 118.024 241.352 118.216 241.053 118.216C240.541 118.216 240.178 117.981 239.965 117.512C239.752 117.043 239.645 116.531 239.645 115.976C239.645 115.507 239.645 115.037 239.645 114.568C239.688 114.099 239.688 113.608 239.645 113.096C239.602 111.475 239.346 110.387 238.877 109.832C238.408 109.277 237.597 109 236.445 109H223.005C221.81 109 220.872 109.341 220.189 110.024C219.549 110.749 219.208 112.072 219.165 113.992C219.122 114.291 219.101 114.589 219.101 114.888C219.101 115.229 219.101 115.592 219.101 115.976C219.101 116.531 218.994 117.043 218.781 117.512C218.568 117.981 218.205 118.216 217.693 118.216ZM223.517 106.44H231.773C232.541 106.44 233.01 106.355 233.181 106.184C233.394 105.971 233.501 105.501 233.501 104.776V87.944C233.501 87.6027 233.458 87.24 233.373 86.856C233.33 86.4294 233.202 86.0667 232.989 85.7681C232.818 85.4694 232.541 85.3201 232.157 85.3201H227.229C226.888 85.3201 226.61 85.4907 226.397 85.832C226.184 86.1734 226.056 86.5574 226.013 86.984C225.97 87.368 225.949 87.688 225.949 87.944C225.949 89.992 225.842 92.0401 225.629 94.0881C225.458 96.0934 225.117 98.0561 224.605 99.9761C224.136 101.853 223.496 103.624 222.685 105.288C222.642 105.373 222.578 105.48 222.493 105.608C222.45 105.693 222.429 105.8 222.429 105.928C222.429 106.099 222.514 106.227 222.685 106.312C222.856 106.397 223.133 106.44 223.517 106.44Z" fill="#8EACCD"/>
<path d="M251.257 109.192C251.001 109.192 250.724 109.149 250.425 109.064C250.127 108.979 249.977 108.808 249.977 108.552C249.977 108.253 250.105 108.04 250.361 107.912C250.617 107.741 250.916 107.592 251.257 107.464C251.983 107.208 252.601 106.995 253.113 106.824C253.668 106.611 253.945 106.056 253.945 105.16V87.368C253.945 86.3867 253.732 85.7041 253.305 85.3201C252.879 84.8934 252.26 84.5734 251.449 84.36C251.108 84.2747 250.809 84.1467 250.553 83.9761C250.297 83.8054 250.169 83.5921 250.169 83.3361C250.169 83.0374 250.34 82.8667 250.681 82.8241C251.023 82.7387 251.279 82.6961 251.449 82.6961C252.388 82.6961 253.092 82.7174 253.561 82.76C254.073 82.76 254.543 82.8027 254.969 82.888C255.439 82.9307 256.036 82.952 256.761 82.952C257.401 82.952 257.977 82.9307 258.489 82.888C259.001 82.8027 259.577 82.7387 260.217 82.6961C260.9 82.6534 261.732 82.632 262.713 82.632C266.212 82.632 268.921 83.1441 270.841 84.1681C272.804 85.1921 273.785 86.7067 273.785 88.7121C273.785 90.3761 273.295 91.7414 272.313 92.8081C271.332 93.8321 270.116 94.4934 268.665 94.7921C268.495 94.8347 268.388 94.8987 268.345 94.984C268.303 95.0267 268.409 95.0907 268.665 95.176C269.604 95.304 270.564 95.6027 271.545 96.0721C272.569 96.5414 273.423 97.2027 274.105 98.0561C274.788 98.9094 275.129 99.9974 275.129 101.32C275.129 103.197 274.617 104.733 273.593 105.928C272.569 107.08 271.119 107.912 269.241 108.424C267.407 108.936 265.209 109.192 262.649 109.192C261.924 109.192 261.028 109.128 259.961 109C258.937 108.915 257.871 108.872 256.761 108.872C255.951 108.872 255.033 108.893 254.009 108.936C253.028 108.979 252.239 109.021 251.641 109.064C251.044 109.149 250.916 109.192 251.257 109.192ZM263.097 106.888C264.932 106.888 266.361 106.419 267.385 105.48C268.409 104.541 268.921 103.261 268.921 101.64C268.921 99.6347 268.281 98.248 267.001 97.48C265.764 96.712 264.121 96.328 262.073 96.328C261.476 96.328 260.943 96.4347 260.473 96.648C260.047 96.8187 259.833 97.2027 259.833 97.8V103.624C259.833 104.691 260.111 105.501 260.665 106.056C261.22 106.611 262.031 106.888 263.097 106.888ZM261.625 94.2801C263.929 94.2801 265.593 93.8107 266.617 92.872C267.641 91.8907 268.153 90.76 268.153 89.48C268.153 88.1147 267.727 87.0267 266.873 86.216C266.063 85.4054 264.612 85 262.521 85C261.455 85 260.729 85.1707 260.345 85.512C260.004 85.8107 259.833 86.2801 259.833 86.9201V92.744C259.833 93.4267 260.025 93.8534 260.409 94.024C260.836 94.1947 261.241 94.2801 261.625 94.2801Z" fill="#8EACCD"/>
<path d="M282.957 109.192C282.701 109.192 282.424 109.149 282.125 109.064C281.827 108.979 281.677 108.787 281.677 108.488C281.677 108.147 281.827 107.891 282.125 107.72C282.467 107.549 282.808 107.4 283.149 107.272C283.789 107.059 284.365 106.824 284.877 106.568C285.432 106.269 285.709 105.693 285.709 104.84V87.1121C285.709 86.2587 285.453 85.6827 284.941 85.384C284.472 85.0427 283.917 84.7867 283.277 84.6161C282.936 84.4881 282.595 84.3387 282.253 84.1681C281.955 83.9974 281.805 83.7414 281.805 83.4C281.805 83.144 281.955 82.9734 282.253 82.888C282.595 82.8027 282.872 82.76 283.085 82.76C283.939 82.76 284.643 82.7814 285.197 82.8241C285.795 82.8667 286.349 82.9307 286.861 83.0161C287.373 83.0587 287.992 83.08 288.717 83.08C289.485 83.08 290.104 83.0587 290.573 83.0161C291.043 82.9307 291.533 82.8667 292.045 82.8241C292.6 82.7814 293.304 82.76 294.157 82.76C294.371 82.76 294.627 82.8027 294.925 82.888C295.224 82.9734 295.373 83.144 295.373 83.4C295.373 83.6987 295.224 83.9547 294.925 84.1681C294.627 84.3387 294.307 84.4881 293.965 84.6161C293.325 84.8294 292.771 85.0854 292.301 85.384C291.832 85.6827 291.597 86.2587 291.597 87.1121V99.2081C291.597 99.4641 291.683 99.6347 291.853 99.72C292.024 99.8054 292.173 99.7841 292.301 99.6561L303.373 87.816C303.501 87.6454 303.587 87.5174 303.629 87.4321C303.715 87.3467 303.757 87.1974 303.757 86.984C303.757 86.1307 303.544 85.5761 303.117 85.3201C302.733 85.0214 302.221 84.7867 301.581 84.6161C301.24 84.4881 300.92 84.3387 300.621 84.1681C300.323 83.9974 300.173 83.7414 300.173 83.4C300.173 83.144 300.301 82.9734 300.557 82.888C300.856 82.8027 301.133 82.76 301.389 82.76C302.243 82.76 302.925 82.7814 303.437 82.8241C303.992 82.8667 304.504 82.9307 304.973 83.0161C305.485 83.0587 306.104 83.08 306.829 83.08C307.597 83.08 308.216 83.0587 308.685 83.0161C309.197 82.9307 309.731 82.8667 310.285 82.8241C310.84 82.7814 311.544 82.76 312.397 82.76C312.653 82.76 312.909 82.8027 313.165 82.888C313.464 82.9734 313.613 83.144 313.613 83.4C313.613 83.7414 313.464 83.9974 313.165 84.1681C312.867 84.3387 312.547 84.4881 312.205 84.6161C311.565 84.7867 310.968 85.0427 310.413 85.384C309.901 85.6827 309.645 86.2587 309.645 87.1121V104.84C309.645 105.693 309.923 106.269 310.477 106.568C311.075 106.824 311.693 107.059 312.333 107.272C312.675 107.4 312.995 107.549 313.293 107.72C313.592 107.891 313.741 108.147 313.741 108.488C313.741 108.787 313.592 108.979 313.293 109.064C312.995 109.149 312.739 109.192 312.525 109.192C311.672 109.192 310.947 109.149 310.349 109.064C309.795 109.021 309.24 108.979 308.685 108.936C308.173 108.893 307.533 108.872 306.765 108.872C306.04 108.872 305.4 108.893 304.845 108.936C304.333 108.979 303.779 109.021 303.181 109.064C302.627 109.149 301.923 109.192 301.069 109.192C300.856 109.192 300.6 109.149 300.301 109.064C300.003 108.979 299.853 108.787 299.853 108.488C299.853 108.147 300.003 107.891 300.301 107.72C300.6 107.549 300.92 107.4 301.261 107.272C301.901 107.059 302.477 106.824 302.989 106.568C303.501 106.269 303.757 105.693 303.757 104.84V91.6561C303.757 91.4427 303.715 91.3147 303.629 91.272C303.587 91.1867 303.523 91.2081 303.437 91.3361L291.981 103.752C291.725 104.008 291.597 104.371 291.597 104.84C291.597 105.736 291.875 106.312 292.429 106.568C292.984 106.824 293.581 107.059 294.221 107.272C294.563 107.4 294.883 107.549 295.181 107.72C295.48 107.891 295.629 108.147 295.629 108.488C295.629 108.744 295.48 108.915 295.181 109C294.883 109.128 294.627 109.192 294.413 109.192C293.56 109.192 292.835 109.149 292.237 109.064C291.683 109.021 291.149 108.979 290.637 108.936C290.125 108.893 289.485 108.872 288.717 108.872C287.992 108.872 287.352 108.893 286.797 108.936C286.243 108.979 285.667 109.021 285.069 109.064C284.515 109.149 283.811 109.192 282.957 109.192Z" fill="#8EACCD"/>
<path d="M323.65 109.64C322.157 109.64 321.026 109.469 320.258 109.128C319.533 108.829 319.17 108.509 319.17 108.168C319.17 107.784 319.277 107.528 319.49 107.4C319.704 107.272 320.024 107.208 320.45 107.208C321.09 107.208 321.773 107.037 322.498 106.696C323.224 106.355 323.97 105.779 324.738 104.968C325.506 104.157 326.274 103.027 327.042 101.576C327.938 99.912 328.749 98.44 329.474 97.16C330.242 95.8374 331.074 94.792 331.97 94.024C332.098 93.9387 332.184 93.832 332.226 93.704C332.312 93.576 332.269 93.4481 332.098 93.3201C331.458 92.8507 330.904 92.2961 330.434 91.6561C330.008 90.9734 329.624 90.3334 329.282 89.736C328.941 89.096 328.642 88.5841 328.386 88.2001C328.002 87.5601 327.64 87.1334 327.298 86.9201C327 86.7067 326.573 86.6001 326.018 86.6001C325.805 86.6001 325.57 86.6641 325.314 86.7921C325.101 86.9201 324.888 87.048 324.674 87.176C324.376 87.3467 324.098 87.5174 323.842 87.688C323.586 87.8587 323.266 87.944 322.882 87.944C322.157 87.944 321.624 87.6667 321.282 87.1121C320.941 86.5574 320.77 85.9601 320.77 85.3201C320.77 84.4667 321.112 83.6987 321.794 83.0161C322.477 82.3334 323.352 81.9921 324.418 81.9921C325.485 81.9921 326.466 82.2907 327.362 82.888C328.258 83.4427 329.112 84.488 329.922 86.024C330.861 87.688 331.629 89.0534 332.226 90.12C332.866 91.1867 333.464 91.9974 334.018 92.552C334.573 93.1067 335.192 93.5121 335.874 93.7681C336.557 93.9814 337.41 94.0881 338.434 94.0881C338.648 94.0881 338.818 94.0454 338.946 93.9601C339.117 93.8321 339.202 93.6827 339.202 93.512V87.496C339.202 86.6 338.968 85.9387 338.498 85.512C338.029 85.0427 337.389 84.7014 336.578 84.4881C336.237 84.4027 335.917 84.2747 335.618 84.104C335.362 83.8907 335.234 83.6347 335.234 83.3361C335.234 82.9947 335.405 82.8027 335.746 82.76C336.13 82.6747 336.408 82.632 336.578 82.632C337.432 82.632 338.114 82.6534 338.626 82.6961C339.138 82.7387 339.65 82.8027 340.162 82.888C340.674 82.9307 341.293 82.952 342.018 82.952C342.786 82.952 343.405 82.9307 343.874 82.888C344.344 82.8454 344.834 82.8027 345.346 82.76C345.901 82.7174 346.584 82.6961 347.394 82.6961C347.608 82.6961 347.885 82.7174 348.226 82.76C348.568 82.8027 348.738 82.9947 348.738 83.3361C348.738 83.6347 348.589 83.8694 348.29 84.04C347.992 84.2107 347.672 84.3601 347.33 84.4881C346.562 84.7441 345.965 85.1067 345.538 85.576C345.112 86.0027 344.898 86.6427 344.898 87.496V93.512C344.898 93.6827 344.962 93.8321 345.09 93.9601C345.261 94.0454 345.453 94.0881 345.666 94.0881C346.69 94.0881 347.544 93.9814 348.226 93.7681C348.909 93.5121 349.528 93.1067 350.082 92.552C350.637 91.9974 351.234 91.1867 351.874 90.12C352.514 89.0534 353.282 87.688 354.178 86.024C354.989 84.488 355.842 83.4427 356.738 82.888C357.634 82.2907 358.616 81.9921 359.682 81.9921C360.749 81.9921 361.624 82.3334 362.306 83.0161C362.989 83.6987 363.33 84.4667 363.33 85.3201C363.33 85.9601 363.16 86.5574 362.818 87.1121C362.477 87.6667 361.922 87.944 361.154 87.944C360.856 87.944 360.557 87.8587 360.258 87.688C360.002 87.5174 359.725 87.3467 359.426 87.176C359.213 87.048 359 86.9201 358.786 86.7921C358.573 86.6641 358.338 86.6001 358.082 86.6001C357.528 86.6001 357.08 86.7067 356.738 86.9201C356.44 87.1334 356.098 87.5601 355.714 88.2001C355.458 88.5841 355.16 89.096 354.818 89.736C354.52 90.3334 354.136 90.952 353.666 91.592C353.197 92.232 352.642 92.7867 352.002 93.2561C351.832 93.4267 351.789 93.576 351.874 93.704C351.96 93.832 352.066 93.9387 352.194 94.024C353.261 94.92 354.178 96.072 354.946 97.48C355.714 98.8454 356.546 100.381 357.442 102.088C358.21 103.453 358.936 104.52 359.618 105.288C360.344 106.013 361.048 106.525 361.73 106.824C362.413 107.08 363.053 107.208 363.65 107.208C364.077 107.208 364.397 107.272 364.61 107.4C364.824 107.528 364.93 107.784 364.93 108.168C364.93 108.509 364.546 108.829 363.778 109.128C363.053 109.469 361.944 109.64 360.45 109.64C359.128 109.64 357.848 109.299 356.61 108.616C355.373 107.933 354.242 106.653 353.218 104.776C352.322 103.027 351.533 101.576 350.85 100.424C350.21 99.272 349.613 98.3547 349.058 97.6721C348.504 96.9894 347.949 96.4987 347.394 96.2001C346.84 95.9014 346.221 95.7521 345.538 95.7521C345.112 95.7521 344.898 95.944 344.898 96.328V104.904C344.898 105.715 345.154 106.269 345.666 106.568C346.221 106.824 346.904 107.08 347.714 107.336C348.056 107.464 348.376 107.613 348.674 107.784C348.973 107.912 349.122 108.147 349.122 108.488C349.122 108.787 348.952 108.979 348.61 109.064C348.269 109.149 347.992 109.192 347.778 109.192C346.968 109.192 346.264 109.149 345.666 109.064C345.112 109.021 344.557 108.979 344.002 108.936C343.49 108.893 342.85 108.872 342.082 108.872C341.357 108.872 340.717 108.893 340.162 108.936C339.608 108.979 339.032 109.021 338.434 109.064C337.88 109.149 337.176 109.192 336.322 109.192C336.109 109.192 335.832 109.149 335.49 109.064C335.149 108.979 334.978 108.808 334.978 108.552C334.978 108.211 335.106 107.955 335.362 107.784C335.661 107.613 335.981 107.464 336.322 107.336C337.133 107.08 337.816 106.845 338.37 106.632C338.925 106.376 339.202 105.821 339.202 104.968V96.328C339.202 95.944 338.989 95.7521 338.562 95.7521C337.88 95.7521 337.24 95.9014 336.642 96.2001C336.088 96.4561 335.533 96.9254 334.978 97.608C334.424 98.2907 333.805 99.2294 333.122 100.424C332.482 101.576 331.736 103.027 330.882 104.776C329.944 106.653 328.834 107.933 327.554 108.616C326.274 109.299 324.973 109.64 323.65 109.64Z" fill="#8EACCD"/>
<path d="M371.67 109.192C371.414 109.192 371.137 109.149 370.838 109.064C370.539 108.979 370.39 108.787 370.39 108.488C370.39 108.147 370.539 107.891 370.838 107.72C371.179 107.549 371.521 107.4 371.862 107.272C372.502 107.059 373.078 106.824 373.59 106.568C374.145 106.269 374.422 105.693 374.422 104.84V87.1121C374.422 86.2587 374.166 85.6827 373.654 85.384C373.185 85.0427 372.63 84.7867 371.99 84.6161C371.649 84.4881 371.307 84.3387 370.966 84.1681C370.667 83.9974 370.518 83.7414 370.518 83.4C370.518 83.144 370.667 82.9734 370.966 82.888C371.307 82.8027 371.585 82.76 371.798 82.76C372.651 82.76 373.355 82.7814 373.91 82.8241C374.507 82.8667 375.062 82.9307 375.574 83.0161C376.086 83.0587 376.705 83.08 377.43 83.08C378.198 83.08 378.817 83.0587 379.286 83.0161C379.755 82.9307 380.246 82.8667 380.758 82.8241C381.313 82.7814 382.017 82.76 382.87 82.76C383.083 82.76 383.339 82.8027 383.638 82.888C383.937 82.9734 384.086 83.144 384.086 83.4C384.086 83.6987 383.937 83.9547 383.638 84.1681C383.339 84.3387 383.019 84.4881 382.678 84.6161C382.038 84.8294 381.483 85.0854 381.014 85.384C380.545 85.6827 380.31 86.2587 380.31 87.1121V99.2081C380.31 99.4641 380.395 99.6347 380.566 99.72C380.737 99.8054 380.886 99.7841 381.014 99.6561L392.086 87.816C392.214 87.6454 392.299 87.5174 392.342 87.4321C392.427 87.3467 392.47 87.1974 392.47 86.984C392.47 86.1307 392.257 85.5761 391.83 85.3201C391.446 85.0214 390.934 84.7867 390.294 84.6161C389.953 84.4881 389.633 84.3387 389.334 84.1681C389.035 83.9974 388.886 83.7414 388.886 83.4C388.886 83.144 389.014 82.9734 389.27 82.888C389.569 82.8027 389.846 82.76 390.102 82.76C390.955 82.76 391.638 82.7814 392.15 82.8241C392.705 82.8667 393.217 82.9307 393.686 83.0161C394.198 83.0587 394.817 83.08 395.542 83.08C396.31 83.08 396.929 83.0587 397.398 83.0161C397.91 82.9307 398.443 82.8667 398.998 82.8241C399.553 82.7814 400.257 82.76 401.11 82.76C401.366 82.76 401.622 82.8027 401.878 82.888C402.177 82.9734 402.326 83.144 402.326 83.4C402.326 83.7414 402.177 83.9974 401.878 84.1681C401.579 84.3387 401.259 84.4881 400.918 84.6161C400.278 84.7867 399.681 85.0427 399.126 85.384C398.614 85.6827 398.358 86.2587 398.358 87.1121V104.84C398.358 105.693 398.635 106.269 399.19 106.568C399.787 106.824 400.406 107.059 401.046 107.272C401.387 107.4 401.707 107.549 402.006 107.72C402.305 107.891 402.454 108.147 402.454 108.488C402.454 108.787 402.305 108.979 402.006 109.064C401.707 109.149 401.451 109.192 401.238 109.192C400.385 109.192 399.659 109.149 399.062 109.064C398.507 109.021 397.953 108.979 397.398 108.936C396.886 108.893 396.246 108.872 395.478 108.872C394.753 108.872 394.113 108.893 393.558 108.936C393.046 108.979 392.491 109.021 391.894 109.064C391.339 109.149 390.635 109.192 389.782 109.192C389.569 109.192 389.313 109.149 389.014 109.064C388.715 108.979 388.566 108.787 388.566 108.488C388.566 108.147 388.715 107.891 389.014 107.72C389.313 107.549 389.633 107.4 389.974 107.272C390.614 107.059 391.19 106.824 391.702 106.568C392.214 106.269 392.47 105.693 392.47 104.84V91.6561C392.47 91.4427 392.427 91.3147 392.342 91.272C392.299 91.1867 392.235 91.2081 392.15 91.3361L380.694 103.752C380.438 104.008 380.31 104.371 380.31 104.84C380.31 105.736 380.587 106.312 381.142 106.568C381.697 106.824 382.294 107.059 382.934 107.272C383.275 107.4 383.595 107.549 383.894 107.72C384.193 107.891 384.342 108.147 384.342 108.488C384.342 108.744 384.193 108.915 383.894 109C383.595 109.128 383.339 109.192 383.126 109.192C382.273 109.192 381.547 109.149 380.95 109.064C380.395 109.021 379.862 108.979 379.35 108.936C378.838 108.893 378.198 108.872 377.43 108.872C376.705 108.872 376.065 108.893 375.51 108.936C374.955 108.979 374.379 109.021 373.782 109.064C373.227 109.149 372.523 109.192 371.67 109.192Z" fill="#8EACCD"/>
<path d="M426.891 109.96C426.294 109.96 425.803 109.555 425.419 108.744L417.099 90.248C416.928 89.9494 416.779 89.8214 416.651 89.8641C416.566 89.8641 416.48 90.0347 416.395 90.3761C416.352 90.6747 416.288 91.3147 416.203 92.2961C416.118 93.2347 416.032 94.3441 415.947 95.6241C415.862 96.8614 415.776 98.12 415.691 99.4C415.606 100.68 415.542 101.811 415.499 102.792C415.456 103.773 415.435 104.413 415.435 104.712C415.435 105.693 415.67 106.333 416.139 106.632C416.651 106.931 417.334 107.208 418.187 107.464C418.486 107.549 418.784 107.677 419.083 107.848C419.424 107.976 419.595 108.211 419.595 108.552C419.595 108.808 419.446 108.957 419.147 109C418.848 109.085 418.592 109.128 418.379 109.128C417.526 109.128 416.886 109.107 416.459 109.064C416.032 109.021 415.627 108.979 415.243 108.936C414.859 108.893 414.304 108.872 413.579 108.872C412.854 108.872 412.256 108.893 411.787 108.936C411.36 108.979 410.955 109.021 410.571 109.064C410.23 109.107 409.782 109.128 409.227 109.128C408.971 109.128 408.694 109.085 408.395 109C408.139 108.915 408.011 108.744 408.011 108.488C408.011 108.189 408.182 107.976 408.523 107.848C408.907 107.72 409.248 107.592 409.547 107.464C410.23 107.208 410.848 106.931 411.403 106.632C412 106.291 412.342 105.693 412.427 104.84L414.283 88.136C414.368 86.984 414.134 86.1307 413.579 85.576C413.024 84.9787 412.256 84.5734 411.275 84.36C410.891 84.2747 410.528 84.1467 410.187 83.9761C409.888 83.7627 409.739 83.5067 409.739 83.208C409.739 82.952 409.888 82.8027 410.187 82.76C410.528 82.6747 410.806 82.632 411.019 82.632C411.36 82.632 411.83 82.6534 412.427 82.6961C413.024 82.7387 413.622 82.7814 414.219 82.8241C414.859 82.8667 415.371 82.888 415.755 82.888C416.054 82.888 416.502 82.888 417.099 82.888C417.696 82.8454 418.208 82.8241 418.635 82.8241C418.848 82.8241 419.04 82.9307 419.211 83.1441C419.382 83.3147 419.488 83.464 419.531 83.592L428.043 101C428.214 101.384 428.363 101.597 428.491 101.64C428.662 101.64 428.832 101.469 429.003 101.128L435.595 86.472C435.894 85.704 436.192 84.9361 436.491 84.1681C436.79 83.4001 437.088 83.0161 437.387 83.0161H439.499C440.651 83.0161 441.803 82.9521 442.955 82.8241C444.15 82.6961 444.939 82.632 445.323 82.632C445.622 82.632 445.899 82.6747 446.155 82.76C446.454 82.8454 446.603 83.016 446.603 83.272C446.603 83.5707 446.454 83.8054 446.155 83.9761C445.856 84.1041 445.558 84.2107 445.259 84.2961C444.491 84.5094 443.787 84.8507 443.147 85.3201C442.507 85.7894 442.208 86.5147 442.251 87.496C442.294 89.3307 442.336 90.952 442.379 92.36C442.464 93.7254 442.55 95.0267 442.635 96.2641C442.72 97.5014 442.806 98.8027 442.891 100.168C443.019 101.533 443.126 103.112 443.211 104.904C443.254 105.715 443.574 106.291 444.171 106.632C444.811 106.931 445.472 107.208 446.155 107.464C446.454 107.549 446.752 107.677 447.051 107.848C447.35 107.976 447.499 108.211 447.499 108.552C447.499 108.808 447.35 108.957 447.051 109C446.795 109.085 446.56 109.128 446.347 109.128C445.579 109.128 444.854 109.107 444.171 109.064C443.531 109.021 442.891 108.979 442.251 108.936C441.654 108.893 440.992 108.872 440.267 108.872C439.542 108.872 438.88 108.893 438.283 108.936C437.686 108.979 437.067 109.021 436.427 109.064C435.83 109.107 435.126 109.128 434.315 109.128C434.102 109.128 433.846 109.085 433.547 109C433.291 108.957 433.163 108.808 433.163 108.552C433.163 108.211 433.291 107.976 433.547 107.848C433.846 107.677 434.144 107.549 434.443 107.464C435.296 107.208 435.979 106.952 436.491 106.696C437.003 106.397 437.259 105.821 437.259 104.968C437.216 103.261 437.152 101.107 437.067 98.5041C436.982 95.9014 436.854 93.256 436.683 90.568C436.683 90.184 436.598 90.0347 436.427 90.12C436.299 90.1627 436.15 90.3547 435.979 90.6961L428.107 108.808C427.766 109.576 427.36 109.96 426.891 109.96Z" fill="#8EACCD"/>
<path d="M466.481 109.896C464.049 109.896 461.831 109.341 459.825 108.232C457.863 107.08 456.305 105.523 455.153 103.56C454.001 101.597 453.425 99.3574 453.425 96.84C453.425 94.9627 453.788 93.1494 454.513 91.4C455.239 89.6507 456.263 88.072 457.585 86.664C458.908 85.256 460.444 84.1467 462.193 83.3361C463.943 82.4827 465.82 82.056 467.825 82.056C470.343 82.056 472.625 82.6747 474.673 83.912C476.721 85.1067 478.343 86.6854 479.537 88.648C480.732 90.6107 481.329 92.7654 481.329 95.1121C481.329 97.6721 480.775 100.083 479.665 102.344C478.556 104.605 476.892 106.44 474.673 107.848C472.497 109.213 469.767 109.896 466.481 109.896ZM467.825 107.656C469.063 107.656 470.172 107.421 471.153 106.952C472.135 106.44 472.903 105.672 473.457 104.648C473.969 103.667 474.311 102.472 474.481 101.064C474.695 99.6134 474.801 98.1414 474.801 96.648C474.801 94.5147 474.46 92.5094 473.777 90.632C473.095 88.7547 472.156 87.24 470.961 86.0881C469.767 84.9361 468.359 84.36 466.737 84.36C465.756 84.36 464.86 84.5307 464.049 84.872C463.281 85.1707 462.577 85.704 461.937 86.472C461.127 87.4534 460.593 88.7334 460.337 90.312C460.081 91.8481 459.953 93.5334 459.953 95.368C459.953 97.416 460.295 99.3787 460.977 101.256C461.66 103.133 462.577 104.669 463.729 105.864C464.924 107.059 466.289 107.656 467.825 107.656Z" fill="#8EACCD"/>
<path d="M500.084 109.96C497.908 109.96 495.946 109.405 494.196 108.296C492.447 107.144 491.06 105.587 490.036 103.624C489.012 101.661 488.5 99.4641 488.5 97.0321C488.5 94.2587 489.119 91.7414 490.356 89.48C491.594 87.2187 493.258 85.4267 495.348 84.104C497.439 82.7814 499.743 82.12 502.26 82.12C505.29 82.12 507.892 82.9947 510.068 84.744C510.538 85.1707 510.772 85.5761 510.772 85.9601C510.772 86.2587 510.602 86.6427 510.26 87.1121C509.962 87.5387 509.578 87.9227 509.108 88.2641C508.682 88.5627 508.276 88.7121 507.892 88.7121C507.636 88.7121 507.359 88.6267 507.06 88.456C506.804 88.2854 506.548 88.0934 506.292 87.8801C505.268 87.0694 504.18 86.3654 503.028 85.7681C501.919 85.1281 500.959 84.8081 500.148 84.8081C498.228 84.8081 496.692 85.6827 495.54 87.4321C494.431 89.1387 493.876 91.5494 493.876 94.664C493.876 96.712 494.26 98.5254 495.028 100.104C495.839 101.683 496.927 102.92 498.292 103.816C499.7 104.712 501.3 105.16 503.092 105.16C504.33 105.16 505.396 104.968 506.292 104.584C507.231 104.157 508.212 103.453 509.236 102.472C509.364 102.387 509.492 102.301 509.62 102.216C509.791 102.131 509.94 102.088 510.068 102.088C510.538 102.088 510.772 102.408 510.772 103.048C510.772 103.261 510.708 103.539 510.58 103.88C510.452 104.179 510.26 104.52 510.004 104.904C509.407 105.757 508.618 106.589 507.636 107.4C506.655 108.168 505.524 108.787 504.244 109.256C502.964 109.725 501.578 109.96 500.084 109.96Z" fill="#8EACCD"/>
<path d="M523.585 109.192C523.329 109.192 523.031 109.149 522.689 109.064C522.391 108.979 522.241 108.808 522.241 108.552C522.241 108.211 522.369 107.955 522.625 107.784C522.924 107.613 523.244 107.464 523.585 107.336C524.353 107.08 525.015 106.803 525.569 106.504C526.124 106.205 526.401 105.629 526.401 104.776L526.337 87.304C526.337 86.8774 526.295 86.4507 526.209 86.024C526.124 85.5547 525.889 85.3201 525.505 85.3201H522.241C521.644 85.3201 521.132 85.5121 520.705 85.896C520.279 86.2374 519.895 86.7281 519.553 87.368C519.255 87.9654 518.977 88.6907 518.721 89.5441C518.636 89.8854 518.465 90.2694 518.209 90.6961C517.953 91.0801 517.633 91.272 517.249 91.272C517.036 91.272 516.844 91.1654 516.673 90.952C516.545 90.696 516.481 90.3974 516.481 90.0561C516.481 89.8427 516.524 89.5654 516.609 89.2241C516.695 88.8827 516.759 88.5627 516.801 88.2641C516.929 87.6241 517.057 86.8134 517.185 85.832C517.356 84.808 517.441 83.9334 517.441 83.208C517.441 82.824 517.527 82.5254 517.697 82.312C517.868 82.0987 518.103 81.9921 518.401 81.9921C518.7 81.9921 518.977 82.0561 519.233 82.1841C519.532 82.2694 519.895 82.3761 520.321 82.5041C520.748 82.6747 521.217 82.8027 521.729 82.888C522.284 82.9734 522.924 83.0161 523.649 83.0161H537.217C537.815 83.0161 538.412 82.9947 539.009 82.952C539.649 82.8667 540.055 82.7601 540.225 82.632C540.481 82.4187 540.737 82.2694 540.993 82.1841C541.292 82.0561 541.484 81.9921 541.569 81.9921C541.74 81.9921 541.911 82.0987 542.081 82.312C542.252 82.4827 542.337 82.7387 542.337 83.08C542.337 83.5067 542.295 84.0187 542.209 84.6161C542.124 85.1707 542.081 85.7467 542.081 86.344C542.081 86.8987 542.081 87.496 542.081 88.136C542.124 88.7334 542.167 89.2667 542.209 89.736C542.252 90.0774 542.188 90.4187 542.017 90.76C541.847 91.1014 541.591 91.272 541.249 91.272C540.951 91.272 540.695 91.0587 540.481 90.632C540.268 90.2054 540.14 89.8427 540.097 89.5441C540.055 88.8187 539.884 88.136 539.585 87.496C539.329 86.856 538.945 86.3441 538.433 85.9601C537.964 85.5334 537.367 85.3201 536.641 85.3201H533.249C532.78 85.3201 532.481 85.5547 532.353 86.024C532.268 86.4507 532.225 86.8774 532.225 87.304V104.84C532.225 105.608 532.503 106.163 533.057 106.504C533.655 106.803 534.359 107.08 535.169 107.336C535.511 107.464 535.809 107.613 536.065 107.784C536.364 107.912 536.513 108.147 536.513 108.488C536.513 108.787 536.343 108.979 536.001 109.064C535.703 109.149 535.425 109.192 535.169 109.192C534.359 109.192 533.655 109.149 533.057 109.064C532.46 109.021 531.884 108.979 531.329 108.936C530.775 108.893 530.113 108.872 529.345 108.872C528.62 108.872 527.98 108.893 527.425 108.936C526.871 108.979 526.295 109.021 525.697 109.064C525.143 109.149 524.439 109.192 523.585 109.192Z" fill="#8EACCD"/>
<path d="M548.982 109.192C548.769 109.192 548.492 109.149 548.15 109.064C547.852 108.979 547.702 108.808 547.702 108.552C547.702 108.253 547.83 108.04 548.086 107.912C548.342 107.741 548.641 107.592 548.982 107.464C549.708 107.208 550.326 106.952 550.838 106.696C551.393 106.44 551.67 105.885 551.67 105.032V87.048C551.67 86.1947 551.478 85.6187 551.094 85.3201C550.71 84.9787 550.134 84.7014 549.366 84.4881C549.025 84.3601 548.705 84.2107 548.406 84.04C548.15 83.8694 548.022 83.656 548.022 83.4C548.022 83.144 548.172 82.9734 548.47 82.888C548.769 82.8027 549.046 82.76 549.302 82.76C550.198 82.76 550.881 82.8027 551.35 82.888C551.862 82.9307 552.332 82.9947 552.758 83.08C553.228 83.1227 553.846 83.1441 554.614 83.1441C555.425 83.1441 556.044 83.1227 556.47 83.08C556.94 82.9947 557.43 82.9307 557.942 82.888C558.454 82.8027 559.158 82.76 560.054 82.76C560.268 82.76 560.524 82.8027 560.822 82.888C561.164 82.9734 561.334 83.144 561.334 83.4C561.334 83.656 561.206 83.8694 560.95 84.04C560.694 84.2107 560.396 84.3601 560.054 84.4881C559.286 84.7014 558.668 84.9787 558.198 85.3201C557.772 85.6187 557.558 86.1947 557.558 87.048V93.512C557.558 93.7254 557.622 93.8747 557.75 93.9601C557.921 94.0027 558.07 94.0027 558.198 93.9601C558.625 93.7467 559.286 93.5974 560.182 93.512C561.121 93.4267 561.932 93.384 562.614 93.384C563.425 93.384 564.342 93.5121 565.366 93.7681C566.39 94.0241 567.372 94.4507 568.31 95.048C569.292 95.6027 570.081 96.3707 570.678 97.3521C571.318 98.2907 571.638 99.4854 571.638 100.936C571.638 102.941 571.105 104.563 570.038 105.8C569.014 106.995 567.628 107.869 565.878 108.424C564.172 108.936 562.316 109.192 560.31 109.192C559.5 109.192 558.796 109.149 558.198 109.064C557.644 109.021 557.089 109 556.534 109C556.022 108.957 555.361 108.936 554.55 108.936C553.868 108.936 553.249 108.957 552.694 109C552.14 109 551.564 109.021 550.966 109.064C550.369 109.149 549.708 109.192 548.982 109.192ZM560.502 107.144C561.782 107.144 562.913 106.675 563.894 105.736C564.918 104.755 565.43 103.325 565.43 101.448C565.43 99.4427 564.982 97.9707 564.086 97.0321C563.19 96.0507 561.846 95.5601 560.054 95.5601C559.116 95.5601 558.454 95.6881 558.07 95.9441C557.814 96.1147 557.665 96.3707 557.622 96.7121C557.58 97.0107 557.558 97.2454 557.558 97.4161V104.2C557.558 105.139 557.857 105.864 558.454 106.376C559.094 106.888 559.777 107.144 560.502 107.144Z" fill="#8EACCD"/>
<path d="M5.39844 163.6C3.79844 162.8 2.53177 161.667 1.59844 160.2C0.798438 158.733 0.398438 157.267 0.398438 155.8C0.398438 154.333 0.798438 153.133 1.59844 152.2C2.13177 151.667 2.6651 151.333 3.19844 151.2C3.73177 151.2 3.93177 151.533 3.79844 152.2C3.39844 154.2 4.2651 156.067 6.39844 157.8C8.6651 159.667 10.6651 160.8 12.3984 161.2C13.4651 161.333 14.4651 161.467 15.3984 161.6C16.4651 161.867 17.4651 162 18.3984 162C22.2651 162 25.9984 161.333 29.5984 160C34.3984 158.4 39.1318 155.067 43.7984 150C48.5984 145.067 53.0651 139.533 57.1984 133.4C61.0651 127.533 65.0651 120.467 69.1984 112.2C73.4651 103.8 77.8651 95.1334 82.3984 86.2H41.5984C41.1984 86.2 40.9984 86.0667 40.9984 85.8C40.9984 85.1334 41.4651 84.3334 42.3984 83.4C43.4651 82.3334 44.3984 81.8 45.1984 81.8H84.5984C88.8651 73.5334 93.3318 65.5334 97.9984 57.8C102.665 50.0667 107.532 43.0667 112.598 36.8C117.798 30.4 123.198 25.3334 128.798 21.6C123.732 21.0667 118.532 20.3334 113.198 19.4C107.998 18.4667 103.398 17.6 99.3984 16.8C93.6651 15.7334 87.9984 14.8 82.3984 14C76.9318 13.2 71.5318 12.8 66.1984 12.8C61.6651 12.8 57.2651 13.2 52.9984 14C48.8651 14.8 44.8651 16.1334 40.9984 18C37.7984 19.7334 34.7984 22.6667 31.9984 26.8C29.3318 30.8 27.9984 34.9334 27.9984 39.2C27.9984 40.9334 28.2651 42.6 28.7984 44.2001C29.4651 45.8 30.4651 47.3334 31.7984 48.8C32.0651 48.9334 31.9984 49.2 31.5984 49.6C31.3318 49.8667 30.9984 49.9334 30.5984 49.8C28.0651 47.5334 26.1984 45 24.9984 42.2C23.7984 39.2667 23.1984 36.3334 23.1984 33.4C23.1984 29 24.2651 24.8667 26.3984 21.0001C28.6651 17.1334 31.4651 14.2 34.7984 12.2C38.1318 10.3334 41.5984 9.00005 45.1984 8.20005C48.9318 7.40004 52.7984 7.00004 56.7984 7.00004C60.5318 7.00004 64.3318 7.26671 68.1984 7.80004C72.0651 8.33338 76.0651 9.00004 80.1984 9.80004C86.1984 11 92.4651 12.3334 98.9984 13.8C105.665 15.1334 111.998 16.2667 117.998 17.2C120.532 17.6 123.065 17.9334 125.598 18.2C128.265 18.4667 130.865 18.6667 133.398 18.8C137.665 16.8 141.798 15.8 145.798 15.8C146.332 15.8 147.465 15.8667 149.198 16C150.932 16.1334 151.798 16.7334 151.798 17.8C151.798 19.2667 150.732 20.3334 148.598 21.0001C146.598 21.5334 144.398 21.8667 141.998 22C139.598 22 137.865 22 136.798 22H134.798C133.198 23.0667 131.598 24.4 129.998 26C128.398 27.4667 126.798 29.1334 125.198 31C119.332 37.9334 113.998 45.8 109.198 54.6C104.398 63.4 99.7984 72.4667 95.3984 81.8H144.198L145.798 79C153.532 65.5334 162.065 52.5334 171.398 40C180.732 27.4667 189.865 14.8 198.798 2.00005C199.198 1.33338 199.865 1.06671 200.798 1.20004C201.865 1.20004 202.198 1.53338 201.798 2.20004C196.465 9.13337 191.198 16.8 185.998 25.2C180.932 33.6 176.132 42.1334 171.598 50.8C167.065 59.3334 162.865 67.4667 158.998 75.2001C158.198 76.5334 157.198 78.7334 155.998 81.8H169.598C169.865 81.8 169.998 81.9334 169.998 82.2001C169.998 82.7334 169.465 83.5334 168.398 84.6001C167.465 85.6667 166.598 86.2 165.798 86.2H153.998C152.265 90.6 150.265 95.6001 147.998 101.2C145.865 106.667 143.865 112.2 141.998 117.8C140.132 123.267 138.665 128.133 137.598 132.4C136.798 135.733 136.398 138.733 136.398 141.4C136.398 145.267 137.265 148.067 138.998 149.8C140.465 151.267 142.332 152 144.598 152C147.265 152 149.998 150.933 152.798 148.8C156.132 146.267 159.532 142.933 162.998 138.8C166.465 134.533 169.598 130.333 172.398 126.2C175.198 121.933 177.198 118.667 178.398 116.4C179.198 115.2 179.932 114.6 180.598 114.6C180.998 114.6 181.198 114.867 181.198 115.4C181.198 115.933 180.998 116.6 180.598 117.4C179.132 120.333 177.065 123.933 174.398 128.2C171.732 132.467 168.665 136.733 165.198 141C161.732 145.133 158.065 148.6 154.198 151.4C152.332 152.733 150.198 153.8 147.798 154.6C145.532 155.533 143.132 156 140.598 156C136.998 156 133.665 154.933 130.598 152.8C126.465 149.733 124.398 144.533 124.398 137.2C124.532 128.933 126.332 120.4 129.798 111.6C133.265 102.8 137.198 94.3334 141.598 86.2H93.3984C89.2651 94.8667 85.0651 103.4 80.7984 111.8C76.6651 120.067 72.2651 127.533 67.5984 134.2C63.0651 140.733 57.7984 146.6 51.7984 151.8C45.9318 157 39.2651 160.933 31.7984 163.6C27.6651 165.067 22.7318 165.8 16.9984 165.8C14.7318 165.8 12.5984 165.6 10.5984 165.2C8.59844 164.933 6.8651 164.4 5.39844 163.6Z" fill="#8EACCD"/>
<path d="M696.619 166.4C686.619 166.4 678.219 164.667 671.419 161.2C664.752 157.867 659.685 153.333 656.219 147.6C652.885 142 651.219 135.733 651.219 128.8C651.219 123.467 652.152 118 654.019 112.4C656.019 106.8 658.952 101.267 662.819 95.8C666.819 90.3334 671.752 85.3334 677.619 80.8C683.485 76.2667 689.885 72.6667 696.819 70C703.752 67.2 710.619 65.8 717.419 65.8C724.219 65.8 729.219 67.2 732.419 70C735.752 72.6667 737.419 76.1334 737.419 80.4C737.419 82.9334 736.819 85.7334 735.619 88.8C734.419 91.8667 732.552 94.9334 730.019 98C726.552 102.4 722.285 106.333 717.219 109.8C712.152 113.133 706.752 115.8 701.019 117.8C695.419 119.667 689.819 120.6 684.219 120.6C683.285 120.6 682.419 120.6 681.619 120.6C680.819 120.467 679.952 120.333 679.019 120.2C678.485 120.067 678.219 119.733 678.219 119.2C678.352 118.533 678.685 118.267 679.219 118.4C684.685 118.8 690.485 117.933 696.619 115.8C702.885 113.667 708.819 110.733 714.419 107C720.019 103.267 724.419 99.2 727.619 94.8C731.352 89.6 733.219 84.8 733.219 80.4C733.219 77.2 732.085 74.5334 729.819 72.4C727.552 70.1334 723.952 69 719.019 69C712.485 69 706.152 70.4 700.019 73.2C693.885 75.8667 688.152 79.4 682.819 83.8C677.619 88.2 673.152 93 669.419 98.2001C665.819 103.133 663.085 108.333 661.219 113.8C659.352 119.267 658.419 124.533 658.419 129.6C658.419 135.467 659.752 140.933 662.419 146C665.085 150.933 669.152 154.867 674.619 157.8C680.085 160.867 687.085 162.4 695.619 162.4C705.085 162.4 713.685 160.733 721.419 157.4C729.152 154.2 735.819 149.8 741.419 144.2C747.019 138.467 751.285 132 754.219 124.8C757.285 117.467 758.819 109.733 758.819 101.6C758.819 98.1334 758.685 94.8001 758.419 91.6001C758.285 88.2667 757.685 85.0667 756.619 82C755.152 77.3334 753.285 72.4667 751.019 67.4C748.752 62.3334 746.685 57.1334 744.819 51.8C743.085 46.4667 742.219 41.0667 742.219 35.6C742.219 30.6667 743.219 25.7334 745.219 20.8C747.885 14.8 751.752 10 756.819 6.40005C762.019 2.66672 768.085 0.800049 775.019 0.800049C777.552 0.800049 780.085 1.20005 782.619 2.00005C785.285 2.66671 787.552 3.86671 789.419 5.60005C791.285 7.33338 792.219 9.73338 792.219 12.8C792.219 14.9334 791.552 16.4667 790.219 17.4C788.885 18.3334 787.485 18.8 786.019 18.8C785.219 18.8 784.685 18.7334 784.419 18.6L785.019 14.6C785.019 11.2667 784.019 8.80005 782.019 7.20005C780.152 5.46671 777.685 4.60005 774.619 4.60005C770.885 4.60005 767.219 5.66671 763.619 7.80004C760.019 9.80004 757.352 12.4 755.619 15.6C752.952 20.5334 751.619 25.6 751.619 30.8C751.619 35.3334 752.352 39.8 753.819 44.2001C755.419 48.4667 757.285 52.6667 759.419 56.8C761.685 60.8 763.752 64.6667 765.619 68.4C770.952 78.5334 773.619 89.1334 773.619 100.2C773.619 109.8 771.619 118.667 767.619 126.8C763.619 134.8 758.085 141.733 751.019 147.6C743.952 153.6 735.752 158.2 726.419 161.4C717.219 164.733 707.285 166.4 696.619 166.4Z" fill="#8EACCD"/>
<path d="M788.074 109.192C787.135 109.192 786.666 108.936 786.666 108.424C786.666 108.083 786.815 107.848 787.114 107.72C787.413 107.592 787.754 107.443 788.138 107.272C788.778 107.059 789.375 106.803 789.93 106.504C790.485 106.205 790.762 105.608 790.762 104.712V73.16C790.762 71.752 790.57 70.6854 790.186 69.9601C789.802 69.2347 789.077 68.7441 788.01 68.4881C787.626 68.4027 787.434 68.104 787.434 67.592C787.434 67.1227 787.605 66.8454 787.946 66.76C789.055 66.5467 790.079 66.2694 791.018 65.928C791.999 65.5867 792.895 65.2667 793.706 64.968C794.559 64.6267 795.306 64.328 795.946 64.072C796.245 63.944 796.479 63.88 796.65 63.88C796.821 63.88 796.927 63.944 796.97 64.072C797.055 64.1574 797.098 64.3067 797.098 64.52C797.098 64.904 797.013 65.6507 796.842 66.76C796.714 67.8694 796.65 69.4907 796.65 71.624V93.6401C796.65 94.0667 796.778 94.2801 797.034 94.2801C797.247 94.2801 797.525 94.1947 797.866 94.024C798.207 93.8534 798.549 93.6187 798.89 93.3201C800.597 91.8694 802.047 90.5041 803.242 89.2241C804.437 87.9441 805.247 87.0267 805.674 86.472C805.845 86.216 805.973 86.0241 806.058 85.896C806.186 85.7254 806.25 85.5761 806.25 85.4481C806.25 85.2347 806.058 85.0427 805.674 84.872C805.333 84.6587 804.927 84.5094 804.458 84.424C803.946 84.3387 803.69 84.1254 803.69 83.784C803.69 83.5281 803.818 83.336 804.074 83.208C804.373 83.0374 804.714 82.952 805.098 82.952H808.234C808.917 82.952 809.706 82.9094 810.602 82.8241C811.541 82.6961 812.437 82.568 813.29 82.44C814.143 82.312 814.783 82.248 815.21 82.248C815.765 82.248 816.042 82.4827 816.042 82.952C816.042 83.208 815.893 83.4427 815.594 83.6561C815.338 83.8694 814.975 84.0401 814.506 84.1681C813.738 84.3387 812.949 84.6374 812.138 85.064C811.327 85.448 810.559 85.8534 809.834 86.2801C809.407 86.5361 808.746 87.0054 807.85 87.688C806.954 88.3707 805.994 89.1387 804.97 89.9921C803.946 90.8454 802.986 91.6774 802.09 92.4881C801.834 92.7014 801.706 92.9147 801.706 93.1281C801.706 93.2134 801.727 93.2987 801.77 93.384C801.855 93.4694 801.919 93.5547 801.962 93.6401C803.071 95.0054 804.202 96.3707 805.354 97.7361C806.506 99.1014 807.594 100.339 808.618 101.448C809.642 102.557 810.474 103.453 811.114 104.136C811.839 104.861 812.671 105.501 813.61 106.056C814.591 106.611 815.402 107.016 816.042 107.272C816.469 107.4 816.874 107.549 817.258 107.72C817.685 107.848 817.898 108.083 817.898 108.424C817.898 108.936 817.471 109.192 816.618 109.192C814.613 109.192 812.501 109.149 810.282 109.064C808.106 109.021 805.93 109 803.754 109C802.943 109 802.538 108.765 802.538 108.296C802.538 108.04 802.645 107.827 802.858 107.656C803.114 107.443 803.413 107.293 803.754 107.208C804.181 107.037 804.522 106.867 804.778 106.696C805.077 106.483 805.226 106.205 805.226 105.864C805.226 105.736 805.183 105.587 805.098 105.416C805.013 105.245 804.885 105.053 804.714 104.84L797.482 96.136C797.311 95.88 797.141 95.7521 796.97 95.7521C796.757 95.7947 796.65 95.944 796.65 96.2001C796.607 96.8401 796.586 97.5014 796.586 98.1841C796.586 98.8667 796.586 99.5707 796.586 100.296C796.586 100.979 796.586 101.725 796.586 102.536C796.586 103.304 796.607 104.051 796.65 104.776C796.65 105.544 796.842 106.099 797.226 106.44C797.61 106.781 798.122 107.059 798.762 107.272C799.103 107.4 799.423 107.549 799.722 107.72C800.021 107.848 800.17 108.083 800.17 108.424C800.17 108.723 799.999 108.915 799.658 109C799.317 109.128 799.039 109.192 798.826 109.192C798.015 109.192 797.354 109.149 796.842 109.064C796.33 109.021 795.861 108.979 795.434 108.936C795.007 108.893 794.41 108.872 793.642 108.872C792.917 108.872 792.298 108.893 791.786 108.936C791.274 108.979 790.741 109.021 790.186 109.064C789.631 109.149 788.927 109.192 788.074 109.192Z" fill="#8EACCD"/>
<path d="M825.072 127.176C824.133 127.176 823.259 126.899 822.448 126.344C821.637 125.832 821.232 125.085 821.232 124.104C821.232 123.293 821.424 122.568 821.808 121.928C822.192 121.288 822.768 120.968 823.536 120.968C824.091 120.968 824.624 121.032 825.136 121.16C825.691 121.331 826.181 121.416 826.608 121.416C827.035 121.373 827.355 121.267 827.568 121.096C827.781 120.968 827.995 120.712 828.208 120.328C828.635 119.645 829.083 118.835 829.552 117.896C830.064 117 830.597 115.955 831.152 114.76C831.707 113.565 832.283 112.221 832.88 110.728C833.136 110.088 833.264 109.405 833.264 108.68C833.264 108.253 833.221 107.848 833.136 107.464C833.051 107.08 832.923 106.696 832.752 106.312L825.2 87.8801C824.859 87.0694 824.453 86.3654 823.984 85.7681C823.515 85.1707 822.917 84.7654 822.192 84.552C821.851 84.3814 821.531 84.2107 821.232 84.04C820.976 83.8694 820.848 83.6134 820.848 83.272C820.848 83.016 821.019 82.8667 821.36 82.8241C821.701 82.7387 821.979 82.6961 822.192 82.6961C823.131 82.6961 823.856 82.7174 824.368 82.76C824.88 82.8027 825.349 82.8454 825.776 82.888C826.203 82.9307 826.757 82.952 827.44 82.952C828.251 82.952 828.891 82.9307 829.36 82.888C829.829 82.8454 830.32 82.8027 830.832 82.76C831.387 82.7174 832.112 82.6961 833.008 82.6961C833.307 82.6961 833.605 82.76 833.904 82.888C834.203 82.9734 834.352 83.144 834.352 83.4C834.352 83.7414 834.16 84.0401 833.776 84.2961C833.392 84.5094 833.029 84.6801 832.688 84.8081C832.219 84.9361 831.856 85.1707 831.6 85.512C831.387 85.8107 831.28 86.3014 831.28 86.984C831.28 87.2827 831.344 87.624 831.472 88.008C831.6 88.392 831.749 88.776 831.92 89.16L836.656 100.872C836.741 101.085 836.848 101.192 836.976 101.192C837.061 101.192 837.147 101.085 837.232 100.872L841.264 89.8C841.392 89.5014 841.499 89.1174 841.584 88.648C841.669 88.136 841.712 87.7094 841.712 87.368C841.712 86.6001 841.563 86.0454 841.264 85.704C840.965 85.32 840.624 85.0427 840.24 84.872C839.899 84.7014 839.515 84.5094 839.088 84.2961C838.704 84.0401 838.512 83.7414 838.512 83.4C838.512 83.144 838.661 82.9734 838.96 82.888C839.301 82.76 839.6 82.6961 839.856 82.6961C840.624 82.6961 841.328 82.7387 841.968 82.8241C842.608 82.9094 843.419 82.952 844.4 82.952C845.083 82.952 845.616 82.9307 846 82.888C846.384 82.8454 846.747 82.8027 847.088 82.76C847.429 82.7174 847.877 82.6961 848.432 82.6961C848.645 82.6961 848.923 82.7387 849.264 82.8241C849.605 82.8667 849.776 83.016 849.776 83.272C849.776 83.6134 849.627 83.8694 849.328 84.04C849.072 84.2107 848.773 84.3814 848.432 84.552C847.749 84.7654 847.045 85.256 846.32 86.024C845.637 86.792 845.083 87.6881 844.656 88.7121L835.632 110.216C835.504 110.6 835.227 111.283 834.8 112.264C834.416 113.245 833.947 114.397 833.392 115.72C832.837 117.043 832.24 118.429 831.6 119.88C831.003 121.373 830.405 122.803 829.808 124.168C829.381 125.149 828.741 125.896 827.888 126.408C827.077 126.92 826.139 127.176 825.072 127.176Z" fill="#8EACCD"/>
<path d="M862.205 109.896C860.839 109.896 859.538 109.704 858.301 109.32C857.106 108.936 856.061 108.381 855.165 107.656C854.866 107.101 854.653 106.227 854.525 105.032C854.397 103.837 854.333 102.749 854.333 101.768C854.333 101.341 854.653 101.128 855.293 101.128C855.549 101.128 855.762 101.192 855.933 101.32C856.146 101.405 856.274 101.533 856.317 101.704C856.957 103.709 857.853 105.224 859.005 106.248C860.157 107.272 861.415 107.784 862.781 107.784C863.975 107.784 864.957 107.4 865.725 106.632C866.493 105.821 866.877 104.861 866.877 103.752C866.877 102.6 866.471 101.64 865.661 100.872C864.85 100.061 863.613 99.144 861.949 98.12C860.583 97.3094 859.41 96.5201 858.429 95.7521C857.447 94.9414 856.701 94.0667 856.189 93.1281C855.677 92.1467 855.421 91.0374 855.421 89.8C855.421 88.3067 855.783 86.984 856.509 85.832C857.277 84.68 858.343 83.7627 859.709 83.08C861.074 82.3974 862.717 82.056 864.637 82.056C866.002 82.056 867.154 82.2054 868.093 82.5041C869.074 82.7601 869.778 83.0374 870.205 83.3361C870.546 83.8054 870.823 84.5734 871.037 85.6401C871.293 86.7067 871.421 87.7734 871.421 88.84C871.421 89.1814 871.143 89.3521 870.589 89.3521C870.333 89.3521 870.055 89.288 869.757 89.16C869.501 89.032 869.33 88.8614 869.245 88.648C868.69 87.1547 867.986 86.0241 867.133 85.2561C866.322 84.488 865.319 84.104 864.125 84.104C863.101 84.104 862.183 84.424 861.373 85.064C860.562 85.6614 860.157 86.536 860.157 87.688C860.157 88.6694 860.498 89.5441 861.181 90.312C861.906 91.0374 863.037 91.8267 864.573 92.68C867.133 94.088 869.01 95.4321 870.205 96.7121C871.442 97.9494 872.061 99.6134 872.061 101.704C872.061 104.179 871.165 106.163 869.373 107.656C867.623 109.149 865.234 109.896 862.205 109.896Z" fill="#8EACCD"/>
<path d="M890.745 109.96C888.569 109.96 886.606 109.405 884.857 108.296C883.107 107.144 881.721 105.587 880.697 103.624C879.673 101.661 879.161 99.4641 879.161 97.0321C879.161 94.2587 879.779 91.7414 881.017 89.48C882.254 87.2187 883.918 85.4267 886.009 84.104C888.099 82.7814 890.403 82.12 892.921 82.12C895.95 82.12 898.553 82.9947 900.729 84.744C901.198 85.1707 901.433 85.5761 901.433 85.9601C901.433 86.2587 901.262 86.6427 900.921 87.1121C900.622 87.5387 900.238 87.9227 899.769 88.2641C899.342 88.5627 898.937 88.7121 898.553 88.7121C898.297 88.7121 898.019 88.6267 897.721 88.456C897.465 88.2854 897.209 88.0934 896.953 87.8801C895.929 87.0694 894.841 86.3654 893.689 85.7681C892.579 85.1281 891.619 84.8081 890.809 84.8081C888.889 84.8081 887.353 85.6827 886.201 87.4321C885.091 89.1387 884.537 91.5494 884.537 94.664C884.537 96.712 884.921 98.5254 885.689 100.104C886.499 101.683 887.587 102.92 888.953 103.816C890.361 104.712 891.961 105.16 893.753 105.16C894.99 105.16 896.057 104.968 896.953 104.584C897.891 104.157 898.873 103.453 899.897 102.472C900.025 102.387 900.153 102.301 900.281 102.216C900.451 102.131 900.601 102.088 900.729 102.088C901.198 102.088 901.433 102.408 901.433 103.048C901.433 103.261 901.369 103.539 901.241 103.88C901.113 104.179 900.921 104.52 900.665 104.904C900.067 105.757 899.278 106.589 898.297 107.4C897.315 108.168 896.185 108.787 894.905 109.256C893.625 109.725 892.238 109.96 890.745 109.96Z" fill="#8EACCD"/>
<path d="M913.308 109.896C912.412 109.896 911.537 109.597 910.684 109C909.831 108.445 909.127 107.741 908.572 106.888C908.017 105.992 907.74 105.117 907.74 104.264C907.74 102.856 908.124 101.725 908.892 100.872C909.703 100.019 910.94 99.2507 912.604 98.5681L918.812 95.9441C919.665 95.6027 920.177 95.304 920.348 95.048C920.519 94.7494 920.625 94.1734 920.668 93.3201L920.796 89.416C920.839 88.264 920.561 87.304 919.964 86.536C919.367 85.768 918.492 85.384 917.34 85.384C916.743 85.384 916.124 85.5121 915.484 85.7681C914.887 85.9814 914.396 86.2374 914.012 86.536C913.799 86.7067 913.649 86.9414 913.564 87.2401C913.521 87.5387 913.5 87.8587 913.5 88.2001C913.5 88.4134 913.5 88.6694 913.5 88.968C913.543 89.224 913.564 89.4374 913.564 89.608C913.564 89.864 913.265 90.184 912.668 90.568C912.113 90.9094 911.452 91.2294 910.684 91.5281C909.959 91.8267 909.34 91.9761 908.828 91.9761C908.572 91.9761 908.359 91.9121 908.188 91.784C908.06 91.6134 907.996 91.4001 907.996 91.1441C907.996 90.4614 908.209 89.7574 908.636 89.0321C909.105 88.2641 909.788 87.4961 910.684 86.7281C911.708 85.8321 912.817 85.0427 914.012 84.36C915.249 83.6347 916.444 83.0801 917.596 82.6961C918.791 82.3121 919.836 82.12 920.732 82.12C922.524 82.12 923.975 82.7387 925.084 83.9761C926.236 85.1707 926.769 86.728 926.684 88.648L926.364 103.112C926.321 104.051 926.513 104.819 926.94 105.416C927.367 106.013 927.9 106.312 928.54 106.312C929.521 106.312 930.289 106.056 930.844 105.544C931.015 105.373 931.164 105.288 931.292 105.288C931.505 105.288 931.676 105.352 931.804 105.48C931.975 105.608 932.06 105.779 932.06 105.992C932.06 106.504 931.761 107.037 931.164 107.592C930.439 108.317 929.649 108.872 928.796 109.256C927.985 109.683 927.196 109.896 926.428 109.896C924.295 109.896 922.588 108.744 921.308 106.44H921.116C919.708 107.635 918.385 108.509 917.148 109.064C915.911 109.619 914.631 109.896 913.308 109.896ZM916.636 106.44C917.361 106.44 917.959 106.333 918.428 106.12C918.94 105.864 919.388 105.523 919.772 105.096C919.985 104.883 920.135 104.627 920.22 104.328C920.348 103.987 920.433 103.475 920.476 102.792L920.604 99.1441C920.647 98.7174 920.625 98.4187 920.54 98.248C920.455 98.0347 920.284 97.928 920.028 97.928C919.943 97.928 919.815 97.9494 919.644 97.9921C919.473 98.0347 919.239 98.12 918.94 98.248C917.02 98.9734 915.676 99.7414 914.908 100.552C914.14 101.32 913.756 102.173 913.756 103.112C913.756 104.264 914.055 105.117 914.652 105.672C915.292 106.184 915.953 106.44 916.636 106.44Z" fill="#8EACCD"/>
<path d="M937.698 126.728C937.442 126.728 937.143 126.664 936.802 126.536C936.503 126.451 936.354 126.28 936.354 126.024C936.354 125.683 936.503 125.427 936.802 125.256C937.1 125.085 937.442 124.936 937.826 124.808C938.551 124.595 939.17 124.339 939.682 124.04C940.194 123.741 940.45 123.187 940.45 122.376V90.568C940.45 90.184 940.343 89.6721 940.13 89.0321C939.959 88.3921 939.66 87.7947 939.234 87.2401C938.807 86.6854 938.274 86.3654 937.634 86.2801C937.42 86.1947 937.25 86.0881 937.122 85.9601C937.036 85.7894 936.994 85.5761 936.994 85.3201C936.994 85.0641 937.036 84.872 937.122 84.744C937.25 84.5734 937.399 84.4667 937.57 84.424C939.106 84.04 940.556 83.6134 941.922 83.1441C943.287 82.6747 944.503 82.1841 945.57 81.6721C945.698 81.6721 945.783 81.6507 945.826 81.608C945.911 81.5227 945.996 81.48 946.082 81.48C946.21 81.48 946.316 81.5654 946.402 81.736C946.487 81.864 946.53 81.992 946.53 82.12C946.53 82.504 946.466 83.1014 946.338 83.912C946.252 84.7227 946.21 85.4054 946.21 85.9601C946.21 86.3014 946.231 86.4934 946.274 86.536C946.7 86.1094 947.468 85.576 948.578 84.9361C949.687 84.2534 950.967 83.6347 952.418 83.08C953.868 82.5254 955.255 82.248 956.578 82.248C958.796 82.248 960.695 82.8454 962.274 84.04C963.852 85.2347 965.068 86.7707 965.922 88.648C966.775 90.5254 967.202 92.4667 967.202 94.4721C967.202 96.4347 966.818 98.3334 966.05 100.168C965.324 102.003 964.279 103.667 962.914 105.16C961.591 106.611 960.055 107.784 958.306 108.68C956.556 109.533 954.658 109.96 952.61 109.96C952.055 109.96 951.394 109.875 950.626 109.704C949.858 109.576 949.09 109.363 948.322 109.064C947.596 108.808 947.02 108.509 946.594 108.168C946.551 108.168 946.508 108.36 946.466 108.744C946.423 109.085 946.38 109.448 946.338 109.832C946.338 110.259 946.338 110.557 946.338 110.728V122.184C946.338 122.739 946.53 123.187 946.914 123.528C947.298 123.869 947.746 124.125 948.258 124.296C948.812 124.509 949.367 124.701 949.922 124.872C950.306 125 950.647 125.128 950.946 125.256C951.244 125.427 951.394 125.683 951.394 126.024C951.394 126.28 951.244 126.451 950.946 126.536C950.647 126.664 950.348 126.728 950.05 126.728C948.812 126.728 947.682 126.664 946.658 126.536C945.634 126.451 944.567 126.408 943.458 126.408C942.732 126.408 942.092 126.429 941.538 126.472C940.983 126.515 940.407 126.557 939.81 126.6C939.255 126.685 938.551 126.728 937.698 126.728ZM953.186 107.656C953.783 107.656 954.487 107.485 955.298 107.144C956.108 106.76 956.919 106.141 957.73 105.288C958.583 104.435 959.287 103.304 959.842 101.896C960.396 100.488 960.674 98.7387 960.674 96.648C960.674 94.216 960.375 92.2747 959.778 90.8241C959.223 89.3734 958.519 88.2854 957.666 87.5601C956.812 86.7921 955.938 86.28 955.042 86.024C954.188 85.768 953.463 85.6401 952.866 85.6401C951.927 85.6401 950.946 85.8534 949.922 86.2801C948.94 86.6641 948.108 87.112 947.426 87.624C946.786 88.136 946.466 88.5414 946.466 88.84C946.466 89.6081 946.444 90.4827 946.402 91.4641C946.402 92.4027 946.38 93.3841 946.338 94.4081C946.338 95.3894 946.338 96.2854 946.338 97.0961C946.338 97.9067 946.338 98.4827 946.338 98.8241C946.338 100.275 946.658 101.683 947.298 103.048C947.98 104.413 948.834 105.523 949.858 106.376C950.924 107.229 952.034 107.656 953.186 107.656Z" fill="#8EACCD"/>
<path d="M985.907 109.96C983.603 109.96 981.555 109.384 979.763 108.232C978.014 107.037 976.627 105.395 975.603 103.304C974.579 101.171 974.067 98.7174 974.067 95.9441C974.067 93.4267 974.643 91.1227 975.795 89.0321C976.99 86.9414 978.568 85.2774 980.531 84.04C982.494 82.76 984.648 82.12 986.995 82.12C988.744 82.12 990.302 82.4827 991.667 83.208C993.075 83.8907 994.163 84.872 994.931 86.152C995.742 87.3894 996.147 88.8187 996.147 90.44C996.147 91.848 995.486 92.552 994.163 92.552H980.915C980.318 92.552 979.891 92.7227 979.635 93.064C979.379 93.4054 979.251 94.0241 979.251 94.9201C979.251 96.7974 979.678 98.5254 980.531 100.104C981.384 101.64 982.515 102.877 983.923 103.816C985.331 104.755 986.888 105.224 988.595 105.224C989.875 105.224 991.027 104.989 992.051 104.52C993.118 104.008 994.099 103.304 994.995 102.408C995.123 102.237 995.23 102.109 995.315 102.024C995.443 101.939 995.571 101.896 995.699 101.896C996.083 101.896 996.275 102.131 996.275 102.6C996.275 103.283 995.976 104.093 995.379 105.032C994.782 105.928 994.014 106.76 993.075 107.528C992.179 108.253 991.112 108.829 989.875 109.256C988.68 109.725 987.358 109.96 985.907 109.96ZM980.979 90.3761H986.099C987.208 90.3761 988.083 90.3547 988.723 90.312C989.363 90.2694 989.96 90.1841 990.515 90.0561C990.728 89.9707 990.878 89.8001 990.963 89.5441C991.048 89.2454 991.091 88.8827 991.091 88.456C991.091 87.2614 990.6 86.2587 989.619 85.4481C988.638 84.5947 987.464 84.1681 986.099 84.1681C985.16 84.1681 984.222 84.4454 983.283 85C982.387 85.5547 981.64 86.2587 981.043 87.1121C980.446 87.9227 980.168 88.7547 980.211 89.608C980.211 90.12 980.467 90.3761 980.979 90.3761Z" fill="#8EACCD"/>
</svg>
