<svg width="64" height="62" viewBox="0 0 64 62" fill="none" xmlns="http://www.w3.org/2000/svg">
<path d="M31.0671 1.66659C31.2592 0.561653 32.8454 0.561659 33.0375 1.6666L37.1542 25.3441C37.2276 25.7663 37.5619 26.0948 37.9853 26.1608L62.665 30.012C63.7928 30.188 63.7928 31.8121 62.665 31.9881L37.9853 35.8393C37.5619 35.9054 37.2276 36.2339 37.1542 36.656L33.0375 60.3335C32.8454 61.4385 31.2592 61.4385 31.0671 60.3335L26.9503 36.656C26.8769 36.2339 26.5427 35.9054 26.1193 35.8393L1.43957 31.9881C0.311809 31.8121 0.311811 30.188 1.43957 30.012L26.1193 26.1608C26.5427 26.0948 26.8769 25.7663 26.9503 25.3441L31.0671 1.66659Z" fill="#8DADEC"/>
<path d="M41.394 20.3043C42.3194 19.637 43.515 20.707 42.8645 21.6202L36.4819 30.5799C36.2354 30.926 36.2486 31.3818 36.5148 31.7131L43.4146 40.3003C44.1177 41.1753 42.9833 42.313 42.0212 41.6979L32.5787 35.6609C32.2144 35.428 31.7332 35.4414 31.3825 35.6943L22.3039 42.2414C21.3786 42.9087 20.1829 41.8388 20.8335 40.9255L27.216 31.9658C27.4625 31.6197 27.4493 31.1639 27.1832 30.8326L20.2833 22.2454C19.5803 21.3704 20.7147 20.2327 21.6768 20.8478L31.1193 26.8849C31.4836 27.1178 31.9647 27.1043 32.3154 26.8514L41.394 20.3043Z" fill="#8DADEC"/>
</svg>
