<svg width="64" height="61" viewBox="0 0 64 61" fill="none" xmlns="http://www.w3.org/2000/svg">
<path d="M33.0435 1.51359C32.8508 0.409533 31.266 0.409532 31.0733 1.51359L26.9569 25.0954C26.8832 25.5175 26.5488 25.8458 26.1254 25.9116L1.47141 29.7435C0.342862 29.919 0.342862 31.5444 1.47142 31.7198L26.1254 35.5518C26.5488 35.6176 26.8832 35.9458 26.9569 36.3679L31.0733 59.9498C31.266 61.0538 32.8508 61.0538 33.0435 59.9498L37.1599 36.3679C37.2336 35.9458 37.568 35.6176 37.9914 35.5518L62.6454 31.7198C63.7739 31.5444 63.7739 29.919 62.6454 29.7435L37.9914 25.9116C37.568 25.8458 37.2336 25.5175 37.1599 25.0954L33.0435 1.51359Z" fill="white"/>
<path d="M22.7254 20.0846C21.7982 19.4187 20.6005 20.4862 21.2523 21.3976L27.6279 30.3122C27.875 30.6576 27.8618 31.1125 27.5951 31.443L20.7036 39.9859C19.9993 40.859 21.136 41.9946 22.0998 41.3808L31.531 35.3749C31.8959 35.1425 32.3779 35.1559 32.7293 35.4084L41.7981 41.9224C42.7252 42.5884 43.9229 41.5209 43.2711 40.6095L36.8955 31.6949C36.6485 31.3495 36.6617 30.8946 36.9283 30.564L43.8198 22.0211C44.5242 21.148 43.3875 20.0125 42.4236 20.6263L32.9925 26.6322C32.6276 26.8646 32.1455 26.8511 31.7941 26.5987L22.7254 20.0846Z" fill="white"/>
</svg>
