<svg width="883" height="150" viewBox="0 0 883 150" fill="none" xmlns="http://www.w3.org/2000/svg">
<path d="M156.566 111.089C153.953 111.089 151.794 110.407 150.09 109.044C148.424 107.68 147.174 105.863 146.341 103.591C145.508 101.28 145.072 98.7432 145.034 95.9787C145.034 91.9645 145.508 88.3479 146.454 85.129C147.401 81.9101 148.897 79.2402 150.942 77.1195C153.025 74.9988 155.714 73.6355 159.008 73.0296L161.849 72.5183C162.985 72.329 163.875 72.1207 164.518 71.8935C165.2 71.6663 165.749 71.4391 166.166 71.2118C166.582 70.9468 166.98 70.6627 167.359 70.3598C167.396 70.3219 167.472 70.303 167.586 70.303C167.737 70.303 167.832 70.3976 167.87 70.587C167.946 70.7385 167.983 70.871 167.983 70.9846C167.983 71.8935 167.794 72.8402 167.415 73.8249C167.037 74.7716 166.412 75.6047 165.541 76.3243C164.708 77.0438 163.591 77.5361 162.189 77.8012L155.316 79.0509C153.915 79.316 152.741 79.7894 151.794 80.471C150.885 81.1527 150.222 82.1373 149.806 83.4249C149.389 84.7124 149.238 86.4166 149.351 88.5373C149.389 88.8402 149.503 89.0107 149.692 89.0485C149.92 89.0864 150.166 89.0107 150.431 88.8213C151.188 88.1775 152.135 87.6284 153.271 87.174C154.445 86.7195 155.903 86.4923 157.645 86.4923C160.031 86.4923 162.019 87.0604 163.609 88.1964C165.2 89.2947 166.393 90.7148 167.188 92.4568C167.983 94.1988 168.381 96.0355 168.381 97.9669C168.381 100.201 167.946 102.322 167.075 104.329C166.204 106.336 164.897 107.964 163.155 109.214C161.413 110.464 159.217 111.089 156.566 111.089ZM156.963 108.987C158.44 108.987 159.576 108.57 160.372 107.737C161.205 106.866 161.773 105.673 162.076 104.159C162.417 102.644 162.587 100.902 162.587 98.9325C162.587 97.1905 162.341 95.5243 161.849 93.9337C161.356 92.3432 160.656 91.0367 159.747 90.0142C158.838 88.9917 157.759 88.4805 156.509 88.4805C155.6 88.4805 154.729 88.6698 153.896 89.0485C153.101 89.3894 152.457 89.9195 151.964 90.6391C151.434 91.3965 151.075 92.3432 150.885 93.4793C150.734 94.6154 150.658 95.9598 150.658 97.5124C150.696 99.6331 150.961 101.564 151.453 103.307C151.946 105.049 152.665 106.431 153.612 107.453C154.559 108.476 155.676 108.987 156.963 108.987Z" fill="#8EACCD"/>
<path d="M179.992 110.407C179.765 110.407 179.518 110.369 179.253 110.293C178.988 110.218 178.856 110.066 178.856 109.839C178.856 109.574 178.969 109.385 179.197 109.271C179.462 109.12 179.727 108.987 179.992 108.873C180.636 108.646 181.185 108.419 181.639 108.192C182.131 107.965 182.378 107.472 182.378 106.715V90.355C182.378 89.9385 182.302 89.6544 182.15 89.503C182.037 89.3136 181.715 89.2189 181.185 89.2189H179.026C178.231 89.2189 177.606 89.5408 177.152 90.1846C176.735 90.8284 176.243 91.6805 175.675 92.7408C175.561 92.9302 175.372 93.2331 175.107 93.6497C174.842 94.0284 174.539 94.2178 174.198 94.2178C173.971 94.2178 173.819 94.1231 173.743 93.9337C173.668 93.7444 173.63 93.5361 173.63 93.3089C173.63 93.1953 173.63 93.0627 173.63 92.9112C173.668 92.7219 173.705 92.5515 173.743 92.4C173.933 91.7562 174.103 90.9042 174.255 89.8438C174.406 88.7834 174.482 87.9124 174.482 87.2308C174.482 86.9278 174.595 86.6817 174.823 86.4923C175.05 86.2651 175.22 86.1515 175.334 86.1515C175.41 86.1515 175.542 86.2083 175.731 86.3219C175.959 86.4355 176.167 86.568 176.356 86.7195C176.546 86.871 176.849 86.9846 177.265 87.0604C177.72 87.0982 178.212 87.1172 178.742 87.1172H184.877C185.597 87.1172 186.165 87.1172 186.581 87.1172C186.998 87.0793 187.433 87.0414 187.888 87.0035C188.38 86.9657 189.024 86.9468 189.819 86.9468C190.046 86.9468 190.292 86.9846 190.558 87.0604C190.86 87.1361 191.012 87.2876 191.012 87.5148C191.012 87.742 190.879 87.9314 190.614 88.0828C190.387 88.2343 190.122 88.3669 189.819 88.4805C189.137 88.6698 188.588 88.916 188.172 89.2189C187.793 89.484 187.604 89.9953 187.604 90.7527V96.4899C187.604 96.6793 187.66 96.8118 187.774 96.8876C187.926 96.9254 188.058 96.9254 188.172 96.8876C188.55 96.6982 189.137 96.5657 189.933 96.4899C190.766 96.4142 191.485 96.3763 192.091 96.3763C192.849 96.3763 193.682 96.4899 194.591 96.7172C195.5 96.9444 196.371 97.3041 197.204 97.7965C198.037 98.2888 198.718 98.9515 199.249 99.7846C199.817 100.58 200.101 101.564 200.101 102.738C200.101 104.746 199.627 106.317 198.681 107.453C197.772 108.551 196.56 109.328 195.045 109.782C193.53 110.199 191.864 110.407 190.046 110.407C189.327 110.407 188.702 110.369 188.172 110.293C187.679 110.256 187.187 110.237 186.695 110.237C186.24 110.199 185.653 110.18 184.934 110.18C184.328 110.18 183.779 110.199 183.287 110.237C182.794 110.237 182.283 110.256 181.753 110.293C181.26 110.369 180.674 110.407 179.992 110.407ZM189.933 108.589C191.182 108.589 192.281 108.097 193.227 107.112C194.174 106.128 194.647 104.954 194.647 103.591C194.647 101.811 194.231 100.485 193.398 99.6142C192.602 98.7432 191.429 98.3077 189.876 98.3077C189.005 98.3077 188.399 98.4213 188.058 98.6485C187.831 98.8 187.698 99.0272 187.66 99.3302C187.623 99.5953 187.604 99.8036 187.604 99.955V105.976C187.604 106.734 187.85 107.359 188.342 107.851C188.872 108.343 189.403 108.589 189.933 108.589Z" fill="#8EACCD"/>
<path d="M216.624 111.089C214.579 111.089 212.762 110.578 211.171 109.555C209.618 108.495 208.388 107.037 207.479 105.181C206.57 103.288 206.115 101.11 206.115 98.6485C206.115 96.4142 206.627 94.3692 207.649 92.5136C208.709 90.658 210.111 89.1811 211.853 88.0828C213.595 86.9468 215.507 86.3787 217.59 86.3787C219.143 86.3787 220.525 86.7006 221.737 87.3444C222.986 87.9503 223.952 88.8213 224.634 89.9574C225.353 91.0556 225.713 92.3243 225.713 93.7633C225.713 95.013 225.126 95.6379 223.952 95.6379H212.193C211.663 95.6379 211.285 95.7894 211.057 96.0923C210.83 96.3953 210.717 96.9444 210.717 97.7396C210.717 99.4059 211.095 100.94 211.853 102.341C212.61 103.704 213.614 104.802 214.863 105.636C216.113 106.469 217.495 106.885 219.01 106.885C220.146 106.885 221.169 106.677 222.077 106.26C223.024 105.806 223.895 105.181 224.691 104.386C224.804 104.234 224.899 104.121 224.975 104.045C225.088 103.969 225.202 103.931 225.315 103.931C225.656 103.931 225.827 104.14 225.827 104.556C225.827 105.162 225.562 105.882 225.031 106.715C224.501 107.51 223.819 108.249 222.986 108.93C222.191 109.574 221.244 110.085 220.146 110.464C219.086 110.88 217.912 111.089 216.624 111.089ZM212.25 93.7065H216.795C217.779 93.7065 218.556 93.6876 219.124 93.6497C219.692 93.6118 220.222 93.5361 220.714 93.4225C220.904 93.3467 221.036 93.1953 221.112 92.968C221.188 92.703 221.225 92.3811 221.225 92.0024C221.225 90.942 220.79 90.0521 219.919 89.3325C219.048 88.5751 218.006 88.1964 216.795 88.1964C215.962 88.1964 215.128 88.4426 214.295 88.9349C213.5 89.4272 212.837 90.0521 212.307 90.8095C211.777 91.529 211.531 92.2675 211.569 93.0249C211.569 93.4793 211.796 93.7065 212.25 93.7065Z" fill="#8EACCD"/>
<path d="M254.819 111.032C253.721 111.032 252.774 110.88 251.979 110.578C251.222 110.275 250.521 109.801 249.877 109.157C249.233 108.514 248.59 107.718 247.946 106.772C247.34 105.787 246.658 104.632 245.901 103.307C245.295 102.322 244.784 101.489 244.367 100.807C243.951 100.125 243.496 99.5953 243.004 99.2166C242.512 98.8 241.811 98.5917 240.902 98.5917C240.523 98.5917 240.334 98.7621 240.334 99.103V106.601C240.334 107.321 240.58 107.813 241.072 108.078C241.603 108.305 242.227 108.533 242.947 108.76C243.25 108.873 243.515 109.006 243.742 109.157C244.007 109.271 244.14 109.479 244.14 109.782C244.14 110.047 243.988 110.218 243.685 110.293C243.383 110.369 243.155 110.407 243.004 110.407C242.284 110.407 241.641 110.369 241.072 110.293C240.542 110.256 240.031 110.218 239.539 110.18C239.046 110.142 238.459 110.123 237.778 110.123C237.134 110.123 236.566 110.142 236.074 110.18C235.581 110.218 235.07 110.256 234.54 110.293C234.048 110.369 233.423 110.407 232.665 110.407C232.476 110.407 232.23 110.369 231.927 110.293C231.624 110.218 231.472 110.066 231.472 109.839C231.472 109.536 231.586 109.309 231.813 109.157C232.078 109.006 232.362 108.873 232.665 108.76C233.385 108.533 233.991 108.324 234.483 108.135C234.975 107.946 235.222 107.472 235.222 106.715V91.0367C235.222 90.2793 235.013 89.7112 234.597 89.3325C234.18 88.9538 233.612 88.6698 232.893 88.4805C232.59 88.4047 232.306 88.2911 232.041 88.1396C231.813 87.9503 231.7 87.7231 231.7 87.458C231.7 87.155 231.851 86.9846 232.154 86.9468C232.457 86.871 232.703 86.8331 232.893 86.8331C233.65 86.8331 234.256 86.8521 234.71 86.8899C235.165 86.9278 235.619 86.9846 236.074 87.0604C236.528 87.0982 237.077 87.1172 237.721 87.1172C238.403 87.1172 238.952 87.0982 239.368 87.0604C239.823 87.0225 240.296 86.9846 240.788 86.9468C241.319 86.9089 241.943 86.8899 242.663 86.8899C242.852 86.8899 243.098 86.9089 243.401 86.9468C243.704 86.9846 243.856 87.155 243.856 87.458C243.856 87.7231 243.723 87.9314 243.458 88.0828C243.193 88.2343 242.909 88.3669 242.606 88.4805C241.887 88.7077 241.319 89.0296 240.902 89.4462C240.523 89.8249 240.334 90.3929 240.334 91.1503V96.4331C240.334 96.6225 240.391 96.774 240.504 96.8876C240.656 96.9633 240.826 97.0012 241.016 97.0012C242.833 97.0012 244.216 96.5657 245.162 95.6947C246.147 94.7858 246.961 93.7633 247.605 92.6272C248.059 91.8698 248.476 91.1124 248.855 90.355C249.233 89.5598 249.65 88.8402 250.104 88.1964C250.559 87.5527 251.108 87.0414 251.752 86.6627C252.433 86.284 253.267 86.0947 254.251 86.0947C255.236 86.0947 255.974 86.3598 256.467 86.8899C256.997 87.4201 257.262 88.045 257.262 88.7645C257.262 89.484 257.091 90.071 256.751 90.5254C256.41 90.942 255.974 91.1503 255.444 91.1503C254.99 91.1503 254.459 91.0178 253.854 90.7527C253.285 90.4497 252.793 90.2982 252.377 90.2982C251.884 90.2982 251.506 90.4118 251.241 90.6391C251.013 90.8663 250.748 91.2071 250.445 91.6615C250.256 91.9645 250.01 92.4189 249.707 93.0249C249.404 93.5929 249.063 94.1799 248.684 94.7858C248.343 95.3539 247.946 95.8272 247.491 96.2059C247.34 96.3574 247.283 96.471 247.321 96.5467C247.359 96.5846 247.416 96.6793 247.491 96.8308C248.173 97.929 248.836 99.0462 249.48 100.182C250.123 101.318 250.767 102.417 251.411 103.477C252.206 104.689 253.039 105.749 253.91 106.658C254.781 107.567 255.709 108.192 256.694 108.533C257.148 108.646 257.508 108.798 257.773 108.987C258.038 109.176 258.171 109.441 258.171 109.782C258.171 110.085 257.849 110.369 257.205 110.634C256.599 110.899 255.804 111.032 254.819 111.032Z" fill="#8EACCD"/>
<path d="M268.504 110.407C268.277 110.407 268.012 110.369 267.709 110.293C267.443 110.218 267.311 110.066 267.311 109.839C267.311 109.536 267.425 109.309 267.652 109.157C267.917 109.006 268.201 108.873 268.504 108.76C269.185 108.533 269.772 108.286 270.265 108.021C270.757 107.756 271.003 107.245 271.003 106.488L270.946 90.9799C270.946 90.6012 270.909 90.2225 270.833 89.8438C270.757 89.4272 270.549 89.2189 270.208 89.2189H267.311C266.781 89.2189 266.326 89.3894 265.948 89.7302C265.569 90.0331 265.228 90.4686 264.925 91.0367C264.66 91.5669 264.414 92.2107 264.187 92.968C264.111 93.271 263.959 93.6118 263.732 93.9905C263.505 94.3314 263.221 94.5018 262.88 94.5018C262.691 94.5018 262.52 94.4071 262.369 94.2178C262.255 93.9905 262.198 93.7254 262.198 93.4225C262.198 93.2331 262.236 92.987 262.312 92.684C262.388 92.3811 262.445 92.097 262.483 91.832C262.596 91.2639 262.71 90.5444 262.823 89.6734C262.975 88.7645 263.051 87.9882 263.051 87.3444C263.051 87.0036 263.126 86.7385 263.278 86.5491C263.429 86.3598 263.638 86.2651 263.903 86.2651C264.168 86.2651 264.414 86.3219 264.641 86.4355C264.906 86.5112 265.228 86.6059 265.607 86.7195C265.985 86.871 266.402 86.9846 266.857 87.0604C267.349 87.1361 267.917 87.174 268.561 87.174H280.603C281.133 87.174 281.664 87.155 282.194 87.1172C282.762 87.0414 283.122 86.9467 283.273 86.8331C283.5 86.6438 283.727 86.5112 283.955 86.4355C284.22 86.3219 284.39 86.2651 284.466 86.2651C284.617 86.2651 284.769 86.3598 284.92 86.5491C285.072 86.7006 285.148 86.9278 285.148 87.2308C285.148 87.6095 285.11 88.0639 285.034 88.5941C284.958 89.0864 284.92 89.5976 284.92 90.1278C284.92 90.6201 284.92 91.1503 284.92 91.7183C284.958 92.2485 284.996 92.7219 285.034 93.1385C285.072 93.4414 285.015 93.7444 284.864 94.0473C284.712 94.3503 284.485 94.5018 284.182 94.5018C283.917 94.5018 283.69 94.3124 283.5 93.9337C283.311 93.555 283.197 93.2331 283.159 92.968C283.122 92.3243 282.97 91.7183 282.705 91.1503C282.478 90.5823 282.137 90.1278 281.683 89.787C281.266 89.4083 280.736 89.2189 280.092 89.2189H277.081C276.665 89.2189 276.4 89.4272 276.286 89.8438C276.21 90.2225 276.172 90.6012 276.172 90.9799V106.544C276.172 107.226 276.419 107.718 276.911 108.021C277.441 108.286 278.066 108.533 278.785 108.76C279.088 108.873 279.354 109.006 279.581 109.157C279.846 109.271 279.978 109.479 279.978 109.782C279.978 110.047 279.827 110.218 279.524 110.293C279.259 110.369 279.013 110.407 278.785 110.407C278.066 110.407 277.441 110.369 276.911 110.293C276.381 110.256 275.87 110.218 275.377 110.18C274.885 110.142 274.298 110.123 273.616 110.123C272.972 110.123 272.404 110.142 271.912 110.18C271.42 110.218 270.909 110.256 270.378 110.293C269.886 110.369 269.261 110.407 268.504 110.407Z" fill="#8EACCD"/>
<path d="M291.046 110.407C290.856 110.407 290.61 110.369 290.307 110.293C290.042 110.218 289.909 110.066 289.909 109.839C289.909 109.574 290.023 109.385 290.25 109.271C290.477 109.12 290.743 108.987 291.046 108.873C291.689 108.646 292.238 108.419 292.693 108.192C293.185 107.965 293.431 107.472 293.431 106.715V90.7527C293.431 89.9953 293.261 89.484 292.92 89.2189C292.579 88.916 292.068 88.6698 291.386 88.4805C291.083 88.3669 290.799 88.2343 290.534 88.0828C290.307 87.9314 290.193 87.742 290.193 87.5148C290.193 87.2876 290.326 87.1361 290.591 87.0604C290.856 86.9846 291.102 86.9468 291.33 86.9468C292.125 86.9468 292.731 86.9846 293.147 87.0604C293.602 87.0982 294.018 87.155 294.397 87.2308C294.814 87.2686 295.363 87.2876 296.044 87.2876C296.764 87.2876 297.313 87.2686 297.692 87.2308C298.108 87.155 298.544 87.0982 298.998 87.0604C299.453 86.9846 300.077 86.9468 300.873 86.9468C301.062 86.9468 301.289 86.9846 301.554 87.0604C301.857 87.1361 302.009 87.2876 302.009 87.5148C302.009 87.742 301.895 87.9314 301.668 88.0828C301.441 88.2343 301.176 88.3669 300.873 88.4805C300.191 88.6698 299.642 88.916 299.225 89.2189C298.847 89.484 298.657 89.9953 298.657 90.7527V96.4899C298.657 96.6793 298.714 96.8118 298.828 96.8876C298.979 96.9254 299.112 96.9254 299.225 96.8876C299.604 96.6982 300.191 96.5657 300.986 96.4899C301.82 96.4142 302.539 96.3763 303.145 96.3763C303.864 96.3763 304.679 96.4899 305.588 96.7172C306.496 96.9444 307.367 97.3231 308.201 97.8533C309.072 98.3456 309.772 99.0272 310.302 99.8982C310.87 100.731 311.154 101.792 311.154 103.079C311.154 104.859 310.681 106.298 309.734 107.396C308.825 108.457 307.595 109.233 306.042 109.725C304.527 110.18 302.88 110.407 301.1 110.407C300.38 110.407 299.756 110.369 299.225 110.293C298.733 110.256 298.241 110.237 297.749 110.237C297.294 110.199 296.707 110.18 295.988 110.18C295.382 110.18 294.833 110.199 294.34 110.237C293.848 110.237 293.337 110.256 292.806 110.293C292.276 110.369 291.689 110.407 291.046 110.407ZM301.27 108.589C302.406 108.589 303.41 108.173 304.281 107.34C305.19 106.469 305.644 105.2 305.644 103.534C305.644 101.754 305.247 100.447 304.451 99.6142C303.656 98.7432 302.463 98.3077 300.873 98.3077C300.04 98.3077 299.453 98.4213 299.112 98.6485C298.885 98.8 298.752 99.0272 298.714 99.3302C298.676 99.5953 298.657 99.8036 298.657 99.955V105.976C298.657 106.809 298.922 107.453 299.453 107.908C300.021 108.362 300.627 108.589 301.27 108.589ZM312.518 110.407C312.291 110.407 312.044 110.369 311.779 110.293C311.552 110.218 311.438 110.066 311.438 109.839C311.438 109.536 311.552 109.309 311.779 109.157C312.044 109.006 312.328 108.873 312.631 108.76C313.351 108.533 313.957 108.305 314.449 108.078C314.941 107.813 315.188 107.321 315.188 106.601V90.9799C315.188 90.2225 314.998 89.6734 314.62 89.3325C314.279 88.9538 313.692 88.6698 312.859 88.4805C312.556 88.4047 312.272 88.2911 312.007 88.1396C311.779 87.9503 311.666 87.7231 311.666 87.458C311.666 87.2308 311.798 87.0793 312.063 87.0035C312.328 86.8899 312.556 86.8331 312.745 86.8331C313.502 86.8331 314.127 86.8521 314.62 86.8899C315.112 86.9278 315.585 86.9846 316.04 87.0604C316.494 87.0982 317.043 87.1172 317.687 87.1172C318.369 87.1172 318.956 87.0982 319.448 87.0604C319.94 87.0225 320.451 86.9846 320.982 86.9468C321.55 86.9089 322.212 86.8899 322.97 86.8899C323.197 86.8899 323.424 86.9278 323.651 87.0035C323.879 87.0793 323.992 87.2308 323.992 87.458C323.992 87.7231 323.86 87.9503 323.595 88.1396C323.367 88.2911 323.102 88.4047 322.799 88.4805C321.928 88.7077 321.304 89.0296 320.925 89.4462C320.546 89.8249 320.357 90.355 320.357 91.0367V106.544C320.357 107.264 320.603 107.756 321.095 108.021C321.588 108.286 322.193 108.533 322.913 108.76C323.216 108.873 323.481 109.006 323.708 109.157C323.973 109.271 324.106 109.479 324.106 109.782C324.106 110.047 323.973 110.218 323.708 110.293C323.481 110.369 323.273 110.407 323.083 110.407C322.326 110.407 321.663 110.369 321.095 110.293C320.565 110.256 320.035 110.218 319.505 110.18C319.012 110.142 318.425 110.123 317.744 110.123C317.1 110.123 316.513 110.142 315.983 110.18C315.491 110.218 314.979 110.256 314.449 110.293C313.919 110.369 313.275 110.407 312.518 110.407Z" fill="#8EACCD"/>
<path d="M44.0237 138.994C34.7929 138.994 27.1006 137.515 20.9467 134.556C14.9112 131.598 10.2367 127.692 6.92308 122.84C3.60947 117.87 1.47929 112.485 0.532544 106.686C0.177515 103.965 0 101.243 0 98.5207C0 91.5385 1.00592 84.5562 3.01775 77.574C5.38462 69.4083 8.81657 61.4793 13.3136 53.787C17.8107 46.0947 23.1361 38.9349 29.2899 32.3077C35.4438 25.6805 42.1894 19.8817 49.5266 14.9112C56.9823 9.94083 64.7929 6.15384 72.9586 3.55029C80.7692 1.18343 88.0473 0 94.7929 0C96.9231 0 98.9349 0.118342 100.828 0.355025C102.84 0.591715 104.734 0.946747 106.509 1.42012C111.006 2.72189 114.615 4.7929 117.337 7.63313C120.059 10.355 121.42 13.787 121.42 17.929C121.42 19.1124 121.243 20.4142 120.888 21.8343C124.32 25.2663 126.805 29.4083 128.343 34.2604C129.882 39.1124 130.651 44.3195 130.651 49.8817C130.651 53.5503 130.296 57.2781 129.586 61.0651C128.994 64.8521 128.107 68.6391 126.923 72.426C124.201 81.0651 120.118 89.3491 114.675 97.2781C109.349 105.207 103.018 112.308 95.6805 118.58C88.3432 124.852 80.2959 129.822 71.5385 133.491C62.7811 137.16 53.6095 138.994 44.0237 138.994ZM44.2012 136.509L44.7337 136.331C53.7278 136.213 62.1894 134.083 70.1183 129.941C78.0473 125.799 85.2071 120.355 91.5976 113.609C98.1065 106.864 103.669 99.4675 108.284 91.4201C112.899 83.2544 116.391 75.2071 118.757 67.2781C120.769 60.5325 121.775 53.787 121.775 47.0414C121.775 43.6095 121.42 40.2367 120.71 36.9231C120.118 33.6095 119.112 30.5917 117.692 27.8698C116.509 29.2899 115.266 30.2367 113.965 30.7101C113.136 31.0651 112.544 31.2426 112.189 31.2426C111.716 31.2426 111.479 31.0651 111.479 30.7101C111.598 30.355 111.893 30 112.367 29.645C113.787 28.4615 114.852 26.7456 115.562 24.497C113.314 21.4201 110.414 18.9941 106.864 17.2189C103.314 15.4438 98.9349 14.5562 93.7278 14.5562C88.6391 14.5562 83.1361 15.7396 77.2189 18.1065C71.4201 20.4734 65.7396 23.9053 60.1775 28.4024C56.7456 31.2426 53.6686 34.6746 50.9467 38.6982C48.3432 42.7219 46.3314 46.8047 44.9112 50.9467C43.4911 54.9704 42.7811 58.5207 42.7811 61.5976C42.7811 65.1479 43.7278 67.4556 45.6213 68.5207C46.5681 68.9941 47.0414 69.5266 47.0414 70.1183C47.0414 70.4734 46.8047 70.7101 46.3314 70.8284C45.858 70.9467 45.3254 70.8876 44.7337 70.6509C42.6036 69.8225 41.0059 68.4024 39.9408 66.3905C38.9941 64.2604 38.5207 61.7751 38.5207 58.9349C38.5207 54.0828 39.8817 48.6391 42.6036 42.6035C45.3254 36.568 48.9941 31.5385 53.6095 27.5148C59.645 22.3077 66.213 18.4024 73.3136 15.7988C80.4142 13.0769 87.2781 11.716 93.9053 11.716C98.7574 11.716 103.018 12.3077 106.686 13.4911C110.355 14.6746 113.609 16.213 116.45 18.1065C116.331 14.7929 115.089 12.071 112.722 9.94083C110.473 7.81065 107.633 6.21302 104.201 5.14793C100.769 4.20118 97.1006 3.7278 93.1953 3.7278C90.5917 3.7278 87.7515 3.96449 84.6746 4.43787C81.5976 4.91124 78.3432 5.68047 74.9112 6.74556C70.2959 8.16568 65.5621 10.5917 60.7101 14.0237C55.858 17.3373 51.1243 21.3609 46.5089 26.0947C41.8935 30.7101 37.574 35.6805 33.5503 41.0059C29.5266 46.3314 26.0947 51.716 23.2544 57.1598C20.1775 62.8402 17.5148 69.5858 15.2663 77.3965C13.1361 85.0888 12.071 92.7811 12.071 100.473C12.071 102.249 12.1302 104.083 12.2485 105.976C12.3669 107.751 12.6036 109.467 12.9586 111.124C13.787 115.621 15.3846 119.822 17.7515 123.728C20.2367 127.633 23.6095 130.71 27.8698 132.959C32.2485 135.325 37.6923 136.509 44.2012 136.509Z" fill="#8EACCD"/>
<path d="M544.942 116.414C542.897 116.414 541.079 115.903 539.489 114.88C537.936 113.82 536.705 112.362 535.796 110.507C534.888 108.613 534.433 106.436 534.433 103.974C534.433 101.74 534.944 99.6947 535.967 97.8391C537.027 95.9834 538.428 94.5065 540.17 93.4083C541.912 92.2722 543.825 91.7041 545.908 91.7041C547.46 91.7041 548.843 92.026 550.054 92.6698C551.304 93.2757 552.27 94.1467 552.951 95.2828C553.671 96.3811 554.031 97.6497 554.031 99.0888C554.031 100.338 553.444 100.963 552.27 100.963H540.511C539.981 100.963 539.602 101.115 539.375 101.418C539.148 101.721 539.034 102.27 539.034 103.065C539.034 104.731 539.413 106.265 540.17 107.666C540.928 109.03 541.931 110.128 543.181 110.961C544.431 111.794 545.813 112.211 547.328 112.211C548.464 112.211 549.486 112.002 550.395 111.586C551.342 111.131 552.213 110.507 553.008 109.711C553.122 109.56 553.217 109.446 553.292 109.37C553.406 109.295 553.52 109.257 553.633 109.257C553.974 109.257 554.144 109.465 554.144 109.882C554.144 110.488 553.879 111.207 553.349 112.04C552.819 112.836 552.137 113.574 551.304 114.256C550.509 114.899 549.562 115.411 548.464 115.789C547.404 116.206 546.23 116.414 544.942 116.414ZM540.568 99.032H545.112C546.097 99.032 546.873 99.013 547.441 98.9752C548.009 98.9373 548.54 98.8615 549.032 98.7479C549.221 98.6722 549.354 98.5207 549.43 98.2935C549.505 98.0284 549.543 97.7065 549.543 97.3278C549.543 96.2675 549.108 95.3775 548.237 94.658C547.366 93.9006 546.324 93.5219 545.112 93.5219C544.279 93.5219 543.446 93.7681 542.613 94.2604C541.818 94.7527 541.155 95.3775 540.625 96.1349C540.095 96.8544 539.848 97.5929 539.886 98.3503C539.886 98.8047 540.114 99.032 540.568 99.032Z" fill="#8EACCD"/>
<path d="M560.882 123.742C560.654 123.742 560.408 123.572 560.143 123.231C559.878 122.89 559.708 122.436 559.632 121.867C559.594 120.277 559.442 118.97 559.177 117.948C558.95 116.963 558.723 116.168 558.496 115.562C558.306 114.956 558.212 114.464 558.212 114.085C558.212 113.782 558.287 113.574 558.439 113.46C558.59 113.309 558.78 113.233 559.007 113.233C559.196 113.233 559.405 113.252 559.632 113.29C559.897 113.328 560.124 113.347 560.313 113.347C561.336 113.347 562.188 112.911 562.87 112.04C563.551 111.131 564.1 109.92 564.517 108.405C564.934 106.852 565.218 105.091 565.369 103.122C565.558 101.153 565.653 99.1077 565.653 96.987C565.653 95.8888 565.407 95.1692 564.915 94.8284C564.422 94.4497 563.741 94.1657 562.87 93.9763C562.605 93.9006 562.339 93.8059 562.074 93.6923C561.847 93.5408 561.734 93.3136 561.734 93.0107C561.734 92.7834 561.904 92.613 562.245 92.4994C562.586 92.3479 562.832 92.2722 562.983 92.2722C563.816 92.2722 564.517 92.3101 565.085 92.3858C565.653 92.4237 566.297 92.4426 567.016 92.4426H578.264C579.021 92.4426 579.703 92.4237 580.309 92.3858C580.915 92.3101 581.634 92.2722 582.467 92.2722C582.619 92.2722 582.846 92.3479 583.149 92.4994C583.452 92.613 583.603 92.7834 583.603 93.0107C583.603 93.3136 583.49 93.5408 583.263 93.6923C583.035 93.8059 582.827 93.9006 582.638 93.9763C581.805 94.1657 581.18 94.4686 580.763 94.8852C580.347 95.3018 580.138 96.2107 580.138 97.6118V110.904C580.138 111.699 580.214 112.305 580.366 112.722C580.555 113.138 581.028 113.347 581.786 113.347C581.975 113.347 582.221 113.328 582.524 113.29C582.865 113.252 583.168 113.233 583.433 113.233C583.736 113.233 583.982 113.271 584.171 113.347C584.361 113.422 584.456 113.555 584.456 113.744C584.456 113.858 584.436 113.953 584.399 114.028C584.247 114.445 584.058 114.918 583.831 115.449C583.641 115.941 583.452 116.679 583.263 117.664C583.073 118.649 582.941 120.05 582.865 121.867C582.827 122.436 582.676 122.89 582.411 123.231C582.145 123.572 581.88 123.742 581.615 123.742C581.161 123.742 580.839 123.534 580.65 123.117C580.46 122.701 580.366 122.246 580.366 121.754C580.366 121.337 580.366 120.921 580.366 120.504C580.403 120.088 580.403 119.652 580.366 119.198C580.328 117.759 580.1 116.793 579.684 116.301C579.267 115.808 578.548 115.562 577.525 115.562H565.596C564.536 115.562 563.703 115.865 563.097 116.471C562.529 117.115 562.226 118.289 562.188 119.993C562.15 120.258 562.131 120.523 562.131 120.788C562.131 121.091 562.131 121.413 562.131 121.754C562.131 122.246 562.037 122.701 561.847 123.117C561.658 123.534 561.336 123.742 560.882 123.742ZM566.051 113.29H573.379C574.06 113.29 574.477 113.214 574.628 113.063C574.818 112.873 574.912 112.457 574.912 111.813V96.8734C574.912 96.5704 574.874 96.2485 574.799 95.9077C574.761 95.529 574.647 95.2071 574.458 94.942C574.306 94.6769 574.06 94.5444 573.719 94.5444H569.345C569.043 94.5444 568.796 94.6959 568.607 94.9988C568.418 95.3018 568.304 95.6426 568.266 96.0213C568.228 96.3621 568.209 96.6462 568.209 96.8734C568.209 98.6911 568.115 100.509 567.925 102.327C567.774 104.107 567.471 105.849 567.016 107.553C566.6 109.219 566.032 110.791 565.312 112.267C565.274 112.343 565.218 112.438 565.142 112.551C565.104 112.627 565.085 112.722 565.085 112.836C565.085 112.987 565.161 113.101 565.312 113.176C565.464 113.252 565.71 113.29 566.051 113.29Z" fill="#8EACCD"/>
<path d="M590.672 115.733C590.445 115.733 590.199 115.695 589.934 115.619C589.669 115.543 589.536 115.392 589.536 115.164C589.536 114.899 589.65 114.71 589.877 114.596C590.104 114.445 590.37 114.312 590.672 114.199C591.316 113.972 591.865 113.782 592.32 113.631C592.812 113.441 593.058 112.949 593.058 112.154V96.3621C593.058 95.4911 592.869 94.8852 592.49 94.5444C592.112 94.1657 591.562 93.8817 590.843 93.6923C590.54 93.6166 590.275 93.503 590.048 93.3515C589.82 93.2 589.707 93.0107 589.707 92.7834C589.707 92.5183 589.858 92.3669 590.161 92.329C590.464 92.2533 590.691 92.2154 590.843 92.2154C591.676 92.2154 592.301 92.2343 592.717 92.2722C593.172 92.2722 593.588 92.3101 593.967 92.3858C594.384 92.4237 594.914 92.4426 595.558 92.4426C596.126 92.4426 596.637 92.4237 597.091 92.3858C597.546 92.3101 598.057 92.2533 598.625 92.2154C599.231 92.1775 599.97 92.1586 600.841 92.1586C603.946 92.1586 606.351 92.613 608.055 93.5219C609.797 94.4308 610.668 95.7751 610.668 97.555C610.668 99.032 610.232 100.244 609.361 101.191C608.49 102.099 607.411 102.686 606.123 102.951C605.972 102.989 605.877 103.046 605.839 103.122C605.801 103.16 605.896 103.217 606.123 103.292C606.956 103.406 607.809 103.671 608.68 104.088C609.588 104.504 610.346 105.091 610.952 105.849C611.558 106.606 611.861 107.572 611.861 108.746C611.861 110.412 611.406 111.775 610.497 112.836C609.589 113.858 608.301 114.596 606.635 115.051C605.006 115.505 603.056 115.733 600.784 115.733C600.14 115.733 599.345 115.676 598.398 115.562C597.489 115.486 596.542 115.449 595.558 115.449C594.838 115.449 594.024 115.467 593.115 115.505C592.244 115.543 591.543 115.581 591.013 115.619C590.483 115.695 590.37 115.733 590.672 115.733ZM601.181 113.688C602.81 113.688 604.078 113.271 604.987 112.438C605.896 111.605 606.351 110.469 606.351 109.03C606.351 107.25 605.783 106.019 604.646 105.337C603.548 104.656 602.09 104.315 600.272 104.315C599.742 104.315 599.269 104.409 598.852 104.599C598.474 104.75 598.284 105.091 598.284 105.621V110.791C598.284 111.737 598.53 112.457 599.023 112.949C599.515 113.441 600.235 113.688 601.181 113.688ZM599.875 102.497C601.92 102.497 603.397 102.08 604.306 101.247C605.214 100.376 605.669 99.3728 605.669 98.2367C605.669 97.0249 605.29 96.0592 604.533 95.3397C603.813 94.6201 602.526 94.2604 600.67 94.2604C599.723 94.2604 599.08 94.4118 598.739 94.7148C598.436 94.9799 598.284 95.3965 598.284 95.9645V101.134C598.284 101.74 598.455 102.118 598.796 102.27C599.174 102.421 599.534 102.497 599.875 102.497Z" fill="#8EACCD"/>
<path d="M618.809 115.733C618.581 115.733 618.335 115.695 618.07 115.619C617.805 115.543 617.672 115.373 617.672 115.108C617.672 114.805 617.805 114.578 618.07 114.426C618.373 114.275 618.676 114.142 618.979 114.028C619.547 113.839 620.058 113.631 620.513 113.404C621.005 113.138 621.251 112.627 621.251 111.87V96.1349C621.251 95.3775 621.024 94.8663 620.57 94.6012C620.153 94.2982 619.661 94.071 619.093 93.9195C618.79 93.8059 618.487 93.6734 618.184 93.5219C617.919 93.3704 617.786 93.1432 617.786 92.8402C617.786 92.613 617.919 92.4615 618.184 92.3858C618.487 92.3101 618.733 92.2722 618.922 92.2722C619.68 92.2722 620.304 92.2911 620.797 92.329C621.327 92.3669 621.819 92.4237 622.274 92.4994C622.728 92.5373 623.277 92.5562 623.921 92.5562C624.603 92.5562 625.152 92.5373 625.568 92.4994C625.985 92.4237 626.42 92.3669 626.875 92.329C627.367 92.2911 627.992 92.2722 628.749 92.2722C628.939 92.2722 629.166 92.3101 629.431 92.3858C629.696 92.4615 629.829 92.613 629.829 92.8402C629.829 93.1053 629.696 93.3325 629.431 93.5219C629.166 93.6734 628.882 93.8059 628.579 93.9195C628.011 94.1089 627.519 94.3361 627.102 94.6012C626.685 94.8663 626.477 95.3775 626.477 96.1349V106.871C626.477 107.098 626.553 107.25 626.704 107.325C626.856 107.401 626.988 107.382 627.102 107.269L636.929 96.7598C637.043 96.6083 637.119 96.4947 637.156 96.4189C637.232 96.3432 637.27 96.2107 637.27 96.0213C637.27 95.2639 637.081 94.7716 636.702 94.5444C636.361 94.2793 635.907 94.071 635.339 93.9195C635.036 93.8059 634.752 93.6734 634.487 93.5219C634.222 93.3704 634.089 93.1432 634.089 92.8402C634.089 92.613 634.203 92.4615 634.43 92.3858C634.695 92.3101 634.941 92.2722 635.168 92.2722C635.926 92.2722 636.532 92.2911 636.986 92.329C637.478 92.3669 637.933 92.4237 638.349 92.4994C638.804 92.5373 639.353 92.5562 639.997 92.5562C640.678 92.5562 641.228 92.5373 641.644 92.4994C642.099 92.4237 642.572 92.3669 643.064 92.329C643.557 92.2911 644.181 92.2722 644.939 92.2722C645.166 92.2722 645.393 92.3101 645.62 92.3858C645.886 92.4615 646.018 92.613 646.018 92.8402C646.018 93.1432 645.886 93.3704 645.62 93.5219C645.355 93.6734 645.071 93.8059 644.768 93.9195C644.2 94.071 643.67 94.2982 643.178 94.6012C642.723 94.8663 642.496 95.3775 642.496 96.1349V111.87C642.496 112.627 642.742 113.138 643.235 113.404C643.765 113.631 644.314 113.839 644.882 114.028C645.185 114.142 645.469 114.275 645.734 114.426C645.999 114.578 646.132 114.805 646.132 115.108C646.132 115.373 645.999 115.543 645.734 115.619C645.469 115.695 645.242 115.733 645.052 115.733C644.295 115.733 643.651 115.695 643.121 115.619C642.629 115.581 642.136 115.543 641.644 115.505C641.19 115.467 640.622 115.449 639.94 115.449C639.296 115.449 638.728 115.467 638.236 115.505C637.781 115.543 637.289 115.581 636.759 115.619C636.267 115.695 635.642 115.733 634.884 115.733C634.695 115.733 634.468 115.695 634.203 115.619C633.938 115.543 633.805 115.373 633.805 115.108C633.805 114.805 633.938 114.578 634.203 114.426C634.468 114.275 634.752 114.142 635.055 114.028C635.623 113.839 636.134 113.631 636.589 113.404C637.043 113.138 637.27 112.627 637.27 111.87V100.168C637.27 99.9787 637.232 99.8651 637.156 99.8272C637.119 99.7515 637.062 99.7704 636.986 99.884L626.818 110.904C626.591 111.131 626.477 111.453 626.477 111.87C626.477 112.665 626.723 113.176 627.216 113.404C627.708 113.631 628.238 113.839 628.806 114.028C629.109 114.142 629.393 114.275 629.658 114.426C629.923 114.578 630.056 114.805 630.056 115.108C630.056 115.335 629.923 115.486 629.658 115.562C629.393 115.676 629.166 115.733 628.977 115.733C628.219 115.733 627.575 115.695 627.045 115.619C626.553 115.581 626.08 115.543 625.625 115.505C625.171 115.467 624.603 115.449 623.921 115.449C623.277 115.449 622.709 115.467 622.217 115.505C621.725 115.543 621.213 115.581 620.683 115.619C620.191 115.695 619.566 115.733 618.809 115.733Z" fill="#8EACCD"/>
<path d="M654.927 116.13C653.601 116.13 652.598 115.979 651.916 115.676C651.272 115.411 650.95 115.127 650.95 114.824C650.95 114.483 651.045 114.256 651.234 114.142C651.424 114.028 651.708 113.972 652.086 113.972C652.654 113.972 653.26 113.82 653.904 113.517C654.548 113.214 655.211 112.703 655.892 111.983C656.574 111.264 657.256 110.26 657.937 108.973C658.733 107.496 659.452 106.189 660.096 105.053C660.778 103.879 661.516 102.951 662.311 102.27C662.425 102.194 662.501 102.099 662.538 101.986C662.614 101.872 662.576 101.759 662.425 101.645C661.857 101.228 661.365 100.736 660.948 100.168C660.569 99.5621 660.228 98.9941 659.925 98.4639C659.622 97.8959 659.357 97.4414 659.13 97.1006C658.789 96.5325 658.467 96.1539 658.164 95.9645C657.899 95.7752 657.521 95.6805 657.028 95.6805C656.839 95.6805 656.631 95.7373 656.404 95.8509C656.214 95.9645 656.025 96.0781 655.836 96.1917C655.57 96.3432 655.324 96.4947 655.097 96.6462C654.87 96.7976 654.586 96.8734 654.245 96.8734C653.601 96.8734 653.128 96.6272 652.825 96.1349C652.522 95.6426 652.37 95.1124 652.37 94.5444C652.37 93.787 652.673 93.1053 653.279 92.4994C653.885 91.8935 654.662 91.5905 655.608 91.5905C656.555 91.5905 657.426 91.8556 658.221 92.3858C659.017 92.8781 659.774 93.8059 660.493 95.1692C661.327 96.6462 662.008 97.858 662.538 98.8047C663.106 99.7515 663.637 100.471 664.129 100.963C664.621 101.456 665.17 101.815 665.776 102.043C666.382 102.232 667.14 102.327 668.049 102.327C668.238 102.327 668.389 102.289 668.503 102.213C668.654 102.099 668.73 101.967 668.73 101.815V96.4757C668.73 95.6805 668.522 95.0935 668.105 94.7148C667.689 94.2982 667.121 93.9953 666.401 93.8059C666.098 93.7302 665.814 93.6166 665.549 93.4651C665.322 93.2757 665.208 93.0485 665.208 92.7834C665.208 92.4805 665.36 92.3101 665.663 92.2722C666.004 92.1965 666.25 92.1586 666.401 92.1586C667.159 92.1586 667.764 92.1775 668.219 92.2154C668.673 92.2533 669.128 92.3101 669.582 92.3858C670.037 92.4237 670.586 92.4426 671.23 92.4426C671.911 92.4426 672.46 92.4237 672.877 92.3858C673.294 92.3479 673.729 92.3101 674.183 92.2722C674.676 92.2343 675.282 92.2154 676.001 92.2154C676.191 92.2154 676.437 92.2343 676.74 92.2722C677.043 92.3101 677.194 92.4805 677.194 92.7834C677.194 93.0485 677.062 93.2568 676.796 93.4083C676.531 93.5598 676.247 93.6923 675.944 93.8059C675.263 94.0331 674.733 94.355 674.354 94.7716C673.975 95.1503 673.786 95.7184 673.786 96.4757V101.815C673.786 101.967 673.843 102.099 673.956 102.213C674.108 102.289 674.278 102.327 674.467 102.327C675.376 102.327 676.134 102.232 676.74 102.043C677.346 101.815 677.895 101.456 678.387 100.963C678.879 100.471 679.409 99.7515 679.978 98.8047C680.546 97.858 681.227 96.6462 682.022 95.1692C682.742 93.8059 683.499 92.8781 684.295 92.3858C685.09 91.8556 685.961 91.5905 686.908 91.5905C687.854 91.5905 688.631 91.8935 689.237 92.4994C689.843 93.1053 690.146 93.787 690.146 94.5444C690.146 95.1124 689.994 95.6426 689.691 96.1349C689.388 96.6272 688.896 96.8734 688.214 96.8734C687.949 96.8734 687.684 96.7976 687.419 96.6462C687.192 96.4947 686.946 96.3432 686.68 96.1917C686.491 96.0781 686.302 95.9645 686.112 95.8509C685.923 95.7373 685.715 95.6805 685.488 95.6805C684.995 95.6805 684.598 95.7752 684.295 95.9645C684.03 96.1539 683.727 96.5325 683.386 97.1006C683.159 97.4414 682.893 97.8959 682.591 98.4639C682.325 98.9941 681.985 99.5432 681.568 100.111C681.151 100.679 680.659 101.172 680.091 101.588C679.94 101.74 679.902 101.872 679.978 101.986C680.053 102.099 680.148 102.194 680.262 102.27C681.208 103.065 682.022 104.088 682.704 105.337C683.386 106.549 684.124 107.912 684.92 109.427C685.601 110.639 686.245 111.586 686.851 112.267C687.495 112.911 688.119 113.366 688.725 113.631C689.331 113.858 689.899 113.972 690.43 113.972C690.808 113.972 691.092 114.028 691.282 114.142C691.471 114.256 691.566 114.483 691.566 114.824C691.566 115.127 691.225 115.411 690.543 115.676C689.899 115.979 688.915 116.13 687.589 116.13C686.415 116.13 685.279 115.827 684.181 115.221C683.083 114.615 682.079 113.479 681.17 111.813C680.375 110.26 679.675 108.973 679.069 107.95C678.501 106.928 677.97 106.114 677.478 105.508C676.986 104.902 676.493 104.466 676.001 104.201C675.509 103.936 674.96 103.804 674.354 103.804C673.975 103.804 673.786 103.974 673.786 104.315V111.927C673.786 112.646 674.013 113.138 674.467 113.404C674.96 113.631 675.566 113.858 676.285 114.085C676.588 114.199 676.872 114.331 677.137 114.483C677.402 114.596 677.535 114.805 677.535 115.108C677.535 115.373 677.383 115.543 677.08 115.619C676.777 115.695 676.531 115.733 676.342 115.733C675.623 115.733 674.998 115.695 674.467 115.619C673.975 115.581 673.483 115.543 672.991 115.505C672.536 115.467 671.968 115.449 671.286 115.449C670.643 115.449 670.075 115.467 669.582 115.505C669.09 115.543 668.579 115.581 668.049 115.619C667.556 115.695 666.931 115.733 666.174 115.733C665.985 115.733 665.738 115.695 665.435 115.619C665.133 115.543 664.981 115.392 664.981 115.164C664.981 114.862 665.095 114.634 665.322 114.483C665.587 114.331 665.871 114.199 666.174 114.085C666.894 113.858 667.499 113.65 667.992 113.46C668.484 113.233 668.73 112.741 668.73 111.983V104.315C668.73 103.974 668.541 103.804 668.162 103.804C667.556 103.804 666.988 103.936 666.458 104.201C665.966 104.428 665.473 104.845 664.981 105.451C664.489 106.057 663.94 106.89 663.334 107.95C662.766 108.973 662.103 110.26 661.346 111.813C660.512 113.479 659.528 114.615 658.392 115.221C657.256 115.827 656.101 116.13 654.927 116.13Z" fill="#8EACCD"/>
<path d="M697.547 115.733C697.32 115.733 697.074 115.695 696.809 115.619C696.544 115.543 696.411 115.373 696.411 115.108C696.411 114.805 696.544 114.578 696.809 114.426C697.112 114.275 697.415 114.142 697.718 114.028C698.286 113.839 698.797 113.631 699.252 113.404C699.744 113.138 699.99 112.627 699.99 111.87V96.1349C699.99 95.3775 699.763 94.8663 699.308 94.6012C698.892 94.2982 698.4 94.071 697.832 93.9195C697.529 93.8059 697.226 93.6734 696.923 93.5219C696.658 93.3704 696.525 93.1432 696.525 92.8402C696.525 92.613 696.658 92.4615 696.923 92.3858C697.226 92.3101 697.472 92.2722 697.661 92.2722C698.418 92.2722 699.043 92.2911 699.536 92.329C700.066 92.3669 700.558 92.4237 701.013 92.4994C701.467 92.5373 702.016 92.5562 702.66 92.5562C703.342 92.5562 703.891 92.5373 704.307 92.4994C704.724 92.4237 705.159 92.3669 705.614 92.329C706.106 92.2911 706.731 92.2722 707.488 92.2722C707.678 92.2722 707.905 92.3101 708.17 92.3858C708.435 92.4615 708.568 92.613 708.568 92.8402C708.568 93.1053 708.435 93.3325 708.17 93.5219C707.905 93.6734 707.621 93.8059 707.318 93.9195C706.75 94.1089 706.258 94.3361 705.841 94.6012C705.424 94.8663 705.216 95.3775 705.216 96.1349V106.871C705.216 107.098 705.292 107.25 705.443 107.325C705.595 107.401 705.727 107.382 705.841 107.269L715.668 96.7598C715.782 96.6083 715.858 96.4947 715.895 96.4189C715.971 96.3432 716.009 96.2107 716.009 96.0213C716.009 95.2639 715.82 94.7716 715.441 94.5444C715.1 94.2793 714.646 94.071 714.078 93.9195C713.775 93.8059 713.491 93.6734 713.226 93.5219C712.96 93.3704 712.828 93.1432 712.828 92.8402C712.828 92.613 712.942 92.4615 713.169 92.3858C713.434 92.3101 713.68 92.2722 713.907 92.2722C714.665 92.2722 715.271 92.2911 715.725 92.329C716.217 92.3669 716.672 92.4237 717.088 92.4994C717.543 92.5373 718.092 92.5562 718.736 92.5562C719.417 92.5562 719.966 92.5373 720.383 92.4994C720.837 92.4237 721.311 92.3669 721.803 92.329C722.295 92.2911 722.92 92.2722 723.678 92.2722C723.905 92.2722 724.132 92.3101 724.359 92.3858C724.624 92.4615 724.757 92.613 724.757 92.8402C724.757 93.1432 724.624 93.3704 724.359 93.5219C724.094 93.6734 723.81 93.8059 723.507 93.9195C722.939 94.071 722.409 94.2982 721.917 94.6012C721.462 94.8663 721.235 95.3775 721.235 96.1349V111.87C721.235 112.627 721.481 113.138 721.974 113.404C722.504 113.631 723.053 113.839 723.621 114.028C723.924 114.142 724.208 114.275 724.473 114.426C724.738 114.578 724.871 114.805 724.871 115.108C724.871 115.373 724.738 115.543 724.473 115.619C724.208 115.695 723.981 115.733 723.791 115.733C723.034 115.733 722.39 115.695 721.86 115.619C721.368 115.581 720.875 115.543 720.383 115.505C719.929 115.467 719.36 115.449 718.679 115.449C718.035 115.449 717.467 115.467 716.975 115.505C716.52 115.543 716.028 115.581 715.498 115.619C715.005 115.695 714.381 115.733 713.623 115.733C713.434 115.733 713.207 115.695 712.942 115.619C712.677 115.543 712.544 115.373 712.544 115.108C712.544 114.805 712.677 114.578 712.942 114.426C713.207 114.275 713.491 114.142 713.794 114.028C714.362 113.839 714.873 113.631 715.327 113.404C715.782 113.138 716.009 112.627 716.009 111.87V100.168C716.009 99.9787 715.971 99.8651 715.895 99.8272C715.858 99.7515 715.801 99.7704 715.725 99.884L705.557 110.904C705.33 111.131 705.216 111.453 705.216 111.87C705.216 112.665 705.462 113.176 705.955 113.404C706.447 113.631 706.977 113.839 707.545 114.028C707.848 114.142 708.132 114.275 708.397 114.426C708.662 114.578 708.795 114.805 708.795 115.108C708.795 115.335 708.662 115.486 708.397 115.562C708.132 115.676 707.905 115.733 707.716 115.733C706.958 115.733 706.314 115.695 705.784 115.619C705.292 115.581 704.819 115.543 704.364 115.505C703.91 115.467 703.342 115.449 702.66 115.449C702.016 115.449 701.448 115.467 700.956 115.505C700.464 115.543 699.952 115.581 699.422 115.619C698.93 115.695 698.305 115.733 697.547 115.733Z" fill="#8EACCD"/>
<path d="M746.56 116.414C746.03 116.414 745.595 116.054 745.254 115.335L737.869 98.9184C737.718 98.6533 737.585 98.5396 737.471 98.5775C737.396 98.5775 737.32 98.729 737.244 99.032C737.206 99.297 737.15 99.8651 737.074 100.736C736.998 101.569 736.922 102.554 736.847 103.69C736.771 104.788 736.695 105.905 736.619 107.041C736.544 108.178 736.487 109.181 736.449 110.052C736.411 110.923 736.392 111.491 736.392 111.756C736.392 112.627 736.6 113.195 737.017 113.46C737.471 113.725 738.077 113.972 738.835 114.199C739.1 114.275 739.365 114.388 739.63 114.54C739.933 114.653 740.084 114.862 740.084 115.164C740.084 115.392 739.952 115.524 739.687 115.562C739.422 115.638 739.195 115.676 739.005 115.676C738.248 115.676 737.68 115.657 737.301 115.619C736.922 115.581 736.563 115.543 736.222 115.505C735.881 115.467 735.389 115.449 734.745 115.449C734.101 115.449 733.571 115.467 733.154 115.505C732.776 115.543 732.416 115.581 732.075 115.619C731.772 115.657 731.374 115.676 730.882 115.676C730.655 115.676 730.409 115.638 730.144 115.562C729.916 115.486 729.803 115.335 729.803 115.108C729.803 114.843 729.954 114.653 730.257 114.54C730.598 114.426 730.901 114.312 731.166 114.199C731.772 113.972 732.321 113.725 732.813 113.46C733.344 113.157 733.647 112.627 733.722 111.87L735.37 97.0438C735.445 96.0213 735.237 95.2639 734.745 94.7716C734.253 94.2414 733.571 93.8817 732.7 93.6923C732.359 93.6166 732.037 93.503 731.734 93.3515C731.469 93.1621 731.336 92.9349 731.336 92.6698C731.336 92.4426 731.469 92.3101 731.734 92.2722C732.037 92.1965 732.283 92.1586 732.473 92.1586C732.776 92.1586 733.192 92.1775 733.722 92.2154C734.253 92.2533 734.783 92.2911 735.313 92.329C735.881 92.3669 736.335 92.3858 736.676 92.3858C736.941 92.3858 737.339 92.3858 737.869 92.3858C738.399 92.3479 738.854 92.329 739.232 92.329C739.422 92.329 739.592 92.4237 739.744 92.613C739.895 92.7645 739.99 92.897 740.028 93.0107L747.583 108.462C747.734 108.802 747.867 108.992 747.98 109.03C748.132 109.03 748.283 108.878 748.435 108.575L754.286 95.5669C754.551 94.8852 754.816 94.2036 755.081 93.5219C755.346 92.8402 755.611 92.4994 755.876 92.4994H757.751C758.773 92.4994 759.796 92.4426 760.818 92.329C761.879 92.2154 762.579 92.1586 762.92 92.1586C763.185 92.1586 763.431 92.1965 763.658 92.2722C763.923 92.3479 764.056 92.4994 764.056 92.7266C764.056 92.9917 763.923 93.2 763.658 93.3515C763.393 93.4651 763.128 93.5598 762.863 93.6355C762.182 93.8249 761.557 94.1278 760.989 94.5444C760.421 94.9609 760.155 95.6047 760.193 96.4757C760.231 98.1041 760.269 99.5432 760.307 100.793C760.383 102.005 760.458 103.16 760.534 104.258C760.61 105.356 760.686 106.511 760.761 107.723C760.875 108.935 760.97 110.336 761.045 111.927C761.083 112.646 761.367 113.157 761.897 113.46C762.466 113.725 763.052 113.972 763.658 114.199C763.923 114.275 764.189 114.388 764.454 114.54C764.719 114.653 764.851 114.862 764.851 115.164C764.851 115.392 764.719 115.524 764.454 115.562C764.226 115.638 764.018 115.676 763.829 115.676C763.147 115.676 762.503 115.657 761.897 115.619C761.329 115.581 760.761 115.543 760.193 115.505C759.663 115.467 759.076 115.449 758.432 115.449C757.789 115.449 757.202 115.467 756.671 115.505C756.141 115.543 755.592 115.581 755.024 115.619C754.494 115.657 753.869 115.676 753.15 115.676C752.96 115.676 752.733 115.638 752.468 115.562C752.241 115.524 752.127 115.392 752.127 115.164C752.127 114.862 752.241 114.653 752.468 114.54C752.733 114.388 752.998 114.275 753.263 114.199C754.021 113.972 754.626 113.744 755.081 113.517C755.535 113.252 755.763 112.741 755.763 111.983C755.725 110.469 755.668 108.556 755.592 106.246C755.516 103.936 755.403 101.588 755.251 99.2024C755.251 98.8615 755.176 98.729 755.024 98.8047C754.91 98.8426 754.778 99.013 754.626 99.316L747.64 115.392C747.337 116.073 746.977 116.414 746.56 116.414Z" fill="#8EACCD"/>
<path d="M781.7 116.357C779.541 116.357 777.572 115.865 775.792 114.88C774.05 113.858 772.668 112.476 771.645 110.734C770.623 108.992 770.112 107.004 770.112 104.769C770.112 103.103 770.433 101.493 771.077 99.9408C771.721 98.3882 772.63 96.987 773.804 95.7373C774.978 94.4876 776.341 93.503 777.894 92.7834C779.446 92.026 781.113 91.6473 782.893 91.6473C785.127 91.6473 787.153 92.1965 788.971 93.2947C790.788 94.355 792.227 95.7562 793.288 97.4982C794.348 99.2402 794.878 101.153 794.878 103.236C794.878 105.508 794.386 107.647 793.401 109.654C792.417 111.662 790.94 113.29 788.971 114.54C787.039 115.751 784.616 116.357 781.7 116.357ZM782.893 114.369C783.991 114.369 784.975 114.161 785.846 113.744C786.717 113.29 787.399 112.608 787.891 111.699C788.346 110.828 788.649 109.768 788.8 108.518C788.99 107.231 789.084 105.924 789.084 104.599C789.084 102.705 788.781 100.925 788.175 99.2592C787.569 97.5929 786.736 96.2485 785.676 95.226C784.616 94.2036 783.366 93.6923 781.927 93.6923C781.056 93.6923 780.261 93.8438 779.541 94.1468C778.859 94.4118 778.235 94.8852 777.667 95.5669C776.947 96.4379 776.474 97.574 776.246 98.9752C776.019 100.338 775.906 101.834 775.906 103.463C775.906 105.28 776.209 107.022 776.815 108.689C777.42 110.355 778.235 111.718 779.257 112.779C780.317 113.839 781.529 114.369 782.893 114.369Z" fill="#8EACCD"/>
<path d="M811.525 116.414C809.593 116.414 807.851 115.922 806.299 114.937C804.746 113.915 803.515 112.533 802.607 110.791C801.698 109.049 801.243 107.098 801.243 104.94C801.243 102.478 801.792 100.244 802.891 98.2367C803.989 96.2296 805.466 94.6391 807.321 93.4651C809.177 92.2911 811.222 91.7041 813.456 91.7041C816.145 91.7041 818.455 92.4805 820.386 94.0331C820.803 94.4118 821.011 94.7716 821.011 95.1124C821.011 95.3775 820.86 95.7183 820.557 96.1349C820.292 96.5136 819.951 96.8544 819.534 97.1574C819.156 97.4225 818.796 97.555 818.455 97.555C818.228 97.555 817.982 97.4793 817.717 97.3278C817.489 97.1763 817.262 97.0059 817.035 96.8166C816.126 96.097 815.16 95.4722 814.138 94.942C813.153 94.374 812.301 94.0899 811.582 94.0899C809.878 94.0899 808.514 94.8663 807.492 96.4189C806.507 97.9337 806.015 100.073 806.015 102.838C806.015 104.656 806.356 106.265 807.037 107.666C807.757 109.067 808.722 110.166 809.934 110.961C811.184 111.756 812.604 112.154 814.195 112.154C815.293 112.154 816.24 111.983 817.035 111.643C817.868 111.264 818.739 110.639 819.648 109.768C819.762 109.692 819.875 109.617 819.989 109.541C820.14 109.465 820.273 109.427 820.386 109.427C820.803 109.427 821.011 109.711 821.011 110.279C821.011 110.469 820.954 110.715 820.841 111.018C820.727 111.283 820.557 111.586 820.33 111.927C819.799 112.684 819.099 113.422 818.228 114.142C817.357 114.824 816.353 115.373 815.217 115.789C814.081 116.206 812.85 116.414 811.525 116.414Z" fill="#8EACCD"/>
<path d="M832.384 115.733C832.156 115.733 831.891 115.695 831.588 115.619C831.323 115.543 831.191 115.392 831.191 115.164C831.191 114.862 831.304 114.634 831.532 114.483C831.797 114.331 832.081 114.199 832.384 114.085C833.065 113.858 833.652 113.612 834.145 113.347C834.637 113.082 834.883 112.57 834.883 111.813L834.826 96.3053C834.826 95.9266 834.788 95.5479 834.713 95.1692C834.637 94.7527 834.429 94.5444 834.088 94.5444H831.191C830.661 94.5444 830.206 94.7148 829.827 95.0556C829.449 95.3586 829.108 95.7941 828.805 96.3621C828.54 96.8923 828.294 97.5361 828.067 98.2935C827.991 98.5965 827.839 98.9373 827.612 99.316C827.385 99.6568 827.101 99.8272 826.76 99.8272C826.571 99.8272 826.4 99.7326 826.249 99.5432C826.135 99.316 826.078 99.0509 826.078 98.7479C826.078 98.5586 826.116 98.3124 826.192 98.0095C826.268 97.7065 826.324 97.4225 826.362 97.1574C826.476 96.5894 826.59 95.8698 826.703 94.9988C826.855 94.0899 826.93 93.3136 826.93 92.6698C826.93 92.329 827.006 92.0639 827.158 91.8746C827.309 91.6852 827.517 91.5905 827.783 91.5905C828.048 91.5905 828.294 91.6473 828.521 91.7609C828.786 91.8367 829.108 91.9314 829.487 92.045C829.865 92.1965 830.282 92.3101 830.736 92.3858C831.229 92.4615 831.797 92.4994 832.441 92.4994H844.483C845.013 92.4994 845.543 92.4805 846.074 92.4426C846.642 92.3669 847.001 92.2722 847.153 92.1586C847.38 91.9692 847.607 91.8367 847.835 91.7609C848.1 91.6473 848.27 91.5905 848.346 91.5905C848.497 91.5905 848.649 91.6852 848.8 91.8746C848.952 92.026 849.027 92.2533 849.027 92.5562C849.027 92.9349 848.99 93.3893 848.914 93.9195C848.838 94.4118 848.8 94.9231 848.8 95.4533C848.8 95.9456 848.8 96.4757 848.8 97.0438C848.838 97.574 848.876 98.0473 848.914 98.4639C848.952 98.7669 848.895 99.0698 848.743 99.3728C848.592 99.6757 848.365 99.8272 848.062 99.8272C847.797 99.8272 847.569 99.6379 847.38 99.2592C847.191 98.8805 847.077 98.5586 847.039 98.2935C847.001 97.6497 846.85 97.0438 846.585 96.4757C846.358 95.9077 846.017 95.4533 845.562 95.1124C845.146 94.7337 844.616 94.5444 843.972 94.5444H840.961C840.545 94.5444 840.28 94.7527 840.166 95.1692C840.09 95.5479 840.052 95.9266 840.052 96.3053V111.87C840.052 112.551 840.299 113.044 840.791 113.347C841.321 113.612 841.946 113.858 842.665 114.085C842.968 114.199 843.233 114.331 843.461 114.483C843.726 114.596 843.858 114.805 843.858 115.108C843.858 115.373 843.707 115.543 843.404 115.619C843.139 115.695 842.893 115.733 842.665 115.733C841.946 115.733 841.321 115.695 840.791 115.619C840.261 115.581 839.749 115.543 839.257 115.505C838.765 115.467 838.178 115.449 837.496 115.449C836.852 115.449 836.284 115.467 835.792 115.505C835.3 115.543 834.788 115.581 834.258 115.619C833.766 115.695 833.141 115.733 832.384 115.733Z" fill="#8EACCD"/>
<path d="M854.925 115.733C854.698 115.733 854.452 115.695 854.187 115.619C853.922 115.543 853.789 115.373 853.789 115.108C853.789 114.805 853.922 114.578 854.187 114.426C854.49 114.275 854.793 114.142 855.096 114.028C855.664 113.839 856.175 113.631 856.63 113.404C857.122 113.138 857.368 112.627 857.368 111.87V96.1349C857.368 95.3775 857.141 94.8663 856.686 94.6012C856.27 94.2982 855.778 94.071 855.209 93.9195C854.907 93.8059 854.604 93.6734 854.301 93.5219C854.036 93.3704 853.903 93.1432 853.903 92.8402C853.903 92.613 854.036 92.4615 854.301 92.3858C854.604 92.3101 854.85 92.2722 855.039 92.2722C855.796 92.2722 856.421 92.2911 856.914 92.329C857.444 92.3669 857.936 92.4237 858.391 92.4994C858.845 92.5373 859.394 92.5562 860.038 92.5562C860.72 92.5562 861.269 92.5373 861.685 92.4994C862.102 92.4237 862.537 92.3669 862.992 92.329C863.484 92.2911 864.109 92.2722 864.866 92.2722C865.056 92.2722 865.283 92.3101 865.548 92.3858C865.813 92.4615 865.946 92.613 865.946 92.8402C865.946 93.1053 865.813 93.3325 865.548 93.5219C865.283 93.6734 864.999 93.8059 864.696 93.9195C864.128 94.1089 863.636 94.3361 863.219 94.6012C862.802 94.8663 862.594 95.3775 862.594 96.1349V106.871C862.594 107.098 862.67 107.25 862.821 107.325C862.973 107.401 863.105 107.382 863.219 107.269L873.046 96.7598C873.16 96.6083 873.236 96.4947 873.273 96.4189C873.349 96.3432 873.387 96.2107 873.387 96.0213C873.387 95.2639 873.198 94.7716 872.819 94.5444C872.478 94.2793 872.024 94.071 871.456 93.9195C871.153 93.8059 870.869 93.6734 870.604 93.5219C870.338 93.3704 870.206 93.1432 870.206 92.8402C870.206 92.613 870.319 92.4615 870.547 92.3858C870.812 92.3101 871.058 92.2722 871.285 92.2722C872.043 92.2722 872.649 92.2911 873.103 92.329C873.595 92.3669 874.05 92.4237 874.466 92.4994C874.921 92.5373 875.47 92.5562 876.114 92.5562C876.795 92.5562 877.344 92.5373 877.761 92.4994C878.215 92.4237 878.689 92.3669 879.181 92.329C879.673 92.2911 880.298 92.2722 881.056 92.2722C881.283 92.2722 881.51 92.3101 881.737 92.3858C882.002 92.4615 882.135 92.613 882.135 92.8402C882.135 93.1432 882.002 93.3704 881.737 93.5219C881.472 93.6734 881.188 93.8059 880.885 93.9195C880.317 94.071 879.787 94.2982 879.295 94.6012C878.84 94.8663 878.613 95.3775 878.613 96.1349V111.87C878.613 112.627 878.859 113.138 879.352 113.404C879.882 113.631 880.431 113.839 880.999 114.028C881.302 114.142 881.586 114.275 881.851 114.426C882.116 114.578 882.249 114.805 882.249 115.108C882.249 115.373 882.116 115.543 881.851 115.619C881.586 115.695 881.359 115.733 881.169 115.733C880.412 115.733 879.768 115.695 879.238 115.619C878.746 115.581 878.253 115.543 877.761 115.505C877.307 115.467 876.738 115.449 876.057 115.449C875.413 115.449 874.845 115.467 874.353 115.505C873.898 115.543 873.406 115.581 872.876 115.619C872.383 115.695 871.759 115.733 871.001 115.733C870.812 115.733 870.585 115.695 870.32 115.619C870.054 115.543 869.922 115.373 869.922 115.108C869.922 114.805 870.054 114.578 870.32 114.426C870.585 114.275 870.869 114.142 871.172 114.028C871.74 113.839 872.251 113.631 872.705 113.404C873.16 113.138 873.387 112.627 873.387 111.87V100.168C873.387 99.9787 873.349 99.8651 873.273 99.8272C873.236 99.7515 873.179 99.7704 873.103 99.884L862.935 110.904C862.708 111.131 862.594 111.453 862.594 111.87C862.594 112.665 862.84 113.176 863.333 113.404C863.825 113.631 864.355 113.839 864.923 114.028C865.226 114.142 865.51 114.275 865.775 114.426C866.04 114.578 866.173 114.805 866.173 115.108C866.173 115.335 866.04 115.486 865.775 115.562C865.51 115.676 865.283 115.733 865.094 115.733C864.336 115.733 863.692 115.695 863.162 115.619C862.67 115.581 862.196 115.543 861.742 115.505C861.288 115.467 860.72 115.449 860.038 115.449C859.394 115.449 858.826 115.467 858.334 115.505C857.841 115.543 857.33 115.581 856.8 115.619C856.308 115.695 855.683 115.733 854.925 115.733Z" fill="#8EACCD"/>
<path d="M376.549 148.047C375.129 147.337 374.005 146.331 373.176 145.03C372.466 143.728 372.111 142.426 372.111 141.124C372.111 139.822 372.466 138.757 373.176 137.929C373.65 137.456 374.123 137.16 374.596 137.041C375.07 137.041 375.247 137.337 375.129 137.929C374.774 139.704 375.543 141.361 377.437 142.899C379.448 144.556 381.224 145.562 382.762 145.917C383.709 146.036 384.596 146.154 385.425 146.272C386.372 146.509 387.259 146.627 388.088 146.627C391.52 146.627 394.833 146.036 398.028 144.852C402.289 143.432 406.49 140.473 410.632 135.976C414.892 131.598 418.857 126.686 422.525 121.243C425.957 116.036 429.508 109.763 433.176 102.426C436.963 94.9704 440.869 87.2781 444.892 79.3491H408.679C408.324 79.3491 408.147 79.2308 408.147 78.9941C408.147 78.4024 408.561 77.6923 409.389 76.8639C410.336 75.9172 411.164 75.4438 411.875 75.4438H446.845C450.632 68.1065 454.596 61.0059 458.738 54.142C462.88 47.2781 467.2 41.0651 471.697 35.503C476.312 29.8225 481.105 25.3254 486.076 22.0118C481.579 21.5385 476.963 20.8876 472.23 20.0592C467.614 19.2308 463.531 18.4615 459.981 17.7515C454.892 16.8047 449.863 15.9763 444.892 15.2663C440.04 14.5562 435.247 14.2012 430.514 14.2012C426.49 14.2012 422.585 14.5562 418.798 15.2663C415.129 15.9763 411.579 17.1598 408.147 18.8166C405.306 20.355 402.644 22.9586 400.159 26.6272C397.792 30.1775 396.608 33.8462 396.608 37.6331C396.608 39.1716 396.845 40.6509 397.318 42.071C397.91 43.4911 398.798 44.8521 399.981 46.1538C400.218 46.2722 400.159 46.5089 399.804 46.8639C399.567 47.1006 399.271 47.1598 398.916 47.0414C396.667 45.0296 395.011 42.7811 393.946 40.2959C392.88 37.6923 392.348 35.0888 392.348 32.4852C392.348 28.5799 393.295 24.9112 395.188 21.4793C397.2 18.0473 399.685 15.4438 402.644 13.6686C405.602 12.0118 408.679 10.8284 411.875 10.1183C415.188 9.40828 418.62 9.05325 422.17 9.05325C425.484 9.05325 428.857 9.28994 432.289 9.76331C435.721 10.2367 439.271 10.8284 442.94 11.5385C448.265 12.6035 453.827 13.787 459.626 15.0888C465.543 16.2722 471.164 17.2781 476.49 18.1065C478.738 18.4615 480.987 18.7574 483.235 18.9941C485.602 19.2308 487.91 19.4083 490.159 19.5266C493.946 17.7515 497.614 16.8639 501.164 16.8639C501.638 16.8639 502.644 16.9231 504.182 17.0414C505.721 17.1598 506.49 17.6923 506.49 18.6391C506.49 19.9408 505.543 20.8876 503.65 21.4793C501.875 21.9527 499.922 22.2485 497.792 22.3669C495.662 22.3669 494.123 22.3669 493.176 22.3669H491.401C489.981 23.3136 488.561 24.497 487.141 25.9172C485.721 27.2189 484.301 28.6982 482.88 30.355C477.673 36.5089 472.94 43.4911 468.679 51.3018C464.419 59.1124 460.336 67.1598 456.431 75.4438H499.744L501.164 72.9586C508.028 61.0059 515.602 49.4675 523.886 38.3432C532.17 27.2189 540.277 15.9763 548.206 4.61538C548.561 4.02367 549.153 3.78698 549.981 3.90532C550.928 3.90532 551.224 4.20118 550.869 4.7929C546.135 10.9467 541.46 17.7515 536.845 25.2071C532.348 32.6627 528.088 40.2367 524.064 47.929C520.04 55.503 516.312 62.7219 512.88 69.5858C512.17 70.7692 511.283 72.7219 510.218 75.4438H522.289C522.525 75.4438 522.644 75.5621 522.644 75.7988C522.644 76.2722 522.17 76.9822 521.224 77.929C520.395 78.8757 519.626 79.3491 518.916 79.3491H508.443C506.904 83.2544 505.129 87.6923 503.117 92.6627C501.224 97.5148 499.449 102.426 497.792 107.396C496.135 112.249 494.833 116.568 493.886 120.355C493.176 123.314 492.821 125.976 492.821 128.343C492.821 131.775 493.591 134.26 495.129 135.799C496.431 137.101 498.088 137.751 500.099 137.751C502.466 137.751 504.892 136.805 507.378 134.911C510.336 132.663 513.354 129.704 516.431 126.035C519.508 122.249 522.289 118.521 524.774 114.852C527.259 111.065 529.034 108.166 530.099 106.154C530.809 105.089 531.46 104.556 532.052 104.556C532.407 104.556 532.585 104.793 532.585 105.266C532.585 105.74 532.407 106.331 532.052 107.041C530.75 109.645 528.916 112.84 526.549 116.627C524.182 120.414 521.46 124.201 518.383 127.988C515.306 131.657 512.052 134.734 508.62 137.219C506.963 138.402 505.07 139.349 502.94 140.059C500.928 140.888 498.798 141.302 496.549 141.302C493.354 141.302 490.395 140.355 487.673 138.462C484.005 135.74 482.17 131.124 482.17 124.615C482.289 117.278 483.886 109.704 486.963 101.893C490.04 94.0828 493.531 86.5681 497.437 79.3491H454.656C450.987 87.0414 447.259 94.6154 443.472 102.071C439.804 109.408 435.898 116.036 431.756 121.953C427.733 127.751 423.058 132.959 417.733 137.574C412.525 142.189 406.608 145.68 399.981 148.047C396.312 149.349 391.934 150 386.845 150C384.833 150 382.94 149.822 381.164 149.467C379.389 149.231 377.851 148.757 376.549 148.047Z" fill="#8EACCD"/>
</svg>
