<svg width="246" height="151" viewBox="0 0 246 151" fill="none" xmlns="http://www.w3.org/2000/svg">
<path d="M158.77 99.096C158.529 99.096 158.248 99.0559 157.927 98.9755C157.646 98.9354 157.506 98.7748 157.506 98.4937C157.506 98.1725 157.626 97.9316 157.867 97.771C158.148 97.6104 158.449 97.4699 158.77 97.3495C159.332 97.1487 159.895 96.8275 160.457 96.3858C161.019 95.9442 161.701 95.1612 162.504 94.037L167.503 87.2315C167.784 86.9103 167.905 86.6493 167.864 86.4486C167.864 86.2478 167.784 86.027 167.624 85.7861L162.806 78.559C162.324 77.756 161.882 77.1537 161.481 76.7522C161.079 76.3106 160.577 76.0094 159.975 75.8488C159.614 75.7284 159.292 75.5878 159.011 75.4272C158.77 75.2666 158.65 75.0257 158.65 74.7045C158.65 74.3833 158.831 74.2027 159.192 74.1625C159.593 74.1224 159.895 74.1023 160.095 74.1023C160.939 74.1023 161.541 74.1224 161.902 74.1625C162.304 74.2027 162.725 74.2428 163.167 74.283C163.649 74.3231 164.351 74.3432 165.275 74.3432C166.158 74.3432 166.841 74.3231 167.322 74.283C167.804 74.2027 168.507 74.1625 169.43 74.1625C169.631 74.1625 169.912 74.2027 170.274 74.283C170.635 74.3231 170.816 74.5038 170.816 74.825C170.816 75.0659 170.695 75.2466 170.454 75.367C170.213 75.4875 169.932 75.6079 169.611 75.7284C169.29 75.8488 168.969 75.9894 168.647 76.15C168.366 76.3106 168.226 76.5715 168.226 76.9329C168.226 77.1336 168.286 77.4147 168.407 77.7761C168.567 78.0973 168.768 78.4385 169.009 78.7999L171.779 82.9555C171.94 83.2365 172.12 83.2365 172.321 82.9555L174.971 78.7999C175.132 78.5188 175.272 78.2177 175.393 77.8965C175.513 77.5753 175.573 77.2742 175.573 76.9931C175.573 76.4712 175.272 76.1098 174.67 75.9091C174.349 75.7484 174.048 75.6079 173.767 75.4875C173.486 75.3269 173.345 75.086 173.345 74.7648C173.345 74.4436 173.526 74.2629 173.887 74.2227C174.248 74.1826 174.529 74.1625 174.73 74.1625C175.292 74.1625 175.854 74.1826 176.417 74.2227C177.019 74.2629 177.561 74.283 178.043 74.283C179.006 74.283 179.709 74.2428 180.151 74.1625C180.592 74.0822 181.154 74.042 181.837 74.042C182.118 74.042 182.399 74.0822 182.68 74.1625C183.001 74.2027 183.162 74.3633 183.162 74.6443C183.162 74.9254 183.021 75.1663 182.74 75.367C182.499 75.5276 182.198 75.6681 181.837 75.7886C181.315 75.9492 180.693 76.2503 179.97 76.692C179.247 77.1336 178.565 77.7961 177.922 78.6794L173.947 84.4009C173.827 84.6016 173.767 84.7823 173.767 84.9429C173.767 85.1035 173.827 85.2842 173.947 85.485L179.548 94.4586C180.03 95.2215 180.532 95.8438 181.054 96.3256C181.576 96.7673 182.178 97.0885 182.861 97.2892C183.182 97.4097 183.463 97.5502 183.704 97.7108C183.985 97.8714 184.125 98.1123 184.125 98.4335C184.125 98.7146 183.965 98.8752 183.644 98.9153C183.363 98.9956 183.102 99.0358 182.861 99.0358C181.977 99.0358 181.295 99.0157 180.813 98.9755C180.331 98.9354 179.829 98.8953 179.307 98.8551C178.826 98.8149 178.103 98.7949 177.139 98.7949C176.256 98.7949 175.393 98.8149 174.55 98.8551C173.706 98.9354 172.823 98.9755 171.9 98.9755C170.936 98.9755 170.454 98.7547 170.454 98.3131C170.454 97.9517 170.575 97.6907 170.816 97.5301C171.097 97.3695 171.478 97.229 171.96 97.1086C172.401 96.9881 172.783 96.8074 173.104 96.5665C173.465 96.2855 173.646 95.884 173.646 95.362C173.646 95.1211 173.606 94.9003 173.526 94.6995C173.486 94.4586 173.365 94.1976 173.164 93.9166L169.792 88.5565C169.671 88.436 169.551 88.436 169.43 88.5565L165.817 94.1575C165.777 94.3181 165.676 94.559 165.516 94.8802C165.395 95.1612 165.335 95.4624 165.335 95.7836C165.335 96.1048 165.415 96.4059 165.576 96.687C165.736 96.9279 165.977 97.1086 166.299 97.229C166.62 97.3495 166.921 97.49 167.202 97.6506C167.483 97.771 167.624 97.9919 167.624 98.3131C167.624 98.6343 167.443 98.8149 167.082 98.8551C166.72 98.9354 166.439 98.9755 166.238 98.9755C165.676 98.9755 165.094 98.9555 164.492 98.9153C163.89 98.8752 163.348 98.8551 162.866 98.8551C161.942 98.8551 161.199 98.8752 160.637 98.9153C160.115 98.9956 159.493 99.0559 158.77 99.096Z" fill="#8EACCD"/>
<path d="M200.065 99.6983C197.776 99.6983 195.689 99.1763 193.802 98.1324C191.955 97.0483 190.489 95.5828 189.405 93.7359C188.321 91.889 187.779 89.7811 187.779 87.4122C187.779 85.6456 188.12 83.9392 188.803 82.293C189.485 80.6468 190.449 79.1612 191.694 77.8363C192.938 76.5113 194.384 75.4674 196.03 74.7045C197.676 73.9015 199.443 73.5 201.33 73.5C203.699 73.5 205.847 74.0822 207.774 75.2466C209.701 76.3708 211.227 77.8564 212.351 79.7033C213.475 81.5502 214.037 83.5778 214.037 85.7861C214.037 88.1951 213.516 90.4636 212.472 92.5916C211.428 94.7196 209.862 96.4461 207.774 97.771C205.726 99.0559 203.157 99.6983 200.065 99.6983ZM201.33 97.5904C202.494 97.5904 203.538 97.3695 204.462 96.9279C205.385 96.4461 206.108 95.7234 206.63 94.7597C207.111 93.8363 207.433 92.7121 207.593 91.3871C207.794 90.022 207.894 88.6368 207.894 87.2315C207.894 85.224 207.573 83.3369 206.931 81.5703C206.288 79.8037 205.405 78.3783 204.281 77.2942C203.157 76.2102 201.832 75.6681 200.306 75.6681C199.383 75.6681 198.539 75.8288 197.776 76.15C197.054 76.431 196.391 76.9329 195.789 77.6556C195.026 78.5791 194.524 79.7836 194.283 81.2691C194.042 82.7146 193.922 84.3005 193.922 86.027C193.922 87.9542 194.243 89.8012 194.886 91.5678C195.528 93.3344 196.391 94.7798 197.475 95.904C198.6 97.0282 199.884 97.5904 201.33 97.5904Z" fill="#8EACCD"/>
<path d="M220.402 107.528C220.161 107.528 219.9 107.347 219.619 106.986C219.338 106.624 219.157 106.142 219.077 105.54C219.037 103.854 218.876 102.469 218.595 101.385C218.354 100.341 218.114 99.4975 217.873 98.8551C217.672 98.2127 217.572 97.6907 217.572 97.2892C217.572 96.968 217.652 96.7472 217.812 96.6267C217.973 96.4661 218.174 96.3858 218.415 96.3858C218.615 96.3858 218.836 96.4059 219.077 96.4461C219.358 96.4862 219.599 96.5063 219.8 96.5063C220.884 96.5063 221.787 96.0446 222.51 95.1211C223.233 94.1575 223.815 92.8727 224.257 91.2666C224.698 89.6205 224.999 87.7535 225.16 85.6656C225.361 83.5778 225.461 81.4097 225.461 79.1612C225.461 77.9969 225.2 77.234 224.678 76.8727C224.156 76.4712 223.433 76.17 222.51 75.9693C222.229 75.889 221.948 75.7886 221.667 75.6681C221.426 75.5075 221.305 75.2666 221.305 74.9454C221.305 74.7045 221.486 74.5239 221.848 74.4034C222.209 74.2428 222.47 74.1625 222.63 74.1625C223.514 74.1625 224.257 74.2027 224.859 74.283C225.461 74.3231 226.144 74.3432 226.907 74.3432H238.831C239.634 74.3432 240.357 74.3231 240.999 74.283C241.642 74.2027 242.405 74.1625 243.288 74.1625C243.449 74.1625 243.689 74.2428 244.011 74.4034C244.332 74.5239 244.492 74.7045 244.492 74.9454C244.492 75.2666 244.372 75.5075 244.131 75.6681C243.89 75.7886 243.669 75.889 243.469 75.9693C242.585 76.17 241.923 76.4912 241.481 76.9329C241.04 77.3746 240.819 78.3382 240.819 79.8237V93.9166C240.819 94.7597 240.899 95.4022 241.06 95.8438C241.26 96.2855 241.762 96.5063 242.565 96.5063C242.766 96.5063 243.027 96.4862 243.348 96.4461C243.71 96.4059 244.031 96.3858 244.312 96.3858C244.633 96.3858 244.894 96.426 245.095 96.5063C245.295 96.5866 245.396 96.7271 245.396 96.9279C245.396 97.0483 245.376 97.1487 245.336 97.229C245.175 97.6707 244.974 98.1725 244.733 98.7346C244.533 99.2566 244.332 100.04 244.131 101.083C243.93 102.127 243.79 103.613 243.71 105.54C243.669 106.142 243.509 106.624 243.228 106.986C242.947 107.347 242.666 107.528 242.385 107.528C241.903 107.528 241.561 107.307 241.361 106.865C241.16 106.423 241.06 105.942 241.06 105.42C241.06 104.978 241.06 104.536 241.06 104.095C241.1 103.653 241.1 103.191 241.06 102.71C241.019 101.184 240.779 100.16 240.337 99.638C239.895 99.1161 239.132 98.8551 238.048 98.8551H225.401C224.277 98.8551 223.393 99.1763 222.751 99.8187C222.149 100.501 221.827 101.746 221.787 103.553C221.747 103.834 221.727 104.115 221.727 104.396C221.727 104.717 221.727 105.058 221.727 105.42C221.727 105.942 221.627 106.423 221.426 106.865C221.225 107.307 220.884 107.528 220.402 107.528ZM225.883 96.4461H233.652C234.375 96.4461 234.816 96.3658 234.977 96.2052C235.178 96.0044 235.278 95.5628 235.278 94.8802V79.0408C235.278 78.7196 235.238 78.3783 235.157 78.017C235.117 77.6155 234.997 77.2742 234.796 76.9931C234.635 76.7121 234.375 76.5715 234.013 76.5715H229.376C229.055 76.5715 228.794 76.7321 228.593 77.0533C228.392 77.3745 228.272 77.7359 228.231 78.1374C228.191 78.4988 228.171 78.7999 228.171 79.0408C228.171 80.968 228.071 82.8952 227.87 84.8225C227.71 86.7096 227.388 88.5565 226.907 90.3633C226.465 92.1299 225.863 93.7961 225.1 95.362C225.06 95.4423 224.999 95.5427 224.919 95.6631C224.879 95.7434 224.859 95.8438 224.859 95.9643C224.859 96.1249 224.939 96.2453 225.1 96.3256C225.26 96.4059 225.521 96.4461 225.883 96.4461Z" fill="#8EACCD"/>
<path d="M16.5621 150.8C15.1819 150.8 13.1744 150.612 10.5395 150.235C7.90464 149.859 5.5207 149.043 3.3877 147.789C1.12924 146.534 0 144.527 0 141.766C0 140.261 0.376412 139.069 1.12924 138.19C1.63112 137.563 2.133 137.249 2.63488 137.249C3.13676 137.249 3.32497 137.563 3.1995 138.19C2.69762 140.072 3.3877 141.829 5.26976 143.46C7.02635 145.217 8.78294 146.346 10.5395 146.848C12.5471 147.35 14.6801 147.601 16.9385 147.601C21.8319 147.601 26.3488 146.346 30.4893 143.836C34.7553 141.327 38.5194 138.19 41.7817 134.426C37.1393 131.164 32.9987 127.086 29.3601 122.193C25.8469 117.299 24.0903 111.779 24.0903 105.631C24.0903 103.749 24.2785 101.867 24.655 99.9845C26.0351 93.2091 29.4856 87.9393 35.0063 84.1752C37.8921 82.1677 41.1543 81.1639 44.793 81.1639C47.1769 81.1639 49.3099 81.6031 51.192 82.4814C53.1995 83.2342 54.5797 84.1752 55.3325 85.3044V85.4926C55.3325 85.9945 55.0816 86.4964 54.5797 86.9983C54.0778 87.3747 53.7014 87.4374 53.4504 87.1865C52.5721 85.5554 50.8783 84.7398 48.3689 84.7398C46.9887 84.7398 45.4831 85.0535 43.8519 85.6809C42.2208 86.1827 40.7152 87.1238 39.335 88.5039C37.7039 89.8841 36.3864 91.6407 35.3827 93.7737C34.3789 95.7812 33.5634 97.9142 32.936 100.173C32.1832 102.808 31.8068 105.38 31.8068 107.889C31.8068 112.908 32.9987 117.425 35.3827 121.44C37.7666 125.455 40.7152 128.905 44.2284 131.791C48.7453 126.145 52.9486 119.746 56.8381 112.594C60.8532 105.442 64.4918 98.4788 67.7541 91.7034C71.1418 84.8026 74.1531 79.0309 76.788 74.3885C86.5747 57.199 95.9849 43.8992 105.019 34.4889C114.178 24.9531 122.647 20.1852 130.427 20.1852C132.058 20.1852 133.626 20.3734 135.132 20.7499C135.634 20.8753 135.759 21.189 135.508 21.6909C135.257 22.1928 134.881 22.381 134.379 22.2555C133.877 22.13 133.375 22.0673 132.873 22.0673C132.497 21.9418 132.058 21.8791 131.556 21.8791C127.792 21.8791 123.714 23.7612 119.322 27.5253C114.931 31.1639 110.414 36.2455 105.772 42.7699C101.129 49.1689 96.4868 56.5717 91.8444 64.9782C93.4755 63.9745 95.3576 63.2844 97.4906 62.908C99.7491 62.4061 102.07 62.1551 104.454 62.1551C108.093 62.1551 111.731 62.5315 115.37 63.2844C119.134 64.0372 122.271 64.9155 124.78 65.9192C130.427 61.5278 134.944 56.0698 138.331 49.5453C141.844 43.0209 143.601 36.7474 143.601 30.7248C143.601 24.7022 142.033 19.8716 138.896 16.2329C135.759 12.5943 131.807 9.83392 127.039 7.95187C122.271 6.06981 117.252 4.81511 111.982 4.18775C106.713 3.5604 101.882 3.24673 97.4906 3.24673C90.4642 3.24673 83.4379 3.99955 76.4115 5.50519C69.5107 7.01084 63.1117 9.20657 57.2146 12.0924C51.3174 14.8527 46.2986 18.2405 42.1581 22.2555C38.7704 25.5177 35.5709 29.8465 32.5596 35.2417C29.5483 40.6369 28.0427 46.0949 28.0427 51.6156C28.0427 53.8741 28.4191 56.0698 29.1719 58.2028C30.4266 61.716 32.6851 64.4763 35.9473 66.4839C39.2095 68.3659 42.9737 69.307 47.2396 69.307C48.8708 69.307 50.5646 69.1187 52.3212 68.7423C54.0778 68.3659 55.8344 67.9268 57.591 67.4249H57.9674C58.3438 67.4249 58.532 67.6131 58.532 67.9895C58.532 68.4914 58.2183 68.8678 57.591 69.1187C54.2033 70.248 50.6901 70.8126 47.0514 70.8126C42.7854 70.8126 38.7704 69.997 35.0063 68.3659C31.2422 66.6093 28.1681 64.0372 25.7842 60.6495C23.4003 57.2618 22.2083 53.0585 22.2083 48.0397C22.2083 44.1501 22.7102 40.5742 23.7139 37.312C24.8432 34.0497 26.3488 30.9757 28.2309 28.0899C32.3714 21.9418 38.2058 16.8603 45.734 12.8452C53.2622 8.83016 61.606 5.81887 70.7654 3.81134C79.9247 1.80381 89.0213 0.800049 98.0552 0.800049C102.321 0.800049 107.215 1.11372 112.735 1.74108C118.381 2.36843 123.965 3.5604 129.486 5.31699C135.006 6.9481 139.837 9.33204 143.977 12.4688C148.243 15.6056 151.192 19.6206 152.823 24.514C153.576 26.8979 153.952 29.4701 153.952 32.2304C153.952 37.2492 152.698 42.3308 150.188 47.4751C147.679 52.4939 144.542 56.8854 140.778 60.6495C137.892 63.7862 134.379 66.5466 130.238 68.9305C136.136 71.8164 140.527 75.7687 143.413 80.7875C146.299 85.6809 147.742 90.9506 147.742 96.5968C147.742 102.494 146.236 108.391 143.225 114.288C140.213 120.185 135.759 125.518 129.862 130.286C124.09 135.054 116.876 138.692 108.218 141.202C104.203 142.331 99.8745 143.209 95.2321 143.836C90.7152 144.464 86.0728 144.777 81.3049 144.777C76.4115 144.777 71.5182 144.401 66.6248 143.648C61.7315 142.895 57.0263 141.703 52.5094 140.072C51.7566 139.821 50.941 139.508 50.0627 139.131C49.1844 138.755 48.3689 138.316 47.6161 137.814C40.8407 143.836 33.5006 147.789 25.596 149.671C22.5847 150.424 19.5734 150.8 16.5621 150.8ZM99.5608 76.0824C103.576 76.0824 107.403 75.455 111.041 74.2003C114.806 72.8201 118.319 70.9381 121.581 68.5541C119.197 67.0485 116.499 66.0447 113.488 65.5428C110.477 64.9155 107.026 64.6018 103.137 64.6018C99.4981 64.6018 96.6123 65.3546 94.4793 66.8603C92.3463 68.3659 91.2798 69.9343 91.2798 71.5654C91.2798 72.8201 91.9071 73.8866 93.1619 74.7649C94.542 75.6432 96.675 76.0824 99.5608 76.0824ZM107.277 137.626C113.676 134.865 119.009 131.227 123.275 126.71C127.666 122.067 130.991 116.986 133.25 111.465C135.508 105.944 136.637 100.549 136.637 95.2793C136.637 90.5115 135.696 86.0573 133.814 81.9167C132.058 77.7762 129.297 74.3258 125.533 71.5654C121.644 73.4475 117.378 75.0159 112.735 76.2706C108.218 77.5253 103.576 78.1526 98.808 78.1526C95.2949 78.1526 92.66 77.7135 90.9034 76.8352C89.1468 75.8314 87.9548 74.8277 87.3275 73.8239C85.6964 76.9607 84.128 80.2229 82.6223 83.6106C81.1167 86.9983 79.5483 90.386 77.9172 93.7737C74.6549 100.549 70.7026 107.701 66.0602 115.229C61.5433 122.757 56.2108 129.47 50.0627 135.367C50.8156 135.869 51.5684 136.245 52.3212 136.496C53.074 136.873 53.8268 137.187 54.5797 137.437C58.7202 138.943 63.1117 140.072 67.7541 140.825C72.3965 141.578 77.0389 141.954 81.6813 141.954C86.5747 141.954 91.2171 141.515 95.6085 140.637C100.125 139.884 104.015 138.88 107.277 137.626Z" fill="#8EACCD"/>
</svg>
