<svg width="51" height="50" viewBox="0 0 51 50" fill="none" xmlns="http://www.w3.org/2000/svg">
<path fill-rule="evenodd" clip-rule="evenodd" d="M25.2713 0.290039C11.5214 0.290039 0.375 11.1994 0.375 24.6568C0.375 38.1143 11.5214 49.0236 25.2713 49.0236C39.0211 49.0236 50.1675 38.1143 50.1675 24.6568C50.1675 11.1994 39.0211 0.290039 25.2713 0.290039ZM25.4046 36.8402C25.5736 31.4446 25.7158 28.9819 27.672 27.0065C29.6903 25.0919 32.2066 24.9614 37.7194 24.7873C37.7194 29.652 37.7016 33.2897 35.9233 35.0823C34.0917 36.8228 30.544 36.8402 25.4046 36.8402ZM14.6192 35.0823C12.8409 33.2897 12.8231 29.652 12.8231 24.7873C18.3359 24.9527 20.8522 25.0919 22.8705 27.0065C24.8267 28.9819 24.9601 31.4446 25.1379 36.8402C19.9985 36.8402 16.4508 36.8228 14.6192 35.0823ZM14.6192 14.2313C16.4508 12.4908 20.0074 12.4734 25.1379 12.4734C24.9689 17.869 24.8267 20.3317 22.8705 22.3071C20.8522 24.2217 18.3359 24.3522 12.8231 24.5263C12.8231 19.6616 12.8409 16.024 14.6192 14.2313ZM25.4046 12.4734C25.5736 17.869 25.7158 20.3317 27.672 22.3071C29.6903 24.2217 32.2066 24.3522 37.7194 24.5263C37.7194 19.6616 37.7016 16.024 35.9233 14.2313C34.0917 12.4908 30.544 12.4734 25.4046 12.4734Z" fill="#292929"/>
</svg>
