<svg width="594" height="284" viewBox="0 0 594 284" fill="none" xmlns="http://www.w3.org/2000/svg">
<path d="M35.7969 136C30.1969 136 24.9302 135.2 19.9969 133.6C15.0635 132.134 10.5302 129.867 6.39688 126.8C5.86354 126.267 5.26354 125.667 4.59688 125C4.06354 124.2 3.66354 123.4 3.39688 122.6C2.46354 119.534 1.79688 115.734 1.39687 111.2C1.13021 106.534 0.930208 102.4 0.796875 98.8002C0.796875 97.8669 1.19688 97.2002 1.99688 96.8002C2.79688 96.2669 3.73021 96.0002 4.79688 96.0002C5.73021 96.0002 6.46354 96.2002 6.99688 96.6002C7.66354 96.8669 8.13021 97.4669 8.39688 98.4002C11.1969 108.534 15.3302 116.134 20.7969 121.2C26.2635 126.134 32.1969 128.6 38.5969 128.6C43.1302 128.6 46.9969 127.6 50.1969 125.6C53.5302 123.6 56.1302 120.934 57.9969 117.6C59.8635 114.134 60.7969 110.267 60.7969 106C60.7969 100.934 59.9302 96.8002 58.1969 93.6002C56.4635 90.4002 53.9302 87.5335 50.5969 85.0002C47.2635 82.4669 43.1302 79.7335 38.1969 76.8002C32.8635 73.6002 27.5969 70.2669 22.3969 66.8002C17.3302 63.3335 13.1302 59.2669 9.79688 54.6002C6.46354 49.9335 4.79688 44.2002 4.79688 37.4002C4.79688 30.2002 6.46354 23.8669 9.79688 18.4002C13.2635 12.8002 18.2635 8.4002 24.7969 5.20019C31.3302 1.86686 39.1969 0.200195 48.3969 0.200195C53.1969 0.200195 57.5302 0.73353 61.3969 1.8002C65.3969 2.73353 68.5969 3.73353 70.9969 4.8002C72.1969 5.2002 73.1302 5.86686 73.7969 6.80019C74.5969 7.73353 75.1969 8.86687 75.5969 10.2002C76.2635 13.0002 76.9969 16.2669 77.7969 20.0002C78.5969 23.7335 78.9969 27.5335 78.9969 31.4002C78.9969 32.8669 77.9302 33.6002 75.7969 33.6002C74.5969 33.6002 73.4635 33.3335 72.3969 32.8002C71.3302 32.2669 70.6635 31.6002 70.3969 30.8002C67.7302 23.3335 64.3969 17.6669 60.3969 13.8002C56.5302 9.93353 51.5969 8.0002 45.5969 8.0002C41.5969 8.0002 37.9302 8.73353 34.5969 10.2002C31.3969 11.5335 28.7969 13.8002 26.7969 17.0002C24.9302 20.0669 23.9969 24.1335 23.9969 29.2002C23.9969 32.8002 25.1969 36.2002 27.5969 39.4002C30.1302 42.4669 33.4635 45.4669 37.5969 48.4002C41.8635 51.2002 46.5969 54.1335 51.7969 57.2002C57.2635 60.5335 62.1969 64.0002 66.5969 67.6002C70.9969 71.2002 74.4635 75.3335 76.9969 80.0002C79.5302 84.5335 80.7969 90.0002 80.7969 96.4002C80.7969 104.8 78.9302 112 75.1969 118C71.4635 123.867 66.1969 128.334 59.3969 131.4C52.7302 134.467 44.8635 136 35.7969 136Z" fill="white"/>
<path d="M99.9187 134C98.3187 134 96.9187 133.8 95.7188 133.4C94.6521 133 94.1188 132.334 94.1188 131.4C94.1188 129.667 96.1854 128.4 100.319 127.6C105.385 126.667 108.785 125.2 110.519 123.2C112.385 121.067 113.319 117.667 113.319 113V22.8002C113.319 18.2669 112.385 15.0669 110.519 13.2002C108.652 11.3335 105.119 9.86686 99.9187 8.80019C96.0521 8.00019 94.1188 6.66686 94.1188 4.8002C94.1188 3.86687 94.5854 3.2002 95.5188 2.8002C96.5854 2.40019 97.8521 2.20019 99.3187 2.20019C102.785 2.20019 105.785 2.26686 108.319 2.40019C110.985 2.53353 113.519 2.66687 115.919 2.8002C118.452 2.8002 121.119 2.8002 123.919 2.8002C126.452 2.8002 128.785 2.8002 130.919 2.8002C133.185 2.66687 135.519 2.6002 137.919 2.6002C140.452 2.46686 143.385 2.40019 146.719 2.40019C148.319 2.40019 149.519 2.60019 150.319 3.0002C151.252 3.26687 151.719 3.86687 151.719 4.8002C151.719 5.86686 151.252 6.73353 150.319 7.4002C149.385 7.93353 147.919 8.4002 145.919 8.80019C140.852 10.0002 137.652 11.6669 136.319 13.8002C135.119 15.9335 134.519 18.9335 134.519 22.8002V61.4002C134.519 62.0669 134.585 62.8669 134.719 63.8002C134.985 64.6002 135.385 65.0002 135.919 65.0002C136.585 65.0002 137.385 64.6669 138.319 64.0002C139.385 63.2002 140.319 62.4002 141.119 61.6002L180.519 20.6002C181.585 19.4002 182.385 18.3335 182.919 17.4002C183.585 16.3335 183.919 15.3335 183.919 14.4002C183.919 11.8669 182.119 10.2002 178.519 9.4002C176.519 8.86686 175.052 8.33353 174.119 7.80019C173.319 7.13353 172.919 6.26686 172.919 5.20019C172.919 4.40019 173.385 3.8002 174.319 3.4002C175.385 3.0002 176.652 2.8002 178.119 2.8002H189.919C194.052 2.8002 198.385 2.73353 202.919 2.6002C207.452 2.46686 211.719 2.33352 215.719 2.20019C219.719 2.06686 222.785 2.0002 224.919 2.0002C226.252 2.0002 227.319 2.26686 228.119 2.8002C229.052 3.2002 229.519 3.73353 229.519 4.4002C229.519 5.46686 228.919 6.33353 227.719 7.00019C226.652 7.66687 225.119 8.2002 223.119 8.60019C217.652 9.53353 212.319 11.0669 207.119 13.2002C201.919 15.2002 197.119 17.9335 192.719 21.4002C188.185 25.1335 183.919 28.8669 179.919 32.6002C175.919 36.3335 171.985 40.2002 168.119 44.2002C164.252 48.0669 160.052 52.4002 155.519 57.2002C154.319 58.2669 154.585 59.7335 156.319 61.6002L204.519 113.8C207.052 116.6 209.185 118.867 210.919 120.6C212.785 122.2 214.852 123.6 217.119 124.8C219.385 125.867 222.319 126.8 225.919 127.6C227.919 128.134 229.519 128.667 230.719 129.2C231.919 129.6 232.519 130.334 232.519 131.4C232.519 132.2 231.919 132.8 230.719 133.2C229.519 133.734 227.919 134 225.919 134C222.052 134 218.519 133.867 215.319 133.6C212.119 133.467 208.985 133.267 205.919 133C202.852 132.867 199.319 132.8 195.319 132.8C192.119 132.8 189.252 132.867 186.719 133C184.185 133.267 180.652 133.4 176.119 133.4C174.652 133.4 173.385 133.2 172.319 132.8C171.385 132.4 170.919 131.734 170.919 130.8C170.919 129.2 172.585 128 175.919 127.2C180.185 126.267 182.319 124.734 182.319 122.6C182.319 121.8 181.985 121 181.319 120.2C180.785 119.267 180.119 118.267 179.319 117.2L140.319 73.4002C139.519 72.6002 138.652 71.8669 137.719 71.2002C136.919 70.5335 136.252 70.2002 135.719 70.2002C135.185 70.2002 134.852 70.6669 134.719 71.6002C134.585 72.4002 134.519 73.2002 134.519 74.0002C134.519 80.2669 134.585 86.2669 134.719 92.0002C134.852 97.7335 135.052 104.267 135.319 111.6C135.452 114.4 135.852 116.867 136.519 119C137.185 121.134 138.385 122.934 140.119 124.4C141.852 125.734 144.385 126.8 147.719 127.6C149.719 128 151.252 128.467 152.319 129C153.385 129.534 153.919 130.334 153.919 131.4C153.919 132.2 153.319 132.8 152.119 133.2C151.052 133.734 149.719 134 148.119 134C144.385 134 141.319 133.867 138.919 133.6C136.652 133.334 134.519 133.067 132.519 132.8C130.652 132.534 128.452 132.4 125.919 132.4C122.852 132.4 120.052 132.534 117.519 132.8C115.119 133.067 112.519 133.334 109.719 133.6C107.052 133.867 103.785 134 99.9187 134Z" fill="white"/>
<path d="M268.111 134C266.378 134 264.978 133.8 263.911 133.4C262.844 133 262.311 132.4 262.311 131.6C262.311 130.534 262.844 129.734 263.911 129.2C265.111 128.534 266.711 128 268.711 127.6C273.778 126.667 277.511 124.867 279.911 122.2C282.311 119.534 283.511 115.867 283.511 111.2V82.4002C283.511 79.0669 282.844 75.8669 281.511 72.8002C280.178 69.6002 279.044 67.2002 278.111 65.6002L253.911 26.8002C252.844 25.0669 251.378 22.9335 249.511 20.4002C247.778 17.8669 245.844 15.5335 243.711 13.4002C241.578 11.2669 239.311 9.86687 236.911 9.2002C235.044 8.53353 233.578 7.93353 232.511 7.4002C231.444 6.73353 230.911 5.86686 230.911 4.8002C230.911 3.86687 231.378 3.26687 232.311 3.0002C233.378 2.60019 234.644 2.40019 236.111 2.40019C240.111 2.40019 244.311 2.53353 248.711 2.8002C253.111 3.06686 257.778 3.20019 262.711 3.20019C266.311 3.20019 269.644 3.06686 272.711 2.8002C275.911 2.53353 278.978 2.40019 281.911 2.40019C283.511 2.40019 284.844 2.60019 285.911 3.0002C286.978 3.4002 287.511 4.0002 287.511 4.8002C287.511 5.86686 286.978 6.73353 285.911 7.4002C284.844 7.93353 283.311 8.46687 281.311 9.0002C278.778 9.66687 276.844 10.4002 275.511 11.2002C274.178 11.8669 273.511 13.0669 273.511 14.8002C273.511 16.6669 274.311 19.0669 275.911 22.0002L295.111 56.6002C297.244 60.6002 298.911 62.6002 300.111 62.6002C300.778 62.6002 301.511 62.1335 302.311 61.2002C303.111 60.2669 304.178 58.7335 305.511 56.6002C308.711 51.5335 311.578 46.6669 314.111 42.0002C316.644 37.3335 319.511 32.0002 322.711 26.0002C323.778 24.0002 324.578 22.2669 325.111 20.8002C325.644 19.2002 325.911 17.8002 325.911 16.6002C325.911 13.9335 324.911 12.0669 322.911 11.0002C320.911 9.93353 318.844 9.33353 316.711 9.2002C315.378 8.93353 313.978 8.46686 312.511 7.80019C311.044 7.0002 310.311 6.06686 310.311 5.00019C310.311 4.2002 310.844 3.6002 311.911 3.20019C313.111 2.8002 314.511 2.6002 316.111 2.6002C319.444 2.6002 322.311 2.66687 324.711 2.8002C327.111 2.93353 329.844 3.0002 332.911 3.0002C336.911 3.0002 340.644 2.86686 344.111 2.6002C347.711 2.33353 350.844 2.20019 353.511 2.20019C355.244 2.20019 356.644 2.40019 357.711 2.8002C358.911 3.06686 359.511 3.73353 359.511 4.8002C359.511 5.73353 358.578 6.6002 356.711 7.4002C354.844 8.06686 352.778 8.73353 350.511 9.4002C346.778 10.3335 343.644 12.2002 341.111 15.0002C338.711 17.6669 335.978 21.3335 332.911 26.0002C330.511 29.8669 328.311 33.3335 326.311 36.4002C324.444 39.3335 322.644 42.1335 320.911 44.8002C319.311 47.4669 317.644 50.2002 315.911 53.0002C314.178 55.8002 312.178 59.0669 309.911 62.8002C308.444 65.2002 307.311 67.3335 306.511 69.2002C305.844 70.9335 305.378 72.7335 305.111 74.6002C304.978 76.3335 304.911 78.5335 304.911 81.2002V111.2C304.911 115.867 306.111 119.534 308.511 122.2C311.044 124.734 314.844 126.534 319.911 127.6C321.911 128 323.444 128.467 324.511 129C325.711 129.534 326.311 130.334 326.311 131.4C326.311 132.334 325.778 133 324.711 133.4C323.644 133.8 322.244 134 320.511 134C317.178 134 314.111 133.867 311.311 133.6C308.644 133.467 305.978 133.267 303.311 133C300.644 132.867 297.844 132.8 294.911 132.8C291.844 132.8 288.911 132.867 286.111 133C283.311 133.267 280.444 133.467 277.511 133.6C274.578 133.867 271.444 134 268.111 134Z" fill="white"/>
<path d="M35.7969 286C30.1969 286 24.9302 285.2 19.9969 283.6C15.0635 282.134 10.5302 279.867 6.39688 276.8C5.86354 276.267 5.26354 275.667 4.59688 275C4.06354 274.2 3.66354 273.4 3.39688 272.6C2.46354 269.534 1.79688 265.734 1.39687 261.2C1.13021 256.534 0.930208 252.4 0.796875 248.8C0.796875 247.867 1.19688 247.2 1.99688 246.8C2.79688 246.267 3.73021 246 4.79688 246C5.73021 246 6.46354 246.2 6.99688 246.6C7.66354 246.867 8.13021 247.467 8.39688 248.4C11.1969 258.534 15.3302 266.134 20.7969 271.2C26.2635 276.134 32.1969 278.6 38.5969 278.6C43.1302 278.6 46.9969 277.6 50.1969 275.6C53.5302 273.6 56.1302 270.934 57.9969 267.6C59.8635 264.134 60.7969 260.267 60.7969 256C60.7969 250.934 59.9302 246.8 58.1969 243.6C56.4635 240.4 53.9302 237.534 50.5969 235C47.2635 232.467 43.1302 229.734 38.1969 226.8C32.8635 223.6 27.5969 220.267 22.3969 216.8C17.3302 213.334 13.1302 209.267 9.79688 204.6C6.46354 199.934 4.79688 194.2 4.79688 187.4C4.79688 180.2 6.46354 173.867 9.79688 168.4C13.2635 162.8 18.2635 158.4 24.7969 155.2C31.3302 151.867 39.1969 150.2 48.3969 150.2C53.1969 150.2 57.5302 150.734 61.3969 151.8C65.3969 152.734 68.5969 153.734 70.9969 154.8C72.1969 155.2 73.1302 155.867 73.7969 156.8C74.5969 157.734 75.1969 158.867 75.5969 160.2C76.2635 163 76.9969 166.267 77.7969 170C78.5969 173.734 78.9969 177.534 78.9969 181.4C78.9969 182.867 77.9302 183.6 75.7969 183.6C74.5969 183.6 73.4635 183.334 72.3969 182.8C71.3302 182.267 70.6635 181.6 70.3969 180.8C67.7302 173.334 64.3969 167.667 60.3969 163.8C56.5302 159.934 51.5969 158 45.5969 158C41.5969 158 37.9302 158.734 34.5969 160.2C31.3969 161.534 28.7969 163.8 26.7969 167C24.9302 170.067 23.9969 174.134 23.9969 179.2C23.9969 182.8 25.1969 186.2 27.5969 189.4C30.1302 192.467 33.4635 195.467 37.5969 198.4C41.8635 201.2 46.5969 204.134 51.7969 207.2C57.2635 210.534 62.1969 214 66.5969 217.6C70.9969 221.2 74.4635 225.334 76.9969 230C79.5302 234.534 80.7969 240 80.7969 246.4C80.7969 254.8 78.9302 262 75.1969 268C71.4635 273.867 66.1969 278.334 59.3969 281.4C52.7302 284.467 44.8635 286 35.7969 286Z" fill="white"/>
<path d="M170.119 286C160.519 286 151.252 284.4 142.319 281.2C133.519 278 125.719 273.467 118.919 267.6C112.119 261.734 106.719 254.667 102.719 246.4C98.8521 238.134 96.9187 228.934 96.9187 218.8C96.9187 209.334 98.9187 200.467 102.919 192.2C106.919 183.8 112.452 176.534 119.519 170.4C126.719 164.134 135.052 159.267 144.519 155.8C153.985 152.2 164.252 150.4 175.319 150.4C180.252 150.4 184.652 150.667 188.519 151.2C192.385 151.6 196.119 152.2 199.719 153C203.319 153.8 207.185 154.867 211.319 156.2C213.052 156.734 214.319 157.467 215.119 158.4C216.052 159.334 216.585 160.734 216.719 162.6C217.119 166.067 217.452 169.667 217.719 173.4C218.119 177.134 218.385 181.267 218.519 185.8C218.519 187 217.985 187.867 216.919 188.4C215.985 188.934 214.919 189.067 213.719 188.8C212.519 188.4 211.719 187.467 211.319 186C210.119 181.6 208.719 177.667 207.119 174.2C205.519 170.734 203.185 167.867 200.119 165.6C197.052 163.2 193.119 161.334 188.319 160C183.652 158.667 178.385 158 172.519 158C165.052 158 158.185 159.534 151.919 162.6C145.652 165.667 140.319 169.867 135.919 175.2C131.519 180.4 128.052 186.334 125.519 193C123.119 199.667 121.919 206.6 121.919 213.8C121.919 222.2 123.052 230.267 125.319 238C127.719 245.734 131.119 252.6 135.519 258.6C140.052 264.6 145.519 269.4 151.919 273C158.319 276.467 165.519 278.2 173.519 278.2C183.119 278.2 191.052 276.067 197.319 271.8C203.585 267.4 208.852 261.134 213.119 253C214.052 251.134 215.452 250.2 217.319 250.2C219.185 250.2 220.119 251.267 220.119 253.4C220.119 254.734 219.852 256.6 219.319 259C218.919 261.267 218.319 263.8 217.519 266.6C216.719 269.267 215.919 271.734 215.119 274C214.319 275.734 213.585 276.934 212.919 277.6C212.252 278.267 210.985 278.934 209.119 279.6C204.052 281.734 198.052 283.334 191.119 284.4C184.319 285.467 177.319 286 170.119 286Z" fill="white"/>
<path d="M235.325 284C233.725 284 232.392 283.734 231.325 283.2C230.258 282.8 229.725 282.134 229.725 281.2C229.725 280.134 230.258 279.267 231.325 278.6C232.392 277.934 233.858 277.267 235.725 276.6C239.325 275.534 242.592 273.934 245.525 271.8C248.458 269.667 250.858 266.4 252.725 262C256.325 253.867 259.658 246.134 262.725 238.8C265.792 231.334 268.725 224 271.525 216.8C274.325 209.6 277.192 202.2 280.125 194.6C283.058 186.867 286.058 178.667 289.125 170C290.325 166.934 291.192 164.4 291.725 162.4C292.258 160.267 292.592 158.4 292.725 156.8C294.458 156.4 296.058 156 297.525 155.6C298.992 155.067 300.592 154.334 302.325 153.4C303.925 152.6 305.125 151.467 305.925 150C306.858 148.4 307.592 147.267 308.125 146.6C308.392 146.467 308.658 146.4 308.925 146.4C309.325 146.267 309.658 146.467 309.925 147C310.325 147.667 310.592 148.4 310.725 149.2C310.992 150 311.258 150.867 311.525 151.8C314.592 161.534 317.725 171.467 320.925 181.6C324.258 191.6 327.525 201.4 330.725 211C333.925 220.6 336.925 229.534 339.725 237.8C342.525 245.934 344.925 253.067 346.925 259.2C348.392 263.6 350.125 267 352.125 269.4C354.125 271.667 356.258 273.4 358.525 274.6C360.792 275.667 363.258 276.467 365.925 277C367.925 277.4 369.392 278 370.325 278.8C371.392 279.6 371.925 280.534 371.925 281.6C371.925 282.4 371.392 282.934 370.325 283.2C369.392 283.6 368.192 283.8 366.725 283.8C364.592 283.8 361.792 283.667 358.325 283.4C354.858 283.267 351.258 283.134 347.525 283C343.792 282.867 340.392 282.8 337.325 282.8C334.792 282.8 331.992 282.8 328.925 282.8C325.858 282.8 322.925 282.867 320.125 283C317.458 283.134 315.125 283.2 313.125 283.2C311.525 283.2 310.192 283 309.125 282.6C308.192 282.067 307.725 281.4 307.725 280.6C307.725 279.534 308.325 278.667 309.525 278C310.725 277.334 312.125 276.867 313.725 276.6C318.258 275.8 321.525 274.6 323.525 273C325.658 271.4 326.525 269.267 326.125 266.6C325.992 264.334 325.525 261.534 324.725 258.2C323.925 254.734 322.992 251.134 321.925 247.4C320.858 243.534 319.858 240 318.925 236.8C318.658 235.734 318.192 235.067 317.525 234.8C316.858 234.534 315.725 234.4 314.125 234.4H277.125C276.458 234.4 275.858 234.667 275.325 235.2C274.792 235.6 274.258 236.467 273.725 237.8C273.325 239.4 272.658 241.467 271.725 244C270.925 246.4 270.125 249 269.325 251.8C268.525 254.467 267.792 257 267.125 259.4C266.592 261.667 266.258 263.334 266.125 264.4C265.725 267.734 266.525 270.4 268.525 272.4C270.658 274.267 273.792 275.734 277.925 276.8C281.925 277.867 283.925 279.2 283.925 280.8C283.925 281.734 283.392 282.4 282.325 282.8C281.392 283.067 280.125 283.2 278.525 283.2C275.992 283.2 273.058 283.134 269.725 283C266.392 282.867 262.858 282.8 259.125 282.8C254.858 282.8 250.725 283 246.725 283.4C242.725 283.8 238.925 284 235.325 284ZM282.725 226.2H311.925C313.792 226.2 314.725 225.867 314.725 225.2C314.725 224.8 314.658 224.467 314.525 224.2C314.525 223.934 314.458 223.534 314.325 223L299.525 175.6C298.858 173.467 298.325 172.4 297.925 172.4C297.658 172.4 297.192 173.4 296.525 175.4L279.125 223C278.858 223.8 278.725 224.334 278.725 224.6C278.725 225.267 279.058 225.734 279.725 226C280.525 226.134 281.525 226.2 282.725 226.2Z" fill="white"/>
<path d="M379.373 283.8C377.907 283.8 376.64 283.6 375.573 283.2C374.64 282.934 374.173 282.334 374.173 281.4C374.173 279.667 376.107 278.4 379.973 277.6C385.04 276.667 388.64 275.2 390.773 273.2C393.04 271.2 394.173 267.867 394.173 263.2V177C394.173 171.4 393.373 167.2 391.773 164.4C390.307 161.6 387.107 159.734 382.173 158.8C380.04 158.4 378.507 157.867 377.573 157.2C376.64 156.534 376.173 155.734 376.173 154.8C376.173 154 376.64 153.4 377.573 153C378.64 152.467 379.907 152.2 381.373 152.2C384.84 152.2 387.707 152.267 389.973 152.4C392.24 152.4 394.44 152.467 396.573 152.6C398.707 152.734 401.107 152.8 403.773 152.8C406.573 152.8 409.307 152.667 411.973 152.4C414.64 152.134 417.24 151.867 419.773 151.6C422.44 151.334 425.107 151.2 427.773 151.2C443.373 151.2 455.84 154.467 465.173 161C474.507 167.534 479.173 176.534 479.173 188C479.173 196.134 477.507 203.667 474.173 210.6C470.973 217.534 465.973 223.134 459.173 227.4C452.373 231.534 443.707 233.6 433.173 233.6C430.107 233.6 427.707 233.134 425.973 232.2C424.373 231.267 423.573 230.334 423.573 229.4C423.573 228.6 423.973 227.934 424.773 227.4C425.573 226.734 426.307 226.4 426.973 226.4C427.907 226.4 428.973 226.534 430.173 226.8C431.507 226.934 433.373 227 435.773 227C442.973 227 448.373 223.734 451.973 217.2C455.707 210.667 457.573 201.8 457.573 190.6C457.573 179.4 454.773 171.2 449.173 166C443.707 160.667 436.573 158 427.773 158C424.04 158 421.04 158.734 418.773 160.2C416.64 161.534 415.573 163.8 415.573 167L415.373 261.6C415.373 266.134 416.44 269.734 418.573 272.4C420.707 274.934 424.373 276.667 429.573 277.6C431.44 278 432.84 278.467 433.773 279C434.84 279.534 435.373 280.334 435.373 281.4C435.373 282.2 434.907 282.8 433.973 283.2C433.04 283.6 431.773 283.8 430.173 283.8C426.84 283.8 423.84 283.667 421.173 283.4C418.64 283.267 416.173 283.134 413.773 283C411.507 282.734 409.107 282.6 406.573 282.6C403.373 282.6 400.307 282.734 397.373 283C394.573 283.134 391.707 283.267 388.773 283.4C385.973 283.667 382.84 283.8 379.373 283.8Z" fill="white"/>
<path d="M495.631 284C494.031 284 492.765 283.8 491.831 283.4C490.898 283 490.431 282.4 490.431 281.6C490.431 279.867 492.365 278.6 496.231 277.8C501.165 276.734 504.698 275.267 506.831 273.4C509.098 271.4 510.231 268.067 510.231 263.4V173C510.231 168.467 509.298 165.2 507.431 163.2C505.565 161.2 502.165 159.734 497.231 158.8C495.231 158.4 493.765 157.867 492.831 157.2C491.898 156.534 491.431 155.734 491.431 154.8C491.431 154 491.898 153.4 492.831 153C493.765 152.467 495.031 152.2 496.631 152.2C501.031 152.2 504.965 152.267 508.431 152.4C512.031 152.534 515.498 152.667 518.831 152.8C522.298 152.934 526.031 153 530.031 153C535.365 153 540.965 153 546.831 153C552.831 152.867 558.231 152.734 563.031 152.6C567.565 152.6 571.298 152.534 574.231 152.4C577.298 152.134 579.098 152 579.631 152C580.431 152 581.231 152.2 582.031 152.6C582.965 152.867 583.498 153.467 583.631 154.4C584.298 158.534 584.965 162.6 585.631 166.6C586.431 170.467 586.831 173.867 586.831 176.8C586.831 178.134 586.498 179.067 585.831 179.6C585.298 180 584.698 180.2 584.031 180.2C583.365 180.2 582.831 180 582.431 179.6C582.031 179.2 581.631 178.6 581.231 177.8C580.298 175.134 579.431 172.734 578.631 170.6C577.831 168.334 576.898 166.667 575.831 165.6C574.098 163.734 572.098 162.334 569.831 161.4C567.565 160.467 565.031 160 562.231 160H539.831C538.098 160 536.231 160.667 534.231 162C532.365 163.2 531.431 164.934 531.431 167.2V208C531.431 209.334 531.831 210.4 532.631 211.2C533.431 212 534.365 212.4 535.431 212.4H554.431C558.298 212.4 560.965 211.534 562.431 209.8C563.898 208.067 565.098 205.4 566.031 201.8C566.965 199.134 568.231 197.8 569.831 197.8C570.498 197.8 571.098 198.134 571.631 198.8C572.165 199.334 572.431 200.2 572.431 201.4C572.431 202.2 572.365 203.534 572.231 205.4C572.098 207.267 571.965 209.2 571.831 211.2C571.698 213.2 571.631 214.8 571.631 216C571.631 217.467 571.631 219.267 571.631 221.4C571.765 223.4 571.898 225.4 572.031 227.4C572.165 229.4 572.231 230.867 572.231 231.8C572.365 233 572.231 234 571.831 234.8C571.565 235.467 571.098 235.8 570.431 235.8C568.298 235.8 566.698 233.867 565.631 230C564.831 226.534 563.698 223.934 562.231 222.2C560.898 220.467 558.898 219.6 556.231 219.6H537.631C535.498 219.6 533.898 219.934 532.831 220.6C531.898 221.267 531.431 222.667 531.431 224.8V263C531.431 267.667 532.431 270.934 534.431 272.8C536.431 274.534 539.498 275.4 543.631 275.4H559.431C563.165 275.4 566.431 275.134 569.231 274.6C572.031 274.067 574.431 273.067 576.431 271.6C578.698 270 580.698 267.934 582.431 265.4C584.165 262.867 585.965 259.734 587.831 256C588.365 255.2 588.898 254.6 589.431 254.2C589.965 253.667 590.565 253.467 591.231 253.6C592.031 253.6 592.565 253.934 592.831 254.6C593.231 255.134 593.431 255.867 593.431 256.8C593.431 258.267 593.098 260.467 592.431 263.4C591.765 266.334 590.898 269.4 589.831 272.6C588.898 275.8 588.031 278.534 587.231 280.8C586.831 281.734 586.365 282.467 585.831 283C585.298 283.667 584.631 284 583.831 284C579.031 284 574.031 283.934 568.831 283.8C563.631 283.667 558.298 283.534 552.831 283.4C547.365 283.267 541.898 283.134 536.431 283C530.965 282.867 525.565 282.8 520.231 282.8C517.431 282.8 514.765 282.867 512.231 283C509.698 283.267 507.098 283.467 504.431 283.6C501.898 283.867 498.965 284 495.631 284Z" fill="white"/>
</svg>
