<svg width="50" height="50" viewBox="0 0 50 50" fill="none" xmlns="http://www.w3.org/2000/svg">
<path d="M24.8963 0.290039C11.1423 0.290039 0 11.1969 0 24.6568C0 38.1167 11.1439 49.0236 24.8963 49.0236C38.6502 49.0236 49.7925 38.1167 49.7925 24.6568C49.7925 11.1969 38.6486 0.290039 24.8963 0.290039ZM37.1243 16.9836L33.0381 35.8294C32.7362 37.1656 31.9234 37.4895 30.7894 36.8606L24.5654 32.3709L21.5634 35.2006C21.2325 35.5244 20.9514 35.7995 20.3089 35.7995L20.7506 29.5993L32.2848 19.3999C32.7876 18.9676 32.174 18.7223 31.5106 19.1546L17.2555 27.9377L11.1118 26.0607C9.777 25.6488 9.74648 24.7543 11.3928 24.1255L35.3961 15.0657C36.5108 14.6727 37.4841 15.3314 37.1227 16.9821L37.1243 16.9836Z" fill="#292929"/>
</svg>
