<svg width="51" height="50" viewBox="0 0 51 50" fill="none" xmlns="http://www.w3.org/2000/svg">
<path d="M25.5838 0.290039C11.8338 0.290039 0.6875 11.1992 0.6875 24.6568C0.6875 38.1144 11.8338 49.0236 25.5838 49.0236C39.3338 49.0236 50.48 38.1144 50.48 24.6568C50.48 11.1992 39.3338 0.290039 25.5838 0.290039ZM35.1584 27.7813C35.1584 27.7813 37.3602 29.9084 37.9022 30.8957C37.9178 30.916 37.9256 30.9363 37.9307 30.9465C38.1512 31.3095 38.203 31.5912 38.0941 31.8019C37.9126 32.1521 37.2902 32.3247 37.0775 32.34H33.1875C32.9178 32.34 32.3524 32.2714 31.6678 31.8095C31.1413 31.4491 30.6227 30.8576 30.117 30.2815C29.3623 29.4236 28.7088 28.6824 28.05 28.6824C27.9664 28.6823 27.8832 28.6951 27.8037 28.7205C27.3057 28.8778 26.6678 29.5733 26.6678 31.4262C26.6678 32.0049 26.201 32.3374 25.8716 32.3374H24.09C23.4831 32.3374 20.3218 32.1293 17.521 29.2383C14.0926 25.6975 11.0065 18.5956 10.9805 18.5296C10.786 18.0702 11.188 17.824 11.6263 17.824H15.5552C16.0791 17.824 16.2503 18.1362 16.3695 18.4128C16.5096 18.7352 17.0231 20.017 17.8659 21.4587C19.2326 23.8091 20.0703 24.7634 20.742 24.7634C20.8679 24.762 20.9916 24.7306 21.1024 24.672C21.979 24.1949 21.8156 21.1363 21.7767 20.5018C21.7767 20.3825 21.7741 19.1337 21.3255 18.5347C21.0039 18.1006 20.4567 17.9356 20.1247 17.8747C20.2591 17.6933 20.4361 17.5461 20.6408 17.4458C21.2425 17.1513 22.3265 17.1082 23.4027 17.1082H24.0018C25.1688 17.1234 25.4697 17.197 25.8924 17.3011C26.7482 17.5016 26.7663 18.0422 26.6911 19.8926C26.6678 20.418 26.6444 21.012 26.6444 21.7125C26.6444 21.8648 26.6367 22.0272 26.6367 22.1998C26.6107 23.1415 26.5796 24.2101 27.2591 24.6492C27.3477 24.7036 27.4501 24.7326 27.5547 24.733C27.7907 24.733 28.5013 24.733 30.4256 21.5018C31.019 20.4618 31.5347 19.3811 31.9686 18.2681C32.0075 18.2022 32.1216 17.9991 32.2565 17.9204C32.356 17.8708 32.4663 17.8455 32.578 17.8468H37.1968C37.6999 17.8468 38.0448 17.9204 38.1097 18.1108C38.2238 18.4128 38.0889 19.3342 35.9805 22.1288L35.0391 23.3446C33.1278 25.7965 33.1278 25.9208 35.1584 27.7813Z" fill="#292929"/>
</svg>
