<svg width="721" height="151" viewBox="0 0 721 151" fill="none" xmlns="http://www.w3.org/2000/svg">
<path d="M131.215 98.5903C130.982 98.5903 130.729 98.5514 130.457 98.4737C130.185 98.3959 130.049 98.2404 130.049 98.0072C130.049 97.7351 130.166 97.5407 130.399 97.4241C130.632 97.2686 130.904 97.1325 131.215 97.0159C131.876 96.7827 132.44 96.5883 132.906 96.4328C133.412 96.2384 133.664 95.7331 133.664 94.9167V78.7061C133.664 77.812 133.47 77.19 133.081 76.8402C132.692 76.4514 132.129 76.1599 131.39 75.9655C131.079 75.8877 130.807 75.7711 130.574 75.6156C130.341 75.4601 130.224 75.2658 130.224 75.0325C130.224 74.7604 130.379 74.6049 130.69 74.566C131.001 74.4883 131.235 74.4494 131.39 74.4494C132.245 74.4494 132.887 74.4688 133.314 74.5077C133.781 74.5077 134.209 74.5466 134.597 74.6243C135.025 74.6632 135.569 74.6826 136.23 74.6826C136.813 74.6826 137.338 74.6632 137.804 74.6243C138.271 74.5466 138.796 74.4883 139.379 74.4494C140.001 74.4105 140.759 74.3911 141.653 74.3911C144.841 74.3911 147.309 74.8576 149.059 75.7906C150.847 76.7235 151.741 78.1036 151.741 79.9307C151.741 81.4468 151.294 82.6907 150.4 83.6626C149.506 84.5956 148.398 85.1981 147.076 85.4702C146.92 85.5091 146.823 85.5674 146.784 85.6452C146.745 85.6841 146.843 85.7424 147.076 85.8201C147.931 85.9367 148.806 86.2089 149.7 86.6365C150.633 87.0641 151.41 87.6666 152.032 88.4441C152.654 89.2216 152.965 90.2129 152.965 91.418C152.965 93.1285 152.499 94.5279 151.566 95.6164C150.633 96.666 149.311 97.4241 147.601 97.8906C145.929 98.3571 143.927 98.5903 141.595 98.5903C140.934 98.5903 140.117 98.532 139.146 98.4154C138.213 98.3376 137.241 98.2988 136.23 98.2988C135.491 98.2988 134.656 98.3182 133.723 98.3571C132.829 98.3959 132.109 98.4348 131.565 98.4737C131.021 98.5514 130.904 98.5903 131.215 98.5903ZM142.003 96.4911C143.674 96.4911 144.977 96.0635 145.91 95.2083C146.843 94.353 147.309 93.1868 147.309 91.7096C147.309 89.8825 146.726 88.6191 145.56 87.9193C144.432 87.2196 142.936 86.8697 141.07 86.8697C140.526 86.8697 140.04 86.9669 139.612 87.1613C139.223 87.3168 139.029 87.6666 139.029 88.2109V93.5172C139.029 94.4891 139.282 95.2277 139.787 95.7331C140.292 96.2384 141.031 96.4911 142.003 96.4911ZM140.662 85.0038C142.761 85.0038 144.277 84.5761 145.21 83.7209C146.143 82.8268 146.609 81.7966 146.609 80.6304C146.609 79.3864 146.221 78.3951 145.443 77.6565C144.705 76.9179 143.383 76.5486 141.478 76.5486C140.506 76.5486 139.845 76.7041 139.495 77.0151C139.184 77.2872 139.029 77.7148 139.029 78.2979V83.6043C139.029 84.2263 139.204 84.615 139.554 84.7705C139.942 84.926 140.312 85.0038 140.662 85.0038Z" fill="#8EACCD"/>
<path d="M160.456 99.0568C159.406 99.0568 158.454 98.9207 157.598 98.6486C156.782 98.3765 156.374 98.0849 156.374 97.774C156.374 97.1131 156.724 96.7827 157.423 96.7827C158.395 96.7827 159.251 96.4717 159.989 95.8497C160.767 95.2277 161.486 94.4308 162.147 93.4589C162.846 92.4871 163.507 91.5541 164.129 90.66C164.829 89.6492 165.393 88.8912 165.82 88.3858C166.248 87.8805 166.714 87.4917 167.22 87.2196C167.686 86.9475 167.745 86.7725 167.395 86.6948C165.801 86.306 164.537 85.6841 163.604 84.8288C162.671 83.9736 162.205 82.6907 162.205 80.9803C162.205 79.6197 162.633 78.4534 163.488 77.4816C164.382 76.5097 165.548 75.7906 166.987 75.3241C168.425 74.8187 169.98 74.566 171.651 74.566C172.351 74.566 173.012 74.5855 173.634 74.6243C174.256 74.6632 174.859 74.7021 175.442 74.741C176.064 74.741 176.725 74.741 177.424 74.741C178.163 74.741 178.727 74.741 179.115 74.741C179.504 74.7021 179.912 74.6632 180.34 74.6243C180.806 74.5855 181.448 74.566 182.264 74.566C182.458 74.566 182.692 74.6049 182.964 74.6826C183.275 74.7604 183.43 74.9159 183.43 75.1491C183.43 75.3824 183.314 75.5767 183.08 75.7322C182.847 75.8877 182.575 76.0044 182.264 76.0821C181.564 76.2765 181.001 76.5486 180.573 76.8985C180.184 77.2095 179.99 77.812 179.99 78.7061V94.9167C179.99 95.7331 180.223 96.2384 180.69 96.4328C181.195 96.5883 181.798 96.7827 182.497 97.0159C182.769 97.1325 183.022 97.2686 183.255 97.4241C183.528 97.5407 183.664 97.7351 183.664 98.0072C183.664 98.2404 183.508 98.3959 183.197 98.4737C182.886 98.5514 182.653 98.5903 182.497 98.5903C181.836 98.5903 181.215 98.5514 180.631 98.4737C180.087 98.4348 179.562 98.4154 179.057 98.4154C178.552 98.3765 177.968 98.3571 177.308 98.3571C176.608 98.3571 176.005 98.3765 175.5 98.4154C174.995 98.4154 174.47 98.4348 173.926 98.4737C173.42 98.5514 172.759 98.5903 171.943 98.5903C171.749 98.5903 171.496 98.5514 171.185 98.4737C170.874 98.3959 170.718 98.2404 170.718 98.0072C170.718 97.6962 170.835 97.463 171.068 97.3075C171.34 97.152 171.632 97.0159 171.943 96.8993C172.682 96.666 173.304 96.4328 173.809 96.1995C174.353 95.9663 174.625 95.4609 174.625 94.6835V88.1526C174.625 87.7638 174.45 87.5695 174.101 87.5695C173.712 87.5306 173.381 87.5111 173.109 87.5111C172.837 87.5111 172.584 87.55 172.351 87.6278C171.885 87.7055 171.457 88.0359 171.068 88.6191C170.68 89.2022 170.038 90.2712 169.144 91.8262C168.289 93.2645 167.414 94.5279 166.52 95.6164C165.626 96.7049 164.673 97.5601 163.663 98.1821C162.691 98.7652 161.622 99.0568 160.456 99.0568ZM172.06 85.7618C172.876 85.7618 173.498 85.6841 173.926 85.5286C174.392 85.3731 174.625 85.1009 174.625 84.7122V78.3563C174.625 77.5788 174.412 77.054 173.984 76.7819C173.556 76.5097 172.818 76.3737 171.768 76.3737C170.641 76.3737 169.688 76.7624 168.911 77.5399C168.133 78.3174 167.745 79.4253 167.745 80.8636C167.745 82.1465 168.114 83.2933 168.852 84.304C169.63 85.2759 170.699 85.7618 172.06 85.7618Z" fill="#8EACCD"/>
<path d="M192.675 98.9985C191.314 98.9985 190.284 98.843 189.584 98.532C188.924 98.2599 188.593 97.9683 188.593 97.6573C188.593 97.3075 188.69 97.0742 188.885 96.9576C189.079 96.841 189.371 96.7827 189.759 96.7827C190.343 96.7827 190.965 96.6272 191.625 96.3162C192.286 96.0052 192.967 95.4804 193.666 94.7418C194.366 94.0031 195.066 92.973 195.765 91.6513C196.582 90.1352 197.32 88.794 197.981 87.6278C198.681 86.4227 199.439 85.4702 200.255 84.7705C200.372 84.6928 200.45 84.5956 200.489 84.479C200.566 84.3623 200.528 84.2457 200.372 84.1291C199.789 83.7015 199.284 83.1961 198.856 82.613C198.467 81.991 198.117 81.4079 197.806 80.8636C197.495 80.2805 197.223 79.814 196.99 79.4642C196.64 78.8811 196.31 78.4923 195.999 78.2979C195.727 78.1036 195.338 78.0064 194.832 78.0064C194.638 78.0064 194.424 78.0647 194.191 78.1813C193.997 78.298 193.802 78.4146 193.608 78.5312C193.336 78.6867 193.083 78.8422 192.85 78.9977C192.617 79.1532 192.325 79.2309 191.975 79.2309C191.314 79.2309 190.828 78.9782 190.517 78.4729C190.206 77.9675 190.051 77.4233 190.051 76.8402C190.051 76.0627 190.362 75.3629 190.984 74.741C191.606 74.119 192.403 73.808 193.375 73.808C194.347 73.808 195.241 74.0801 196.057 74.6243C196.873 75.1297 197.651 76.0821 198.389 77.4816C199.245 78.9977 199.944 80.2417 200.489 81.2135C201.072 82.1854 201.616 82.924 202.121 83.4293C202.627 83.9347 203.19 84.304 203.812 84.5373C204.434 84.7316 205.212 84.8288 206.145 84.8288C206.339 84.8288 206.495 84.79 206.611 84.7122C206.767 84.5956 206.845 84.4595 206.845 84.304V78.8227C206.845 78.0064 206.631 77.4038 206.203 77.0151C205.776 76.5875 205.192 76.2765 204.454 76.0821C204.143 76.0044 203.851 75.8877 203.579 75.7322C203.346 75.5379 203.229 75.3046 203.229 75.0325C203.229 74.7215 203.385 74.5466 203.696 74.5077C204.046 74.43 204.298 74.3911 204.454 74.3911C205.231 74.3911 205.853 74.4105 206.32 74.4494C206.786 74.4883 207.253 74.5466 207.719 74.6243C208.186 74.6632 208.749 74.6826 209.41 74.6826C210.11 74.6826 210.674 74.6632 211.101 74.6243C211.529 74.5855 211.976 74.5466 212.443 74.5077C212.948 74.4688 213.57 74.4494 214.308 74.4494C214.503 74.4494 214.756 74.4688 215.067 74.5077C215.378 74.5466 215.533 74.7215 215.533 75.0325C215.533 75.3046 215.397 75.5184 215.125 75.6739C214.853 75.8294 214.561 75.9655 214.25 76.0821C213.55 76.3154 213.006 76.6458 212.617 77.0734C212.229 77.4622 212.034 78.0453 212.034 78.8227V84.304C212.034 84.4595 212.093 84.5956 212.209 84.7122C212.365 84.79 212.54 84.8288 212.734 84.8288C213.667 84.8288 214.445 84.7316 215.067 84.5373C215.689 84.304 216.252 83.9347 216.758 83.4293C217.263 82.924 217.807 82.1854 218.39 81.2135C218.973 80.2417 219.673 78.9977 220.489 77.4816C221.228 76.0821 222.006 75.1297 222.822 74.6243C223.638 74.0801 224.532 73.808 225.504 73.808C226.476 73.808 227.273 74.119 227.895 74.741C228.517 75.3629 228.828 76.0627 228.828 76.8402C228.828 77.4233 228.673 77.9675 228.362 78.4729C228.051 78.9782 227.545 79.2309 226.845 79.2309C226.573 79.2309 226.301 79.1532 226.029 78.9977C225.796 78.8422 225.543 78.6867 225.271 78.5312C225.077 78.4146 224.882 78.298 224.688 78.1813C224.494 78.0647 224.28 78.0064 224.047 78.0064C223.541 78.0064 223.133 78.1036 222.822 78.2979C222.55 78.4923 222.239 78.8811 221.889 79.4642C221.656 79.814 221.384 80.2805 221.073 80.8636C220.8 81.4079 220.451 81.9716 220.023 82.5547C219.595 83.1378 219.09 83.6432 218.507 84.0708C218.351 84.2263 218.313 84.3623 218.39 84.479C218.468 84.5956 218.565 84.6928 218.682 84.7705C219.654 85.5869 220.49 86.6365 221.189 87.9193C221.889 89.1633 222.647 90.5628 223.463 92.1177C224.163 93.3617 224.824 94.3336 225.446 95.0333C226.107 95.6942 226.748 96.1607 227.37 96.4328C227.992 96.666 228.575 96.7827 229.12 96.7827C229.508 96.7827 229.8 96.841 229.994 96.9576C230.189 97.0742 230.286 97.3075 230.286 97.6573C230.286 97.9683 229.936 98.2599 229.236 98.532C228.575 98.843 227.565 98.9985 226.204 98.9985C224.999 98.9985 223.833 98.6875 222.705 98.0655C221.578 97.4435 220.548 96.2773 219.615 94.5668C218.798 92.973 218.079 91.6513 217.457 90.6017C216.874 89.552 216.33 88.7163 215.825 88.0943C215.319 87.4723 214.814 87.0252 214.308 86.7531C213.803 86.481 213.239 86.3449 212.617 86.3449C212.229 86.3449 212.034 86.5199 212.034 86.8697V94.6835C212.034 95.4221 212.268 95.9274 212.734 96.1995C213.239 96.4328 213.861 96.666 214.6 96.8993C214.911 97.0159 215.203 97.152 215.475 97.3075C215.747 97.4241 215.883 97.6379 215.883 97.9489C215.883 98.221 215.727 98.3959 215.416 98.4737C215.105 98.5514 214.853 98.5903 214.658 98.5903C213.92 98.5903 213.278 98.5514 212.734 98.4737C212.229 98.4348 211.723 98.3959 211.218 98.3571C210.752 98.3182 210.168 98.2988 209.469 98.2988C208.808 98.2988 208.225 98.3182 207.719 98.3571C207.214 98.3959 206.689 98.4348 206.145 98.4737C205.64 98.5514 204.998 98.5903 204.221 98.5903C204.026 98.5903 203.774 98.5514 203.463 98.4737C203.152 98.3959 202.996 98.2404 202.996 98.0072C202.996 97.6962 203.113 97.463 203.346 97.3075C203.618 97.152 203.91 97.0159 204.221 96.8993C204.959 96.666 205.581 96.4522 206.087 96.2579C206.592 96.0246 206.845 95.5192 206.845 94.7418V86.8697C206.845 86.5199 206.65 86.3449 206.262 86.3449C205.64 86.3449 205.056 86.481 204.512 86.7531C204.007 86.9863 203.501 87.414 202.996 88.0359C202.491 88.6579 201.927 89.5132 201.305 90.6017C200.722 91.6513 200.042 92.973 199.264 94.5668C198.409 96.2773 197.398 97.4435 196.232 98.0655C195.066 98.6875 193.88 98.9985 192.675 98.9985Z" fill="#8EACCD"/>
<path d="M236.426 98.5903C236.193 98.5903 235.94 98.5514 235.668 98.4737C235.396 98.3959 235.26 98.221 235.26 97.9489C235.26 97.6379 235.396 97.4046 235.668 97.2491C235.979 97.0937 236.29 96.9576 236.601 96.841C237.184 96.6466 237.709 96.4328 238.176 96.1995C238.681 95.9274 238.934 95.4026 238.934 94.6251V78.4729C238.934 77.6954 238.7 77.1706 238.234 76.8985C237.806 76.5875 237.301 76.3542 236.718 76.1987C236.407 76.0821 236.096 75.9461 235.785 75.7906C235.513 75.6351 235.377 75.4018 235.377 75.0908C235.377 74.8576 235.513 74.7021 235.785 74.6243C236.096 74.5466 236.349 74.5077 236.543 74.5077C237.32 74.5077 237.962 74.5271 238.467 74.566C239.011 74.6049 239.517 74.6632 239.983 74.741C240.45 74.7798 241.013 74.7993 241.674 74.7993C242.374 74.7993 242.938 74.7798 243.365 74.741C243.793 74.6632 244.24 74.6049 244.707 74.566C245.212 74.5271 245.853 74.5077 246.631 74.5077C246.825 74.5077 247.058 74.5466 247.33 74.6243C247.603 74.7021 247.739 74.8576 247.739 75.0908C247.739 75.3629 247.603 75.5962 247.33 75.7906C247.058 75.9461 246.767 76.0821 246.456 76.1987C245.873 76.3931 245.367 76.6264 244.94 76.8985C244.512 77.1706 244.298 77.6954 244.298 78.4729V89.4937C244.298 89.727 244.376 89.8825 244.532 89.9602C244.687 90.038 244.823 90.0185 244.94 89.9019L255.028 79.1143C255.144 78.9588 255.222 78.8422 255.261 78.7644C255.339 78.6867 255.377 78.5506 255.377 78.3563C255.377 77.5788 255.183 77.0734 254.794 76.8402C254.445 76.568 253.978 76.3542 253.395 76.1987C253.084 76.0821 252.792 75.9461 252.52 75.7906C252.248 75.6351 252.112 75.4018 252.112 75.0908C252.112 74.8576 252.229 74.7021 252.462 74.6243C252.734 74.5466 252.987 74.5077 253.22 74.5077C253.997 74.5077 254.619 74.5271 255.086 74.566C255.591 74.6049 256.058 74.6632 256.485 74.741C256.952 74.7798 257.516 74.7993 258.176 74.7993C258.876 74.7993 259.44 74.7798 259.867 74.741C260.334 74.6632 260.82 74.6049 261.325 74.566C261.831 74.5271 262.472 74.5077 263.25 74.5077C263.483 74.5077 263.716 74.5466 263.949 74.6243C264.221 74.7021 264.357 74.8576 264.357 75.0908C264.357 75.4018 264.221 75.6351 263.949 75.7906C263.677 75.9461 263.386 76.0821 263.075 76.1987C262.491 76.3542 261.947 76.5875 261.442 76.8985C260.975 77.1706 260.742 77.6954 260.742 78.4729V94.6251C260.742 95.4026 260.995 95.9274 261.5 96.1995C262.044 96.4328 262.608 96.6466 263.191 96.841C263.502 96.9576 263.794 97.0937 264.066 97.2491C264.338 97.4046 264.474 97.6379 264.474 97.9489C264.474 98.221 264.338 98.3959 264.066 98.4737C263.794 98.5514 263.561 98.5903 263.366 98.5903C262.589 98.5903 261.928 98.5514 261.384 98.4737C260.878 98.4348 260.373 98.3959 259.867 98.3571C259.401 98.3182 258.818 98.2988 258.118 98.2988C257.457 98.2988 256.874 98.3182 256.369 98.3571C255.902 98.3959 255.397 98.4348 254.853 98.4737C254.347 98.5514 253.706 98.5903 252.928 98.5903C252.734 98.5903 252.501 98.5514 252.229 98.4737C251.957 98.3959 251.82 98.221 251.82 97.9489C251.82 97.6379 251.957 97.4046 252.229 97.2491C252.501 97.0937 252.792 96.9576 253.103 96.841C253.686 96.6466 254.211 96.4328 254.678 96.1995C255.144 95.9274 255.377 95.4026 255.377 94.6251V82.613C255.377 82.4186 255.339 82.302 255.261 82.2631C255.222 82.1854 255.164 82.2048 255.086 82.3214L244.648 93.6338C244.415 93.8671 244.298 94.1975 244.298 94.6251C244.298 95.4415 244.551 95.9663 245.056 96.1995C245.562 96.4328 246.106 96.6466 246.689 96.841C247 96.9576 247.292 97.0937 247.564 97.2491C247.836 97.4046 247.972 97.6379 247.972 97.9489C247.972 98.1821 247.836 98.3376 247.564 98.4154C247.292 98.532 247.058 98.5903 246.864 98.5903C246.087 98.5903 245.426 98.5514 244.881 98.4737C244.376 98.4348 243.89 98.3959 243.424 98.3571C242.957 98.3182 242.374 98.2988 241.674 98.2988C241.013 98.2988 240.43 98.3182 239.925 98.3571C239.42 98.3959 238.895 98.4348 238.351 98.4737C237.845 98.5514 237.204 98.5903 236.426 98.5903Z" fill="#8EACCD"/>
<path d="M275.835 98.5903C275.602 98.5903 275.329 98.5514 275.018 98.4737C274.746 98.3959 274.61 98.2404 274.61 98.0072C274.61 97.6962 274.727 97.463 274.96 97.3075C275.232 97.152 275.524 97.0159 275.835 96.8993C276.534 96.666 277.137 96.4134 277.642 96.1412C278.148 95.8691 278.4 95.3443 278.4 94.5668L278.342 78.6478C278.342 78.2591 278.303 77.8703 278.226 77.4816C278.148 77.054 277.934 76.8402 277.584 76.8402H274.61C274.066 76.8402 273.6 77.0151 273.211 77.365C272.822 77.676 272.472 78.123 272.161 78.7061C271.889 79.2504 271.636 79.9112 271.403 80.6887C271.325 80.9997 271.17 81.3496 270.937 81.7383C270.703 82.0882 270.412 82.2631 270.062 82.2631C269.868 82.2631 269.693 82.1659 269.537 81.9716C269.421 81.7383 269.362 81.4662 269.362 81.1552C269.362 80.9608 269.401 80.7082 269.479 80.3972C269.557 80.0862 269.615 79.7946 269.654 79.5225C269.77 78.9394 269.887 78.2008 270.004 77.3067C270.159 76.3737 270.237 75.5767 270.237 74.9159C270.237 74.566 270.315 74.2939 270.47 74.0995C270.626 73.9052 270.839 73.808 271.112 73.808C271.384 73.808 271.636 73.8663 271.87 73.9829C272.142 74.0607 272.472 74.1578 272.861 74.2745C273.25 74.43 273.677 74.5466 274.144 74.6243C274.649 74.7021 275.232 74.741 275.893 74.741H288.255C288.799 74.741 289.344 74.7215 289.888 74.6826C290.471 74.6049 290.84 74.5077 290.996 74.3911C291.229 74.1967 291.462 74.0607 291.695 73.9829C291.968 73.8663 292.143 73.808 292.22 73.808C292.376 73.808 292.531 73.9052 292.687 74.0995C292.842 74.255 292.92 74.4883 292.92 74.7993C292.92 75.188 292.881 75.6545 292.803 76.1987C292.726 76.7041 292.687 77.2289 292.687 77.7731C292.687 78.2785 292.687 78.8227 292.687 79.4059C292.726 79.9501 292.765 80.436 292.803 80.8636C292.842 81.1746 292.784 81.4856 292.628 81.7966C292.473 82.1076 292.24 82.2631 291.929 82.2631C291.657 82.2631 291.423 82.0688 291.229 81.68C291.035 81.2913 290.918 80.9608 290.879 80.6887C290.84 80.0279 290.685 79.4059 290.413 78.8227C290.179 78.2396 289.83 77.7731 289.363 77.4233C288.935 77.0345 288.391 76.8402 287.73 76.8402H284.64C284.212 76.8402 283.94 77.054 283.823 77.4816C283.746 77.8703 283.707 78.2591 283.707 78.6478V94.6251C283.707 95.3249 283.959 95.8302 284.465 96.1412C285.009 96.4134 285.651 96.666 286.389 96.8993C286.7 97.0159 286.972 97.152 287.205 97.3075C287.478 97.4241 287.614 97.6379 287.614 97.9489C287.614 98.221 287.458 98.3959 287.147 98.4737C286.875 98.5514 286.622 98.5903 286.389 98.5903C285.651 98.5903 285.009 98.5514 284.465 98.4737C283.921 98.4348 283.396 98.3959 282.89 98.3571C282.385 98.3182 281.783 98.2988 281.083 98.2988C280.422 98.2988 279.839 98.3182 279.333 98.3571C278.828 98.3959 278.303 98.4348 277.759 98.4737C277.254 98.5514 276.612 98.5903 275.835 98.5903Z" fill="#8EACCD"/>
<path d="M308.771 99.2901C306.671 99.2901 304.805 98.7652 303.173 97.7156C301.579 96.6272 300.316 95.1305 299.383 93.2257C298.45 91.2819 297.983 89.0467 297.983 86.5199C297.983 84.2263 298.508 82.1271 299.557 80.2222C300.646 78.3174 302.084 76.8013 303.873 75.6739C305.661 74.5077 307.624 73.9246 309.762 73.9246C311.356 73.9246 312.775 74.255 314.019 74.9159C315.302 75.5379 316.293 76.432 316.993 77.5982C317.731 78.7256 318.1 80.0279 318.1 81.5051C318.1 82.7879 317.498 83.4293 316.293 83.4293H304.222C303.678 83.4293 303.289 83.5848 303.056 83.8958C302.823 84.2068 302.706 84.7705 302.706 85.5869C302.706 87.2973 303.095 88.8717 303.873 90.3101C304.65 91.7096 305.68 92.8369 306.963 93.6922C308.246 94.5474 309.665 94.975 311.22 94.975C312.386 94.975 313.436 94.7612 314.369 94.3336C315.34 93.8671 316.235 93.2257 317.051 92.4093C317.168 92.2538 317.265 92.1372 317.342 92.0594C317.459 91.9817 317.576 91.9428 317.692 91.9428C318.042 91.9428 318.217 92.1566 318.217 92.5842C318.217 93.2062 317.945 93.9448 317.401 94.8001C316.857 95.6164 316.157 96.3745 315.302 97.0742C314.485 97.7351 313.513 98.2599 312.386 98.6486C311.297 99.0762 310.092 99.2901 308.771 99.2901ZM304.281 81.4468H308.946C309.956 81.4468 310.753 81.4273 311.336 81.3885C311.919 81.3496 312.464 81.2718 312.969 81.1552C313.163 81.0775 313.3 80.922 313.377 80.6887C313.455 80.4166 313.494 80.0862 313.494 79.6974C313.494 78.6089 313.047 77.6954 312.153 76.9568C311.259 76.1793 310.19 75.7906 308.946 75.7906C308.09 75.7906 307.235 76.0432 306.38 76.5486C305.564 77.054 304.883 77.6954 304.339 78.4729C303.795 79.2115 303.542 79.9695 303.581 80.747C303.581 81.2135 303.814 81.4468 304.281 81.4468Z" fill="#8EACCD"/>
<path d="M334.635 99.2901C332.652 99.2901 330.864 98.7847 329.27 97.774C327.676 96.7243 326.413 95.3054 325.48 93.5172C324.547 91.729 324.081 89.727 324.081 87.5111C324.081 84.9843 324.644 82.6907 325.772 80.6304C326.899 78.5701 328.415 76.9373 330.32 75.7322C332.225 74.5271 334.324 73.9246 336.618 73.9246C339.378 73.9246 341.749 74.7215 343.732 76.3154C344.159 76.7041 344.373 77.0734 344.373 77.4233C344.373 77.6954 344.217 78.0453 343.906 78.4729C343.634 78.8616 343.284 79.2115 342.857 79.5225C342.468 79.7946 342.099 79.9307 341.749 79.9307C341.516 79.9307 341.263 79.8529 340.991 79.6974C340.758 79.5419 340.524 79.367 340.291 79.1726C339.358 78.434 338.367 77.7926 337.317 77.2483C336.307 76.6652 335.432 76.3737 334.693 76.3737C332.944 76.3737 331.544 77.1706 330.495 78.7644C329.484 80.3194 328.979 82.5158 328.979 85.3536C328.979 87.2196 329.329 88.8717 330.028 90.3101C330.767 91.7484 331.758 92.8758 333.002 93.6922C334.285 94.5085 335.743 94.9167 337.376 94.9167C338.503 94.9167 339.475 94.7418 340.291 94.3919C341.146 94.0032 342.041 93.3617 342.973 92.4676C343.09 92.3899 343.207 92.3121 343.323 92.2344C343.479 92.1566 343.615 92.1177 343.732 92.1177C344.159 92.1177 344.373 92.4093 344.373 92.9924C344.373 93.1868 344.315 93.4395 344.198 93.7505C344.081 94.0226 343.906 94.3336 343.673 94.6835C343.129 95.4609 342.41 96.219 341.516 96.9576C340.622 97.6573 339.591 98.221 338.425 98.6486C337.259 99.0762 335.996 99.2901 334.635 99.2901Z" fill="#8EACCD"/>
<path d="M350.931 98.5903C350.736 98.5903 350.484 98.5514 350.173 98.4737C349.901 98.3959 349.764 98.2404 349.764 98.0072C349.764 97.7351 349.881 97.5407 350.114 97.4241C350.348 97.2686 350.62 97.1325 350.931 97.0159C351.592 96.7827 352.155 96.5494 352.622 96.3162C353.127 96.0829 353.38 95.5776 353.38 94.8001V78.4146C353.38 77.6371 353.205 77.1123 352.855 76.8402C352.505 76.5292 351.98 76.2765 351.281 76.0821C350.97 75.9655 350.678 75.8294 350.406 75.6739C350.173 75.5184 350.056 75.3241 350.056 75.0908C350.056 74.8576 350.192 74.7021 350.464 74.6243C350.736 74.5466 350.989 74.5077 351.222 74.5077C352.039 74.5077 352.661 74.5466 353.088 74.6243C353.555 74.6632 353.982 74.7215 354.371 74.7993C354.799 74.8381 355.362 74.8576 356.062 74.8576C356.801 74.8576 357.364 74.8381 357.753 74.7993C358.181 74.7215 358.628 74.6632 359.094 74.6243C359.561 74.5466 360.202 74.5077 361.019 74.5077C361.213 74.5077 361.446 74.5466 361.718 74.6243C362.029 74.7021 362.185 74.8576 362.185 75.0908C362.185 75.3241 362.068 75.5184 361.835 75.6739C361.602 75.8294 361.33 75.9655 361.019 76.0821C360.319 76.2765 359.755 76.5292 359.328 76.8402C358.939 77.1123 358.744 77.6371 358.744 78.4146V84.304C358.744 84.4984 358.803 84.6345 358.919 84.7122C359.075 84.7511 359.211 84.7511 359.328 84.7122C359.716 84.5178 360.319 84.3818 361.135 84.304C361.99 84.2263 362.729 84.1874 363.351 84.1874C364.09 84.1874 364.925 84.304 365.858 84.5373C366.791 84.7705 367.686 85.1593 368.541 85.7035C369.435 86.2089 370.154 86.9086 370.698 87.8027C371.281 88.6579 371.573 89.7464 371.573 91.0681C371.573 92.8952 371.087 94.3725 370.115 95.4998C369.182 96.5883 367.919 97.3852 366.325 97.8906C364.77 98.3571 363.079 98.5903 361.252 98.5903C360.513 98.5903 359.872 98.5514 359.328 98.4737C358.822 98.4348 358.317 98.4154 357.811 98.4154C357.345 98.3765 356.742 98.3571 356.004 98.3571C355.382 98.3571 354.818 98.3765 354.313 98.4154C353.807 98.4154 353.283 98.4348 352.738 98.4737C352.194 98.5514 351.592 98.5903 350.931 98.5903ZM361.427 96.7243C362.593 96.7243 363.623 96.2967 364.517 95.4415C365.45 94.5474 365.917 93.2451 365.917 91.5346C365.917 89.7075 365.509 88.3664 364.692 87.5111C363.876 86.617 362.651 86.17 361.019 86.17C360.163 86.17 359.561 86.2866 359.211 86.5199C358.978 86.6753 358.842 86.9086 358.803 87.2196C358.764 87.4917 358.744 87.7055 358.744 87.861V94.042C358.744 94.8973 359.017 95.5581 359.561 96.0246C360.144 96.4911 360.766 96.7243 361.427 96.7243Z" fill="#8EACCD"/>
<path d="M419.13 99.2901C417.147 99.2901 415.359 98.7847 413.765 97.774C412.171 96.7243 410.908 95.3054 409.975 93.5172C409.042 91.729 408.575 89.727 408.575 87.5111C408.575 84.9843 409.139 82.6907 410.266 80.6304C411.394 78.5701 412.91 76.9373 414.815 75.7322C416.719 74.5271 418.819 73.9246 421.112 73.9246C423.872 73.9246 426.244 74.7215 428.226 76.3154C428.654 76.7041 428.868 77.0734 428.868 77.4233C428.868 77.6954 428.712 78.0453 428.401 78.4729C428.129 78.8616 427.779 79.2115 427.351 79.5225C426.963 79.7946 426.593 79.9307 426.244 79.9307C426.01 79.9307 425.758 79.8529 425.485 79.6974C425.252 79.5419 425.019 79.367 424.786 79.1726C423.853 78.434 422.861 77.7926 421.812 77.2483C420.801 76.6652 419.926 76.3737 419.188 76.3737C417.439 76.3737 416.039 77.1706 414.989 78.7644C413.979 80.3194 413.473 82.5158 413.473 85.3536C413.473 87.2196 413.823 88.8717 414.523 90.3101C415.262 91.7484 416.253 92.8758 417.497 93.6922C418.78 94.5085 420.237 94.9167 421.87 94.9167C422.998 94.9167 423.969 94.7418 424.786 94.3919C425.641 94.0032 426.535 93.3617 427.468 92.4676C427.585 92.3899 427.701 92.3121 427.818 92.2344C427.973 92.1566 428.11 92.1177 428.226 92.1177C428.654 92.1177 428.868 92.4093 428.868 92.9924C428.868 93.1868 428.809 93.4395 428.693 93.7505C428.576 94.0226 428.401 94.3336 428.168 94.6835C427.624 95.4609 426.904 96.219 426.01 96.9576C425.116 97.6573 424.086 98.221 422.92 98.6486C421.754 99.0762 420.49 99.2901 419.13 99.2901Z" fill="#8EACCD"/>
<path d="M37.538 114.269C37.4165 114.633 37.1128 114.815 36.6268 114.815C35.5335 114.815 35.1691 114.33 35.5335 113.358C38.3276 108.134 42.5795 102.728 48.2891 97.1398C53.9988 91.5516 60.9233 86.6924 69.0626 82.562C77.2019 78.3101 86.2523 75.759 96.2138 74.9086C97.0642 74.7871 97.8538 74.7264 98.5827 74.7264C99.3116 74.7264 100.101 74.7264 100.952 74.7264C108.848 74.7264 114.558 76.4879 118.081 80.0108C121.604 83.4123 123.122 87.725 122.636 92.9487C122.029 100.238 119.417 106.919 114.801 112.993C110.306 119.067 104.475 124.291 97.3071 128.664C90.2612 133.038 82.5471 136.379 74.1648 138.687C65.7825 141.116 57.461 142.331 49.2002 142.331C40.4535 142.331 32.3142 140.813 24.7823 137.776C17.3719 134.86 11.3586 130.244 6.74225 123.927C2.24742 117.488 0 109.106 0 98.7798C0 97.808 0 96.8361 0 95.8643C0 94.8924 0.0607407 93.9205 0.182222 92.9487C0.911115 85.1738 3.09779 77.156 6.74225 68.8952C10.5082 60.6345 15.5497 52.7381 21.8668 45.2062C28.3053 37.6743 35.8372 30.9321 44.4624 24.9795C53.2091 19.0268 62.867 14.289 73.4359 10.7661C84.0049 7.24308 95.3634 5.48158 107.512 5.48158C115.529 5.48158 121.421 6.93937 125.187 9.85495C129.075 12.7705 131.018 16.172 131.018 20.0594C131.018 23.0965 129.864 26.255 127.556 29.535C125.248 32.6936 121.907 35.4877 117.534 37.9173C112.675 40.5899 107.329 42.7158 101.498 44.2951C95.7886 45.7529 90.2612 46.8462 84.916 47.5751C79.5708 48.1825 75.1367 48.6685 71.6137 49.0329H71.4315C71.067 49.0329 70.8848 48.8507 70.8848 48.4862C70.8848 47.8788 71.31 47.5144 72.1604 47.3929C80.1782 46.5425 88.0138 44.9633 95.6671 42.6551C103.321 40.2255 109.881 37.3706 115.347 34.0906C118.384 32.2684 120.814 30.021 122.636 27.3484C124.458 24.6758 125.37 22.0032 125.37 19.3305C125.37 16.2935 123.851 13.6816 120.814 11.4949C117.898 9.18679 112.978 8.03271 106.054 8.03271C95.4849 8.03271 85.5841 9.7942 76.3515 13.3172C67.2403 16.7187 58.9188 21.3957 51.3869 27.3484C43.9765 33.1795 37.4772 39.861 31.889 47.3929C26.4224 54.8033 22.049 62.5782 18.769 70.7175C15.6104 78.7353 13.6667 86.5709 12.9378 94.2242C12.8164 95.4391 12.6949 96.5931 12.5734 97.6865C12.5734 98.7798 12.5734 99.8732 12.5734 100.967C12.5734 110.321 14.3349 117.913 17.8579 123.744C21.3808 129.576 26.0579 133.767 31.889 136.318C37.7202 138.99 44.098 140.327 51.0225 140.327C58.1899 140.327 65.4181 139.112 72.707 136.682C79.9959 134.253 86.7989 130.912 93.116 126.66C99.4331 122.287 104.596 117.184 108.605 111.353C112.735 105.522 115.044 99.2658 115.529 92.5842C116.015 87.6035 114.679 83.6553 111.521 80.7397C108.483 77.7027 103.381 76.4879 96.2138 77.0953C86.6167 77.9456 77.87 80.436 69.9737 84.5664C62.0773 88.5753 55.3351 93.2524 49.7469 98.5976C44.2802 103.943 40.2106 109.167 37.538 114.269Z" fill="#8EACCD"/>
<path d="M454.282 148.162C452.824 147.433 451.67 146.401 450.82 145.064C450.091 143.728 449.727 142.392 449.727 141.056C449.727 139.719 450.091 138.626 450.82 137.776C451.306 137.29 451.792 136.986 452.278 136.864C452.764 136.864 452.946 137.168 452.824 137.776C452.46 139.598 453.25 141.299 455.193 142.878C457.259 144.579 459.081 145.611 460.66 145.976C461.632 146.097 462.543 146.219 463.393 146.34C464.365 146.583 465.276 146.705 466.127 146.705C469.65 146.705 473.051 146.097 476.331 144.882C480.705 143.424 485.017 140.387 489.269 135.771C493.642 131.276 497.712 126.235 501.478 120.647C505.001 115.301 508.645 108.863 512.411 101.331C516.299 93.6776 520.308 85.7812 524.438 77.6419H487.265C486.9 77.6419 486.718 77.5205 486.718 77.2775C486.718 76.6701 487.143 75.9412 487.993 75.0908C488.965 74.119 489.816 73.633 490.545 73.633H526.443C530.33 66.1011 534.4 58.8122 538.652 51.7663C542.903 44.7203 547.337 38.3425 551.954 32.6328C556.692 26.8017 561.612 22.1854 566.714 18.7839C562.098 18.2979 557.36 17.6298 552.5 16.7794C547.763 15.929 543.571 15.1394 539.927 14.4105C534.703 13.4387 529.54 12.5883 524.438 11.8594C519.457 11.1305 514.537 10.7661 509.678 10.7661C505.548 10.7661 501.539 11.1305 497.651 11.8594C493.885 12.5883 490.241 13.8031 486.718 15.5039C483.802 17.0831 481.069 19.7557 478.518 23.5217C476.088 27.1661 474.873 30.9321 474.873 34.8195C474.873 36.3988 475.116 37.9173 475.602 39.3751C476.21 40.8329 477.121 42.2299 478.336 43.5662C478.579 43.6877 478.518 43.9307 478.153 44.2951C477.91 44.5381 477.607 44.5988 477.242 44.4773C474.934 42.4121 473.233 40.104 472.14 37.5529C471.047 34.8803 470.5 32.2076 470.5 29.535C470.5 25.5261 471.472 21.7602 473.416 18.2372C475.481 14.7142 478.032 12.0416 481.069 10.2194C484.106 8.51864 487.265 7.30382 490.545 6.57493C493.946 5.84603 497.469 5.48158 501.114 5.48158C504.515 5.48158 507.977 5.72455 511.5 6.21048C515.023 6.69641 518.668 7.30382 522.434 8.03271C527.9 9.12605 533.61 10.3409 539.563 11.6772C545.637 12.892 551.407 13.9246 556.874 14.775C559.182 15.1394 561.49 15.4431 563.798 15.6861C566.228 15.929 568.597 16.1113 570.905 16.2328C574.792 14.4105 578.558 13.4994 582.203 13.4994C582.689 13.4994 583.721 13.5601 585.301 13.6816C586.88 13.8031 587.67 14.3498 587.67 15.3216C587.67 16.6579 586.698 17.6298 584.754 18.2372C582.932 18.7231 580.927 19.0268 578.741 19.1483C576.554 19.1483 574.975 19.1483 574.003 19.1483H572.181C570.723 20.1202 569.265 21.335 567.807 22.7928C566.349 24.1291 564.892 25.6476 563.434 27.3484C558.089 33.6654 553.229 40.8329 548.856 48.8507C544.483 56.8685 540.291 65.1293 536.283 73.633H580.745L582.203 71.0819C589.249 58.8122 597.024 46.9677 605.527 35.5484C614.031 24.1291 622.353 12.5883 630.492 0.926012C630.856 0.318602 631.464 0.0756374 632.314 0.197118C633.286 0.197118 633.59 0.500823 633.225 1.10823C628.366 7.4253 623.567 14.4105 618.83 22.0639C614.213 29.7173 609.84 37.4921 605.71 45.3885C601.579 53.1633 597.753 60.5737 594.23 67.6197C593.501 68.8345 592.59 70.8389 591.496 73.633H603.887C604.13 73.633 604.252 73.7545 604.252 73.9975C604.252 74.4834 603.766 75.2123 602.794 76.1842C601.944 77.156 601.154 77.6419 600.425 77.6419H589.674C588.095 81.6508 586.272 86.2064 584.207 91.3087C582.264 96.2894 580.441 101.331 578.741 106.433C577.04 111.414 575.704 115.848 574.732 119.735C574.003 122.773 573.638 125.506 573.638 127.936C573.638 131.458 574.428 134.01 576.007 135.589C577.344 136.925 579.044 137.593 581.109 137.593C583.539 137.593 586.03 136.621 588.581 134.678C591.618 132.37 594.715 129.333 597.874 125.567C601.033 121.679 603.887 117.853 606.439 114.087C608.99 110.199 610.812 107.223 611.905 105.158C612.634 104.064 613.302 103.518 613.91 103.518C614.274 103.518 614.456 103.761 614.456 104.247C614.456 104.732 614.274 105.34 613.91 106.069C612.573 108.741 610.69 112.021 608.261 115.909C605.831 119.796 603.037 123.684 599.878 127.571C596.72 131.337 593.379 134.496 589.856 137.047C588.155 138.261 586.212 139.233 584.025 139.962C581.96 140.813 579.773 141.238 577.465 141.238C574.185 141.238 571.148 140.266 568.354 138.322C564.588 135.528 562.705 130.79 562.705 124.109C562.826 116.577 564.466 108.802 567.625 100.784C570.784 92.7665 574.367 85.0523 578.376 77.6419H534.46C530.694 85.5383 526.868 93.3131 522.98 100.967C519.214 108.498 515.205 115.301 510.954 121.375C506.823 127.328 502.025 132.673 496.558 137.411C491.213 142.149 485.139 145.733 478.336 148.162C474.57 149.499 470.075 150.167 464.851 150.167C462.786 150.167 460.842 149.985 459.02 149.62C457.198 149.377 455.619 148.891 454.282 148.162Z" fill="#8EACCD"/>
<path d="M629.53 99.2317C628.713 99.2317 627.917 98.9596 627.139 98.4154C626.362 97.91 625.72 97.2686 625.215 96.4911C624.709 95.6747 624.457 94.8778 624.457 94.1003C624.457 92.8175 624.807 91.7873 625.506 91.0098C626.245 90.2323 627.372 89.5326 628.888 88.9106L634.545 86.5199C635.322 86.2089 635.789 85.9367 635.944 85.7035C636.1 85.4314 636.197 84.9066 636.236 84.1291L636.352 80.5721C636.391 79.5225 636.138 78.6478 635.594 77.9481C635.05 77.2483 634.253 76.8985 633.203 76.8985C632.659 76.8985 632.096 77.0151 631.512 77.2483C630.968 77.4427 630.521 77.676 630.171 77.9481C629.977 78.1036 629.841 78.3174 629.763 78.5895C629.724 78.8616 629.705 79.1532 629.705 79.4642C629.705 79.6585 629.705 79.8918 629.705 80.1639C629.744 80.3972 629.763 80.5915 629.763 80.747C629.763 80.9803 629.491 81.2718 628.947 81.6217C628.441 81.9327 627.839 82.2243 627.139 82.4964C626.478 82.7685 625.914 82.9045 625.448 82.9045C625.215 82.9045 625.02 82.8462 624.865 82.7296C624.748 82.5741 624.69 82.3797 624.69 82.1465C624.69 81.5245 624.884 80.8831 625.273 80.2222C625.701 79.5225 626.323 78.8228 627.139 78.123C628.072 77.3067 629.083 76.5875 630.171 75.9655C631.299 75.3046 632.387 74.7993 633.437 74.4494C634.525 74.0995 635.478 73.9246 636.294 73.9246C637.927 73.9246 639.248 74.4883 640.259 75.6156C641.309 76.7041 641.795 78.123 641.717 79.8724L641.425 93.0507C641.386 93.906 641.561 94.6057 641.95 95.1499C642.339 95.6942 642.825 95.9663 643.408 95.9663C644.302 95.9663 645.002 95.7331 645.507 95.2666C645.663 95.1111 645.799 95.0333 645.915 95.0333C646.11 95.0333 646.265 95.0916 646.382 95.2083C646.537 95.3249 646.615 95.4804 646.615 95.6747C646.615 96.1412 646.343 96.6272 645.799 97.1325C645.138 97.7934 644.419 98.2988 643.641 98.6486C642.903 99.0374 642.183 99.2317 641.484 99.2317C639.54 99.2317 637.985 98.1821 636.819 96.0829H636.644C635.361 97.1714 634.156 97.9683 633.028 98.4737C631.901 98.9791 630.735 99.2317 629.53 99.2317ZM632.562 96.0829C633.223 96.0829 633.767 95.9857 634.195 95.7914C634.661 95.5581 635.069 95.2471 635.419 94.8584C635.614 94.664 635.75 94.4308 635.827 94.1586C635.944 93.8477 636.022 93.3812 636.061 92.7592L636.177 89.4354C636.216 89.0467 636.197 88.7746 636.119 88.6191C636.041 88.4247 635.886 88.3275 635.653 88.3275C635.575 88.3275 635.458 88.3469 635.303 88.3858C635.147 88.4247 634.933 88.5024 634.661 88.6191C632.912 89.2799 631.687 89.9797 630.988 90.7183C630.288 91.418 629.938 92.1955 629.938 93.0507C629.938 94.1003 630.21 94.8778 630.754 95.3832C631.337 95.8497 631.94 96.0829 632.562 96.0829Z" fill="#8EACCD"/>
<path d="M667.437 99.2901C666.893 99.2901 666.446 98.9207 666.096 98.1821L658.516 81.3301C658.36 81.058 658.224 80.9414 658.107 80.9803C658.03 80.9803 657.952 81.1358 657.874 81.4468C657.835 81.7189 657.777 82.302 657.699 83.1961C657.621 84.0513 657.544 85.0621 657.466 86.2283C657.388 87.3556 657.31 88.5024 657.233 89.6687C657.155 90.8349 657.097 91.8651 657.058 92.7592C657.019 93.6533 656.999 94.2364 656.999 94.5085C656.999 95.4026 657.213 95.9857 657.641 96.2579C658.107 96.53 658.729 96.7827 659.507 97.0159C659.779 97.0937 660.051 97.2103 660.323 97.3658C660.634 97.4824 660.79 97.6962 660.79 98.0072C660.79 98.2404 660.654 98.3765 660.382 98.4154C660.109 98.4931 659.876 98.532 659.682 98.532C658.904 98.532 658.321 98.5126 657.932 98.4737C657.544 98.4348 657.174 98.3959 656.825 98.3571C656.475 98.3182 655.969 98.2988 655.308 98.2988C654.648 98.2988 654.103 98.3182 653.676 98.3571C653.287 98.3959 652.918 98.4348 652.568 98.4737C652.257 98.5126 651.849 98.532 651.343 98.532C651.11 98.532 650.857 98.4931 650.585 98.4154C650.352 98.3376 650.235 98.1821 650.235 97.9489C650.235 97.6768 650.391 97.4824 650.702 97.3658C651.052 97.2492 651.363 97.1325 651.635 97.0159C652.257 96.7827 652.821 96.53 653.326 96.2579C653.87 95.9469 654.181 95.4026 654.259 94.6251L655.95 79.4059C656.028 78.3563 655.814 77.5788 655.308 77.0734C654.803 76.5292 654.103 76.1599 653.209 75.9655C652.859 75.8877 652.529 75.7711 652.218 75.6156C651.946 75.4213 651.81 75.188 651.81 74.9159C651.81 74.6826 651.946 74.5466 652.218 74.5077C652.529 74.43 652.782 74.3911 652.976 74.3911C653.287 74.3911 653.715 74.4105 654.259 74.4494C654.803 74.4883 655.347 74.5271 655.892 74.566C656.475 74.6049 656.941 74.6243 657.291 74.6243C657.563 74.6243 657.971 74.6243 658.516 74.6243C659.06 74.5855 659.526 74.566 659.915 74.566C660.109 74.566 660.284 74.6632 660.44 74.8576C660.595 75.0131 660.693 75.1491 660.731 75.2658L668.487 91.1265C668.642 91.4763 668.778 91.6707 668.895 91.7096C669.05 91.7096 669.206 91.5541 669.361 91.2431L675.368 77.8898C675.64 77.19 675.912 76.4903 676.184 75.7906C676.456 75.0908 676.728 74.741 677 74.741H678.925C679.974 74.741 681.024 74.6826 682.073 74.566C683.162 74.4494 683.881 74.3911 684.231 74.3911C684.503 74.3911 684.756 74.43 684.989 74.5077C685.261 74.5855 685.397 74.741 685.397 74.9742C685.397 75.2463 685.261 75.4601 684.989 75.6156C684.717 75.7322 684.445 75.8294 684.173 75.9072C683.473 76.1016 682.831 76.4125 682.248 76.8402C681.665 77.2678 681.393 77.9286 681.432 78.8227C681.471 80.4943 681.51 81.9716 681.549 83.2544C681.626 84.4984 681.704 85.6841 681.782 86.8114C681.86 87.9388 681.937 89.1244 682.015 90.3684C682.132 91.6124 682.229 93.0507 682.307 94.6835C682.346 95.4221 682.637 95.9469 683.181 96.2579C683.764 96.53 684.367 96.7827 684.989 97.0159C685.261 97.0937 685.533 97.2103 685.805 97.3658C686.077 97.4824 686.214 97.6962 686.214 98.0072C686.214 98.2404 686.077 98.3765 685.805 98.4154C685.572 98.4931 685.358 98.532 685.164 98.532C684.464 98.532 683.803 98.5126 683.181 98.4737C682.598 98.4348 682.015 98.3959 681.432 98.3571C680.888 98.3182 680.285 98.2988 679.624 98.2988C678.963 98.2988 678.361 98.3182 677.817 98.3571C677.272 98.3959 676.709 98.4348 676.126 98.4737C675.581 98.5126 674.94 98.532 674.201 98.532C674.007 98.532 673.774 98.4931 673.502 98.4154C673.268 98.3765 673.152 98.2404 673.152 98.0072C673.152 97.6962 673.268 97.4824 673.502 97.3658C673.774 97.2103 674.046 97.0937 674.318 97.0159C675.095 96.7827 675.717 96.5494 676.184 96.3162C676.65 96.0441 676.884 95.5192 676.884 94.7418C676.845 93.1868 676.787 91.2236 676.709 88.8523C676.631 86.481 676.514 84.0708 676.359 81.6217C676.359 81.2718 676.281 81.1358 676.126 81.2135C676.009 81.2524 675.873 81.4273 675.717 81.7383L668.545 98.2404C668.234 98.9402 667.865 99.2901 667.437 99.2901Z" fill="#8EACCD"/>
<path d="M692.371 98.5903C692.138 98.5903 691.885 98.5514 691.613 98.4737C691.341 98.3959 691.205 98.221 691.205 97.9489C691.205 97.6379 691.341 97.4046 691.613 97.2491C691.924 97.0937 692.235 96.9576 692.546 96.841C693.129 96.6466 693.654 96.4328 694.121 96.1995C694.626 95.9274 694.879 95.4026 694.879 94.6251V78.4729C694.879 77.6954 694.645 77.1706 694.179 76.8985C693.751 76.5875 693.246 76.3542 692.663 76.1987C692.352 76.0821 692.041 75.9461 691.73 75.7906C691.458 75.6351 691.322 75.4018 691.322 75.0908C691.322 74.8576 691.458 74.7021 691.73 74.6243C692.041 74.5466 692.294 74.5077 692.488 74.5077C693.265 74.5077 693.907 74.5271 694.412 74.566C694.956 74.6049 695.462 74.6632 695.928 74.741C696.395 74.7798 696.958 74.7993 697.619 74.7993C698.319 74.7993 698.883 74.7798 699.31 74.741C699.738 74.6632 700.185 74.6049 700.652 74.566C701.157 74.5271 701.798 74.5077 702.576 74.5077C702.77 74.5077 703.003 74.5466 703.275 74.6243C703.548 74.7021 703.684 74.8576 703.684 75.0908C703.684 75.3629 703.548 75.5962 703.275 75.7906C703.003 75.9461 702.712 76.0821 702.401 76.1987C701.818 76.3931 701.312 76.6264 700.885 76.8985C700.457 77.1706 700.243 77.6954 700.243 78.4729V89.4937C700.243 89.727 700.321 89.8825 700.477 89.9602C700.632 90.038 700.768 90.0185 700.885 89.9019L710.973 79.1143C711.089 78.9588 711.167 78.8422 711.206 78.7644C711.284 78.6867 711.322 78.5506 711.322 78.3563C711.322 77.5788 711.128 77.0734 710.739 76.8402C710.389 76.568 709.923 76.3542 709.34 76.1987C709.029 76.0821 708.737 75.9461 708.465 75.7906C708.193 75.6351 708.057 75.4018 708.057 75.0908C708.057 74.8576 708.174 74.7021 708.407 74.6243C708.679 74.5466 708.932 74.5077 709.165 74.5077C709.942 74.5077 710.564 74.5271 711.031 74.566C711.536 74.6049 712.003 74.6632 712.43 74.741C712.897 74.7798 713.461 74.7993 714.121 74.7993C714.821 74.7993 715.385 74.7798 715.812 74.741C716.279 74.6632 716.765 74.6049 717.27 74.566C717.776 74.5271 718.417 74.5077 719.195 74.5077C719.428 74.5077 719.661 74.5466 719.894 74.6243C720.166 74.7021 720.302 74.8576 720.302 75.0908C720.302 75.4018 720.166 75.6351 719.894 75.7906C719.622 75.9461 719.331 76.0821 719.02 76.1987C718.436 76.3542 717.892 76.5875 717.387 76.8985C716.92 77.1706 716.687 77.6954 716.687 78.4729V94.6251C716.687 95.4026 716.94 95.9274 717.445 96.1995C717.989 96.4328 718.553 96.6466 719.136 96.841C719.447 96.9576 719.739 97.0937 720.011 97.2491C720.283 97.4046 720.419 97.6379 720.419 97.9489C720.419 98.221 720.283 98.3959 720.011 98.4737C719.739 98.5514 719.506 98.5903 719.311 98.5903C718.534 98.5903 717.873 98.5514 717.329 98.4737C716.823 98.4348 716.318 98.3959 715.812 98.3571C715.346 98.3182 714.763 98.2988 714.063 98.2988C713.402 98.2988 712.819 98.3182 712.314 98.3571C711.847 98.3959 711.342 98.4348 710.798 98.4737C710.292 98.5514 709.651 98.5903 708.873 98.5903C708.679 98.5903 708.446 98.5514 708.174 98.4737C707.902 98.3959 707.765 98.221 707.765 97.9489C707.765 97.6379 707.902 97.4046 708.174 97.2491C708.446 97.0937 708.737 96.9576 709.048 96.841C709.631 96.6466 710.156 96.4328 710.623 96.1995C711.089 95.9274 711.322 95.4026 711.322 94.6251V82.613C711.322 82.4186 711.284 82.302 711.206 82.2631C711.167 82.1854 711.109 82.2048 711.031 82.3214L700.593 93.6338C700.36 93.8671 700.243 94.1975 700.243 94.6251C700.243 95.4415 700.496 95.9663 701.001 96.1995C701.507 96.4328 702.051 96.6466 702.634 96.841C702.945 96.9576 703.237 97.0937 703.509 97.2491C703.781 97.4046 703.917 97.6379 703.917 97.9489C703.917 98.1821 703.781 98.3376 703.509 98.4154C703.237 98.532 703.003 98.5903 702.809 98.5903C702.032 98.5903 701.371 98.5514 700.826 98.4737C700.321 98.4348 699.835 98.3959 699.369 98.3571C698.902 98.3182 698.319 98.2988 697.619 98.2988C696.958 98.2988 696.375 98.3182 695.87 98.3571C695.365 98.3959 694.84 98.4348 694.296 98.4737C693.79 98.5514 693.149 98.5903 692.371 98.5903Z" fill="#8EACCD"/>
</svg>
