<svg width="663" height="150" viewBox="0 0 663 150" fill="none" xmlns="http://www.w3.org/2000/svg">
<path d="M118.552 114.676C117.697 114.676 116.781 114.584 115.803 114.401C114.857 114.218 114.002 113.943 113.239 113.576C112.506 113.21 112.063 112.752 111.91 112.202C111.788 111.561 111.712 111.027 111.681 110.599C111.651 110.172 111.635 109.698 111.635 109.179C111.635 108.386 111.864 107.989 112.322 107.989C112.445 107.989 112.582 108.141 112.735 108.447C112.918 108.721 113.071 109.027 113.193 109.363C113.59 110.309 114.048 111.042 114.567 111.561C115.086 112.08 115.635 112.447 116.216 112.66C116.796 112.874 117.361 112.981 117.91 112.981C118.979 112.981 119.864 112.645 120.567 111.973C121.3 111.271 121.666 110.279 121.666 108.996C121.666 108.05 121.468 107.179 121.071 106.385C120.704 105.592 120.063 105.195 119.147 105.195C118.842 105.195 118.521 105.256 118.185 105.378C117.88 105.469 117.483 105.515 116.994 105.515C116.658 105.515 116.307 105.439 115.941 105.286C115.574 105.103 115.391 104.798 115.391 104.37C115.391 103.943 115.559 103.637 115.895 103.454C116.231 103.271 116.674 103.179 117.223 103.179C117.529 103.179 117.834 103.225 118.139 103.317C118.445 103.378 118.826 103.408 119.284 103.408C119.895 103.408 120.429 103.134 120.887 102.584C121.376 102.034 121.62 101.302 121.62 100.385C121.62 99.7137 121.498 99.1031 121.254 98.5534C121.04 97.9733 120.704 97.5153 120.246 97.1794C119.788 96.813 119.193 96.6298 118.46 96.6298C117.605 96.6298 116.857 96.874 116.216 97.3626C115.574 97.8206 114.964 98.5229 114.384 99.4695C114.139 99.8664 113.926 100.324 113.742 100.844C113.59 101.363 113.361 101.622 113.055 101.622C112.781 101.622 112.628 101.531 112.597 101.347C112.567 101.134 112.552 100.874 112.552 100.569C112.552 99.9886 112.567 99.5458 112.597 99.2405C112.658 98.9351 112.735 98.4618 112.826 97.8206C112.857 97.5763 112.918 97.3168 113.01 97.042C113.132 96.7672 113.3 96.584 113.513 96.4924C114.093 96.2481 114.872 95.958 115.849 95.6221C116.857 95.2557 117.941 95.0725 119.101 95.0725C121.086 95.0725 122.719 95.4695 124.002 96.2634C125.284 97.0573 125.926 98.2176 125.926 99.7443C125.926 100.63 125.758 101.347 125.422 101.897C125.086 102.447 124.658 102.889 124.139 103.225C123.62 103.561 123.071 103.836 122.49 104.05C122.368 104.08 122.292 104.141 122.261 104.233C122.261 104.294 122.338 104.355 122.49 104.416C123.529 104.66 124.475 105.103 125.33 105.744C126.185 106.385 126.613 107.378 126.613 108.721C126.613 109.882 126.322 110.844 125.742 111.607C125.193 112.37 124.49 112.981 123.635 113.439C122.811 113.897 121.941 114.218 121.025 114.401C120.109 114.584 119.284 114.676 118.552 114.676Z" fill="#8EACCD"/>
<path d="M132.268 114.355C132.085 114.355 131.871 114.324 131.627 114.263C131.383 114.202 131.261 114.065 131.261 113.851C131.261 113.607 131.368 113.424 131.581 113.302C131.826 113.179 132.07 113.073 132.314 112.981C132.772 112.828 133.184 112.66 133.551 112.477C133.948 112.263 134.146 111.851 134.146 111.24V98.5534C134.146 97.9427 133.978 97.5305 133.642 97.3168C133.307 97.0725 132.91 96.8893 132.452 96.7672C132.207 96.6756 131.963 96.5687 131.719 96.4466C131.505 96.3244 131.398 96.1412 131.398 95.897C131.398 95.6832 131.52 95.5611 131.765 95.5305C132.009 95.4695 132.223 95.4389 132.406 95.4389C133.016 95.4389 133.505 95.4542 133.871 95.4847C134.268 95.5153 134.65 95.5611 135.016 95.6221C135.383 95.6527 135.826 95.6679 136.345 95.6679C136.894 95.6679 137.322 95.6527 137.627 95.6221C137.963 95.5611 138.314 95.5153 138.681 95.4847C139.047 95.4542 139.52 95.4389 140.1 95.4389C140.284 95.4389 140.482 95.4695 140.696 95.5305C140.94 95.5916 141.062 95.7138 141.062 95.897C141.062 96.1107 140.955 96.2939 140.742 96.4466C140.528 96.5687 140.299 96.6756 140.055 96.7672C139.597 96.9198 139.2 97.1031 138.864 97.3168C138.528 97.5305 138.36 97.9427 138.36 98.5534V103.088C138.36 103.332 138.452 103.5 138.635 103.592C138.818 103.653 138.986 103.683 139.139 103.683H146.192C146.375 103.683 146.528 103.637 146.65 103.546C146.772 103.454 146.833 103.271 146.833 102.996V98.5534C146.833 97.9427 146.681 97.5305 146.375 97.3168C146.07 97.1031 145.688 96.9198 145.23 96.7672C144.986 96.6756 144.757 96.5687 144.543 96.4466C144.329 96.3244 144.223 96.1412 144.223 95.897C144.223 95.6832 144.329 95.5611 144.543 95.5305C144.757 95.4695 144.971 95.4389 145.184 95.4389C145.795 95.4389 146.284 95.4542 146.65 95.4847C147.016 95.5153 147.368 95.5611 147.703 95.6221C148.039 95.6527 148.467 95.6679 148.986 95.6679C149.536 95.6679 149.978 95.6527 150.314 95.6221C150.681 95.5611 151.047 95.5153 151.413 95.4847C151.81 95.4542 152.299 95.4389 152.879 95.4389C153.093 95.4389 153.307 95.4695 153.52 95.5305C153.734 95.5611 153.841 95.6832 153.841 95.897C153.841 96.1412 153.734 96.3397 153.52 96.4924C153.307 96.6145 153.078 96.7061 152.833 96.7672C152.375 96.8893 151.948 97.0725 151.551 97.3168C151.184 97.5305 151.001 97.9427 151.001 98.5534V111.24C151.001 111.851 151.2 112.263 151.597 112.477C152.024 112.66 152.467 112.828 152.925 112.981C153.169 113.073 153.398 113.179 153.612 113.302C153.826 113.424 153.932 113.607 153.932 113.851C153.932 114.065 153.81 114.202 153.566 114.263C153.352 114.324 153.154 114.355 152.971 114.355C152.39 114.355 151.887 114.324 151.459 114.263C151.062 114.233 150.681 114.202 150.314 114.172C149.948 114.141 149.49 114.126 148.94 114.126C148.421 114.126 147.978 114.141 147.612 114.172C147.245 114.202 146.864 114.233 146.467 114.263C146.07 114.324 145.566 114.355 144.955 114.355C144.772 114.355 144.558 114.324 144.314 114.263C144.1 114.202 143.994 114.065 143.994 113.851C143.994 113.607 144.1 113.424 144.314 113.302C144.528 113.179 144.757 113.073 145.001 112.981C145.459 112.859 145.871 112.691 146.238 112.477C146.635 112.263 146.833 111.851 146.833 111.24V106.019C146.833 105.744 146.772 105.576 146.65 105.515C146.558 105.454 146.421 105.424 146.238 105.424H138.91C138.757 105.424 138.619 105.469 138.497 105.561C138.406 105.622 138.36 105.79 138.36 106.065V111.24C138.36 111.882 138.558 112.294 138.955 112.477C139.383 112.66 139.81 112.828 140.238 112.981C140.482 113.073 140.711 113.179 140.925 113.302C141.139 113.424 141.245 113.607 141.245 113.851C141.245 114.065 141.123 114.202 140.879 114.263C140.665 114.324 140.467 114.355 140.284 114.355C139.703 114.355 139.215 114.324 138.818 114.263C138.421 114.233 138.039 114.202 137.673 114.172C137.337 114.141 136.894 114.126 136.345 114.126C135.826 114.126 135.368 114.141 134.971 114.172C134.574 114.202 134.177 114.233 133.78 114.263C133.383 114.324 132.879 114.355 132.268 114.355Z" fill="#8EACCD"/>
<path d="M162.819 114.859C162.177 114.859 161.551 114.645 160.941 114.218C160.33 113.821 159.826 113.317 159.429 112.706C159.032 112.065 158.834 111.439 158.834 110.828C158.834 109.821 159.109 109.011 159.658 108.401C160.239 107.79 161.124 107.24 162.315 106.752L166.758 104.874C167.368 104.63 167.735 104.416 167.857 104.233C167.979 104.019 168.055 103.607 168.086 102.996L168.177 100.202C168.208 99.3779 168.01 98.6908 167.582 98.1412C167.155 97.5916 166.529 97.3168 165.704 97.3168C165.277 97.3168 164.834 97.4084 164.376 97.5916C163.948 97.7443 163.597 97.9275 163.322 98.1412C163.17 98.2634 163.063 98.4313 163.002 98.645C162.971 98.8588 162.956 99.0878 162.956 99.3321C162.956 99.4847 162.956 99.6679 162.956 99.8817C162.987 100.065 163.002 100.218 163.002 100.34C163.002 100.523 162.788 100.752 162.361 101.027C161.964 101.271 161.49 101.5 160.941 101.714C160.422 101.927 159.979 102.034 159.613 102.034C159.429 102.034 159.277 101.989 159.155 101.897C159.063 101.775 159.017 101.622 159.017 101.439C159.017 100.95 159.17 100.447 159.475 99.9275C159.811 99.3779 160.3 98.8282 160.941 98.2786C161.674 97.6374 162.468 97.0725 163.322 96.584C164.208 96.0649 165.063 95.6679 165.887 95.3931C166.742 95.1183 167.49 94.9809 168.132 94.9809C169.414 94.9809 170.452 95.4237 171.246 96.3092C172.071 97.1641 172.452 98.2786 172.391 99.6527L172.162 110.004C172.132 110.676 172.269 111.225 172.574 111.653C172.88 112.08 173.261 112.294 173.719 112.294C174.422 112.294 174.971 112.111 175.368 111.744C175.49 111.622 175.597 111.561 175.689 111.561C175.842 111.561 175.964 111.607 176.055 111.698C176.177 111.79 176.239 111.912 176.239 112.065C176.239 112.431 176.025 112.813 175.597 113.21C175.078 113.729 174.513 114.126 173.903 114.401C173.322 114.706 172.758 114.859 172.208 114.859C170.681 114.859 169.46 114.034 168.544 112.385H168.406C167.399 113.24 166.452 113.866 165.567 114.263C164.681 114.66 163.765 114.859 162.819 114.859ZM165.2 112.385C165.719 112.385 166.147 112.309 166.483 112.156C166.849 111.973 167.17 111.729 167.445 111.424C167.597 111.271 167.704 111.088 167.765 110.874C167.857 110.63 167.918 110.263 167.948 109.775L168.04 107.164C168.071 106.859 168.055 106.645 167.994 106.523C167.933 106.37 167.811 106.294 167.628 106.294C167.567 106.294 167.475 106.309 167.353 106.34C167.231 106.37 167.063 106.431 166.849 106.523C165.475 107.042 164.513 107.592 163.964 108.172C163.414 108.721 163.139 109.332 163.139 110.004C163.139 110.828 163.353 111.439 163.781 111.836C164.239 112.202 164.712 112.385 165.2 112.385Z" fill="#8EACCD"/>
<path d="M180.502 114.355C180.319 114.355 180.12 114.324 179.907 114.263C179.693 114.202 179.586 114.065 179.586 113.851C179.586 113.607 179.693 113.424 179.907 113.302C180.151 113.179 180.395 113.073 180.639 112.981C181.097 112.828 181.51 112.66 181.876 112.477C182.273 112.263 182.471 111.851 182.471 111.24V98.5534C182.471 97.9427 182.288 97.5305 181.922 97.3168C181.586 97.0725 181.189 96.8893 180.731 96.7672C180.487 96.6756 180.242 96.5687 179.998 96.4466C179.784 96.3244 179.678 96.1412 179.678 95.897C179.678 95.7138 179.784 95.5916 179.998 95.5305C180.242 95.4695 180.441 95.4389 180.594 95.4389C181.204 95.4389 181.708 95.4542 182.105 95.4847C182.533 95.5153 182.929 95.5611 183.296 95.6221C183.662 95.6527 184.105 95.6679 184.624 95.6679C185.174 95.6679 185.616 95.6527 185.952 95.6221C186.288 95.5611 186.639 95.5153 187.006 95.4847C187.403 95.4542 187.907 95.4389 188.517 95.4389C188.67 95.4389 188.853 95.4695 189.067 95.5305C189.281 95.5916 189.387 95.7138 189.387 95.897C189.387 96.1107 189.281 96.2939 189.067 96.4466C188.853 96.5687 188.624 96.6756 188.38 96.7672C187.922 96.9198 187.525 97.1031 187.189 97.3168C186.853 97.5305 186.685 97.9427 186.685 98.5534V107.21C186.685 107.393 186.746 107.515 186.868 107.576C186.991 107.637 187.097 107.622 187.189 107.531L195.113 99.0573C195.204 98.9351 195.265 98.8435 195.296 98.7824C195.357 98.7214 195.387 98.6145 195.387 98.4618C195.387 97.8512 195.235 97.4542 194.929 97.271C194.655 97.0573 194.288 96.8893 193.83 96.7672C193.586 96.6756 193.357 96.5687 193.143 96.4466C192.929 96.3244 192.823 96.1412 192.823 95.897C192.823 95.7138 192.914 95.5916 193.097 95.5305C193.311 95.4695 193.51 95.4389 193.693 95.4389C194.304 95.4389 194.792 95.4542 195.158 95.4847C195.555 95.5153 195.922 95.5611 196.258 95.6221C196.624 95.6527 197.067 95.6679 197.586 95.6679C198.136 95.6679 198.578 95.6527 198.914 95.6221C199.281 95.5611 199.662 95.5153 200.059 95.4847C200.456 95.4542 200.96 95.4389 201.571 95.4389C201.754 95.4389 201.937 95.4695 202.12 95.5305C202.334 95.5916 202.441 95.7138 202.441 95.897C202.441 96.1412 202.334 96.3244 202.12 96.4466C201.907 96.5687 201.678 96.6756 201.433 96.7672C200.975 96.8893 200.548 97.0725 200.151 97.3168C199.784 97.5305 199.601 97.9427 199.601 98.5534V111.24C199.601 111.851 199.8 112.263 200.197 112.477C200.624 112.66 201.067 112.828 201.525 112.981C201.769 113.073 201.998 113.179 202.212 113.302C202.426 113.424 202.533 113.607 202.533 113.851C202.533 114.065 202.426 114.202 202.212 114.263C201.998 114.324 201.815 114.355 201.662 114.355C201.052 114.355 200.533 114.324 200.105 114.263C199.708 114.233 199.311 114.202 198.914 114.172C198.548 114.141 198.09 114.126 197.54 114.126C197.021 114.126 196.563 114.141 196.166 114.172C195.8 114.202 195.403 114.233 194.975 114.263C194.578 114.324 194.075 114.355 193.464 114.355C193.311 114.355 193.128 114.324 192.914 114.263C192.7 114.202 192.594 114.065 192.594 113.851C192.594 113.607 192.7 113.424 192.914 113.302C193.128 113.179 193.357 113.073 193.601 112.981C194.059 112.828 194.471 112.66 194.838 112.477C195.204 112.263 195.387 111.851 195.387 111.24V101.805C195.387 101.653 195.357 101.561 195.296 101.531C195.265 101.469 195.22 101.485 195.158 101.576L186.96 110.462C186.777 110.645 186.685 110.905 186.685 111.24C186.685 111.882 186.884 112.294 187.281 112.477C187.678 112.66 188.105 112.828 188.563 112.981C188.807 113.073 189.036 113.179 189.25 113.302C189.464 113.424 189.571 113.607 189.571 113.851C189.571 114.034 189.464 114.156 189.25 114.218C189.036 114.309 188.853 114.355 188.7 114.355C188.09 114.355 187.571 114.324 187.143 114.263C186.746 114.233 186.365 114.202 185.998 114.172C185.632 114.141 185.174 114.126 184.624 114.126C184.105 114.126 183.647 114.141 183.25 114.172C182.853 114.202 182.441 114.233 182.013 114.263C181.616 114.324 181.113 114.355 180.502 114.355ZM190.945 92.5992C189.876 92.5992 188.914 92.4313 188.059 92.0954C187.235 91.729 186.578 91.2252 186.09 90.584C185.632 89.9122 185.403 89.1641 185.403 88.3397C185.403 87.4847 185.586 86.8435 185.952 86.416C186.319 85.958 186.762 85.729 187.281 85.729C187.83 85.729 188.227 85.8664 188.471 86.1412C188.746 86.3855 188.884 86.7061 188.884 87.1031C188.884 87.3779 188.868 87.6221 188.838 87.8359C188.838 88.0191 188.838 88.2328 188.838 88.4771C188.838 89.0267 189.113 89.5 189.662 89.8969C190.242 90.2634 190.929 90.4466 191.723 90.4466C192.426 90.4466 193.128 90.2176 193.83 89.7595C194.563 89.3015 195.128 88.4924 195.525 87.3321C195.708 86.8435 195.846 86.5382 195.937 86.416C196.029 86.2634 196.151 86.187 196.304 86.187C196.548 86.187 196.67 86.4313 196.67 86.9199C196.67 88.1107 196.395 89.1336 195.846 89.9885C195.326 90.813 194.624 91.4542 193.739 91.9122C192.884 92.3702 191.952 92.5992 190.945 92.5992Z" fill="#8EACCD"/>
<path d="M211.456 114.355C211.273 114.355 211.059 114.324 210.815 114.263C210.601 114.202 210.494 114.08 210.494 113.897C210.494 113.653 210.586 113.469 210.769 113.347C210.983 113.225 211.212 113.118 211.456 113.027C212.006 112.844 212.479 112.645 212.876 112.431C213.273 112.218 213.471 111.805 213.471 111.195L213.425 98.6908C213.425 98.3855 213.395 98.0802 213.334 97.7748C213.273 97.4389 213.105 97.271 212.83 97.271H210.494C210.067 97.271 209.7 97.4084 209.395 97.6832C209.09 97.9275 208.815 98.2786 208.57 98.7366C208.357 99.1641 208.158 99.6832 207.975 100.294C207.914 100.538 207.792 100.813 207.609 101.118C207.425 101.393 207.196 101.531 206.922 101.531C206.769 101.531 206.632 101.454 206.509 101.302C206.418 101.118 206.372 100.905 206.372 100.66C206.372 100.508 206.403 100.309 206.464 100.065C206.525 99.8206 206.57 99.5916 206.601 99.3779C206.693 98.9199 206.784 98.3397 206.876 97.6374C206.998 96.9046 207.059 96.2786 207.059 95.7596C207.059 95.4847 207.12 95.271 207.242 95.1183C207.364 94.9656 207.532 94.8893 207.746 94.8893C207.96 94.8893 208.158 94.9351 208.341 95.0267C208.555 95.0878 208.815 95.1641 209.12 95.2557C209.425 95.3779 209.761 95.4695 210.128 95.5305C210.525 95.5916 210.983 95.6221 211.502 95.6221H221.212C221.639 95.6221 222.067 95.6069 222.494 95.5763C222.952 95.5153 223.242 95.4389 223.364 95.3473C223.548 95.1947 223.731 95.0878 223.914 95.0267C224.128 94.9351 224.265 94.8893 224.326 94.8893C224.448 94.8893 224.57 94.9656 224.693 95.1183C224.815 95.2405 224.876 95.4237 224.876 95.6679C224.876 95.9733 224.845 96.3397 224.784 96.7672C224.723 97.1641 224.693 97.5763 224.693 98.0038C224.693 98.4008 224.693 98.8282 224.693 99.2863C224.723 99.7137 224.754 100.095 224.784 100.431C224.815 100.676 224.769 100.92 224.647 101.164C224.525 101.408 224.341 101.531 224.097 101.531C223.883 101.531 223.7 101.378 223.548 101.073C223.395 100.767 223.303 100.508 223.273 100.294C223.242 99.7748 223.12 99.2863 222.906 98.8282C222.723 98.3702 222.448 98.0038 222.082 97.729C221.746 97.4237 221.319 97.271 220.799 97.271H218.372C218.036 97.271 217.822 97.4389 217.731 97.7748C217.67 98.0802 217.639 98.3855 217.639 98.6908V111.24C217.639 111.79 217.838 112.187 218.235 112.431C218.662 112.645 219.166 112.844 219.746 113.027C219.99 113.118 220.204 113.225 220.387 113.347C220.601 113.439 220.708 113.607 220.708 113.851C220.708 114.065 220.586 114.202 220.341 114.263C220.128 114.324 219.929 114.355 219.746 114.355C219.166 114.355 218.662 114.324 218.235 114.263C217.807 114.233 217.395 114.202 216.998 114.172C216.601 114.141 216.128 114.126 215.578 114.126C215.059 114.126 214.601 114.141 214.204 114.172C213.807 114.202 213.395 114.233 212.967 114.263C212.57 114.324 212.067 114.355 211.456 114.355Z" fill="#8EACCD"/>
<path d="M237.326 114.905C235.677 114.905 234.211 114.492 232.929 113.668C231.677 112.813 230.685 111.637 229.952 110.141C229.219 108.615 228.853 106.859 228.853 104.874C228.853 103.073 229.265 101.424 230.089 99.9275C230.944 98.4313 232.074 97.2405 233.479 96.355C234.883 95.4389 236.425 94.9809 238.105 94.9809C239.356 94.9809 240.471 95.2405 241.448 95.7596C242.456 96.2481 243.234 96.9504 243.784 97.8664C244.364 98.7519 244.654 99.7748 244.654 100.935C244.654 101.943 244.181 102.447 243.234 102.447H233.753C233.326 102.447 233.021 102.569 232.837 102.813C232.654 103.057 232.563 103.5 232.563 104.141C232.563 105.485 232.868 106.721 233.479 107.851C234.089 108.95 234.898 109.836 235.906 110.508C236.914 111.179 238.028 111.515 239.25 111.515C240.166 111.515 240.99 111.347 241.723 111.011C242.486 110.645 243.189 110.141 243.83 109.5C243.921 109.378 243.998 109.286 244.059 109.225C244.15 109.164 244.242 109.134 244.334 109.134C244.608 109.134 244.746 109.302 244.746 109.637C244.746 110.126 244.532 110.706 244.105 111.378C243.677 112.019 243.127 112.615 242.456 113.164C241.814 113.683 241.051 114.095 240.166 114.401C239.311 114.737 238.364 114.905 237.326 114.905ZM233.799 100.889H237.463C238.257 100.889 238.883 100.874 239.341 100.844C239.799 100.813 240.227 100.752 240.624 100.66C240.776 100.599 240.883 100.477 240.944 100.294C241.005 100.08 241.036 99.8206 241.036 99.5153C241.036 98.6603 240.685 97.9427 239.982 97.3626C239.28 96.7519 238.44 96.4466 237.463 96.4466C236.792 96.4466 236.12 96.645 235.448 97.042C234.807 97.4389 234.273 97.9427 233.845 98.5534C233.418 99.1336 233.219 99.729 233.25 100.34C233.25 100.706 233.433 100.889 233.799 100.889Z" fill="#8EACCD"/>
<path d="M271.049 114.859C269.308 114.859 267.721 114.462 266.285 113.668C264.881 112.844 263.766 111.729 262.942 110.324C262.117 108.92 261.705 107.317 261.705 105.515C261.705 104.172 261.965 102.874 262.484 101.622C263.003 100.37 263.736 99.2405 264.682 98.2328C265.629 97.2252 266.728 96.4313 267.98 95.8511C269.232 95.2405 270.575 94.9351 272.011 94.9351C273.812 94.9351 275.446 95.3779 276.911 96.2634C278.377 97.1183 279.537 98.2481 280.392 99.6527C281.247 101.057 281.675 102.599 281.675 104.279C281.675 106.111 281.278 107.836 280.484 109.454C279.69 111.073 278.499 112.386 276.911 113.393C275.354 114.37 273.4 114.859 271.049 114.859ZM272.011 113.256C272.896 113.256 273.69 113.088 274.392 112.752C275.095 112.386 275.644 111.836 276.041 111.103C276.408 110.401 276.652 109.546 276.774 108.538C276.927 107.5 277.003 106.447 277.003 105.378C277.003 103.851 276.759 102.416 276.27 101.073C275.782 99.729 275.11 98.645 274.255 97.8206C273.4 96.9962 272.392 96.584 271.232 96.584C270.53 96.584 269.888 96.7061 269.308 96.9504C268.759 97.1641 268.255 97.5458 267.797 98.0954C267.217 98.7977 266.835 99.7137 266.652 100.844C266.469 101.943 266.377 103.149 266.377 104.462C266.377 105.927 266.621 107.332 267.11 108.676C267.598 110.019 268.255 111.118 269.079 111.973C269.934 112.828 270.911 113.256 272.011 113.256Z" fill="#8EACCD"/>
<path d="M299.489 114.355C299.305 114.355 299.092 114.324 298.847 114.263C298.603 114.202 298.481 114.065 298.481 113.851C298.481 113.607 298.588 113.424 298.802 113.302C299.046 113.179 299.29 113.073 299.534 112.981C299.992 112.828 300.405 112.66 300.771 112.477C301.168 112.263 301.366 111.851 301.366 111.24V98.5534C301.366 97.9427 301.199 97.5305 300.863 97.3168C300.527 97.0725 300.13 96.8893 299.672 96.7672C299.428 96.6756 299.183 96.5687 298.939 96.4466C298.725 96.3244 298.618 96.1412 298.618 95.897C298.618 95.6832 298.741 95.5611 298.985 95.5305C299.229 95.4695 299.443 95.4389 299.626 95.4389C300.237 95.4389 300.725 95.4542 301.092 95.4847C301.489 95.5153 301.87 95.5611 302.237 95.6221C302.603 95.6527 303.046 95.6679 303.565 95.6679C304.115 95.6679 304.542 95.6527 304.847 95.6221C305.183 95.5611 305.534 95.5153 305.901 95.4847C306.267 95.4542 306.741 95.4389 307.321 95.4389C307.504 95.4389 307.702 95.4695 307.916 95.5305C308.16 95.5916 308.283 95.7138 308.283 95.897C308.283 96.1107 308.176 96.2939 307.962 96.4466C307.748 96.5687 307.519 96.6756 307.275 96.7672C306.817 96.9198 306.42 97.1031 306.084 97.3168C305.748 97.5305 305.58 97.9427 305.58 98.5534V103.088C305.58 103.332 305.672 103.5 305.855 103.592C306.038 103.653 306.206 103.683 306.359 103.683H313.412C313.595 103.683 313.748 103.637 313.87 103.546C313.992 103.454 314.054 103.271 314.054 102.996V98.5534C314.054 97.9427 313.901 97.5305 313.595 97.3168C313.29 97.1031 312.908 96.9198 312.45 96.7672C312.206 96.6756 311.977 96.5687 311.763 96.4466C311.55 96.3244 311.443 96.1412 311.443 95.897C311.443 95.6832 311.55 95.5611 311.763 95.5305C311.977 95.4695 312.191 95.4389 312.405 95.4389C313.015 95.4389 313.504 95.4542 313.87 95.4847C314.237 95.5153 314.588 95.5611 314.924 95.6221C315.26 95.6527 315.687 95.6679 316.206 95.6679C316.756 95.6679 317.199 95.6527 317.534 95.6221C317.901 95.5611 318.267 95.5153 318.634 95.4847C319.031 95.4542 319.519 95.4389 320.099 95.4389C320.313 95.4389 320.527 95.4695 320.741 95.5305C320.954 95.5611 321.061 95.6832 321.061 95.897C321.061 96.1412 320.954 96.3397 320.741 96.4924C320.527 96.6145 320.298 96.7061 320.054 96.7672C319.596 96.8893 319.168 97.0725 318.771 97.3168C318.405 97.5305 318.221 97.9427 318.221 98.5534V111.24C318.221 111.851 318.42 112.263 318.817 112.477C319.244 112.66 319.687 112.828 320.145 112.981C320.389 113.073 320.618 113.179 320.832 113.302C321.046 113.424 321.153 113.607 321.153 113.851C321.153 114.065 321.031 114.202 320.786 114.263C320.573 114.324 320.374 114.355 320.191 114.355C319.611 114.355 319.107 114.324 318.679 114.263C318.283 114.233 317.901 114.202 317.534 114.172C317.168 114.141 316.71 114.126 316.16 114.126C315.641 114.126 315.199 114.141 314.832 114.172C314.466 114.202 314.084 114.233 313.687 114.263C313.29 114.324 312.786 114.355 312.176 114.355C311.992 114.355 311.779 114.324 311.534 114.263C311.321 114.202 311.214 114.065 311.214 113.851C311.214 113.607 311.321 113.424 311.534 113.302C311.748 113.179 311.977 113.073 312.221 112.981C312.679 112.859 313.092 112.691 313.458 112.477C313.855 112.263 314.054 111.851 314.054 111.24V106.019C314.054 105.744 313.992 105.576 313.87 105.515C313.779 105.454 313.641 105.424 313.458 105.424H306.13C305.977 105.424 305.84 105.469 305.718 105.561C305.626 105.622 305.58 105.79 305.58 106.065V111.24C305.58 111.882 305.779 112.294 306.176 112.477C306.603 112.66 307.031 112.828 307.458 112.981C307.702 113.073 307.931 113.179 308.145 113.302C308.359 113.424 308.466 113.607 308.466 113.851C308.466 114.065 308.344 114.202 308.099 114.263C307.886 114.324 307.687 114.355 307.504 114.355C306.924 114.355 306.435 114.324 306.038 114.263C305.641 114.233 305.26 114.202 304.893 114.172C304.557 114.141 304.115 114.126 303.565 114.126C303.046 114.126 302.588 114.141 302.191 114.172C301.794 114.202 301.397 114.233 301 114.263C300.603 114.324 300.099 114.355 299.489 114.355Z" fill="#8EACCD"/>
<path d="M330.039 114.859C329.398 114.859 328.772 114.645 328.161 114.218C327.55 113.821 327.047 113.317 326.65 112.706C326.253 112.065 326.054 111.439 326.054 110.828C326.054 109.821 326.329 109.011 326.879 108.401C327.459 107.79 328.344 107.24 329.535 106.752L333.978 104.874C334.589 104.63 334.955 104.416 335.077 104.233C335.199 104.019 335.276 103.607 335.306 102.996L335.398 100.202C335.428 99.3779 335.23 98.6908 334.802 98.1412C334.375 97.5916 333.749 97.3168 332.924 97.3168C332.497 97.3168 332.054 97.4084 331.596 97.5916C331.169 97.7443 330.818 97.9275 330.543 98.1412C330.39 98.2634 330.283 98.4313 330.222 98.645C330.192 98.8588 330.176 99.0878 330.176 99.3321C330.176 99.4847 330.176 99.6679 330.176 99.8817C330.207 100.065 330.222 100.218 330.222 100.34C330.222 100.523 330.008 100.752 329.581 101.027C329.184 101.271 328.711 101.5 328.161 101.714C327.642 101.927 327.199 102.034 326.833 102.034C326.65 102.034 326.497 101.989 326.375 101.897C326.283 101.775 326.237 101.622 326.237 101.439C326.237 100.95 326.39 100.447 326.695 99.9275C327.031 99.3779 327.52 98.8282 328.161 98.2786C328.894 97.6374 329.688 97.0725 330.543 96.584C331.428 96.0649 332.283 95.6679 333.108 95.3931C333.963 95.1183 334.711 94.9809 335.352 94.9809C336.634 94.9809 337.673 95.4237 338.466 96.3092C339.291 97.1641 339.673 98.2786 339.611 99.6527L339.382 110.004C339.352 110.676 339.489 111.225 339.795 111.653C340.1 112.08 340.482 112.294 340.94 112.294C341.642 112.294 342.192 112.111 342.589 111.744C342.711 111.622 342.818 111.561 342.909 111.561C343.062 111.561 343.184 111.607 343.276 111.698C343.398 111.79 343.459 111.912 343.459 112.065C343.459 112.431 343.245 112.813 342.818 113.21C342.299 113.729 341.734 114.126 341.123 114.401C340.543 114.706 339.978 114.859 339.428 114.859C337.902 114.859 336.68 114.034 335.764 112.385H335.627C334.619 113.24 333.673 113.866 332.787 114.263C331.902 114.66 330.986 114.859 330.039 114.859ZM332.421 112.385C332.94 112.385 333.367 112.309 333.703 112.156C334.07 111.973 334.39 111.729 334.665 111.424C334.818 111.271 334.924 111.088 334.986 110.874C335.077 110.63 335.138 110.263 335.169 109.775L335.26 107.164C335.291 106.859 335.276 106.645 335.215 106.523C335.153 106.37 335.031 106.294 334.848 106.294C334.787 106.294 334.695 106.309 334.573 106.34C334.451 106.37 334.283 106.431 334.069 106.523C332.695 107.042 331.734 107.592 331.184 108.172C330.634 108.721 330.36 109.332 330.36 110.004C330.36 110.828 330.573 111.439 331.001 111.836C331.459 112.202 331.932 112.385 332.421 112.385Z" fill="#8EACCD"/>
<path d="M355.417 114.905C353.86 114.905 352.455 114.508 351.203 113.714C349.951 112.889 348.959 111.775 348.226 110.37C347.493 108.966 347.127 107.393 347.127 105.653C347.127 103.668 347.57 101.866 348.455 100.248C349.341 98.6298 350.531 97.3473 352.028 96.4008C353.524 95.4542 355.173 94.9809 356.974 94.9809C359.142 94.9809 361.005 95.6069 362.562 96.8588C362.898 97.1641 363.066 97.4542 363.066 97.729C363.066 97.9428 362.944 98.2176 362.699 98.5534C362.486 98.8588 362.211 99.1336 361.875 99.3779C361.57 99.5916 361.28 99.6985 361.005 99.6985C360.822 99.6985 360.623 99.6374 360.409 99.5153C360.226 99.3931 360.043 99.2557 359.86 99.1031C359.127 98.5229 358.348 98.0191 357.524 97.5916C356.73 97.1336 356.043 96.9046 355.463 96.9046C354.089 96.9046 352.989 97.5305 352.165 98.7824C351.371 100.004 350.974 101.729 350.974 103.958C350.974 105.424 351.249 106.721 351.799 107.851C352.379 108.981 353.157 109.866 354.135 110.508C355.142 111.149 356.287 111.469 357.57 111.469C358.455 111.469 359.218 111.332 359.86 111.057C360.531 110.752 361.234 110.248 361.967 109.546C362.058 109.485 362.15 109.424 362.241 109.363C362.364 109.302 362.47 109.271 362.562 109.271C362.898 109.271 363.066 109.5 363.066 109.958C363.066 110.111 363.02 110.309 362.928 110.553C362.837 110.767 362.699 111.011 362.516 111.286C362.089 111.897 361.524 112.492 360.822 113.073C360.119 113.622 359.31 114.065 358.394 114.401C357.478 114.737 356.486 114.905 355.417 114.905Z" fill="#8EACCD"/>
<path d="M44.084 150C42.3664 150 40.5534 149.714 38.645 149.141C36.8321 148.569 35.3053 147.71 34.0649 146.565C32.8244 145.42 32.2042 144.036 32.2042 142.414C32.2042 141.269 32.4428 140.267 32.9198 139.408C33.1107 139.122 33.3492 138.788 33.6355 138.406C34.0172 138.12 34.3034 137.977 34.4943 137.977C34.876 137.977 35.0191 138.359 34.9237 139.122C34.6374 141.603 35.687 143.559 38.0725 144.99C40.5534 146.517 43.2729 147.281 46.2309 147.281C49.666 147.281 53.292 146.231 57.1088 144.132C60.9256 142.128 64.6947 138.74 68.416 133.969C71.8511 129.485 75.1431 124.571 78.292 119.227C81.4408 113.884 84.3511 108.445 87.0229 102.91C89.7901 97.2805 92.271 91.937 94.4656 86.8798C96.6603 81.7271 98.5687 77.1469 100.191 73.1393L103.769 64.2653C100.429 69.7996 96.8034 75.2386 92.8912 80.5821C89.0744 85.9256 85.0191 90.792 80.7252 95.1813C76.4313 99.5706 71.8989 103.053 67.1279 105.63C62.3569 108.302 57.4427 109.637 52.3855 109.637C47.2328 109.637 43.3206 108.158 40.6489 105.2C38.0725 102.338 36.7844 98.5687 36.7844 93.8931C36.7844 92.4618 36.9275 90.8874 37.2137 89.1698C38.0725 83.8263 39.5992 78.7691 41.7939 73.9981C44.084 69.2271 46.6603 64.5992 49.5229 60.1145C52.4809 55.6298 55.3912 51.145 58.2538 46.6603C59.7805 44.1794 61.5458 41.2691 63.5496 37.9294C65.5534 34.4943 67.271 30.916 68.7023 27.1947C70.229 23.3779 70.9924 19.7519 70.9924 16.3168C70.9924 14.6947 70.7538 13.1202 70.2767 11.5935C69.895 10.0668 69.1794 8.68321 68.1298 7.44275C66.6985 5.62977 64.7424 4.3416 62.2614 3.57825C59.7805 2.81489 56.9179 2.43321 53.6737 2.43321C48.1393 2.43321 42.5095 3.67367 36.7844 6.15459C31.0592 8.54008 25.7634 11.7844 20.8969 15.8874C16.0305 19.895 12.1183 24.3321 9.16031 29.1985C7.63359 31.7748 6.39313 34.4466 5.43893 37.2137C4.48473 39.9809 4.00763 42.7481 4.00763 45.5153C4.00763 46.1832 4.05534 46.8989 4.15076 47.6622C4.3416 48.4256 4.48473 49.1889 4.58015 49.9523C5.24809 52.6241 6.53626 54.6279 8.44466 55.9637C10.3531 57.2996 12.5 57.9676 14.8855 57.9676C17.6527 57.9676 20.3721 57.0611 23.0439 55.2481C25.8111 53.3397 28.0057 50.8588 29.6279 47.8053C31.25 44.7519 32.0611 41.4599 32.0611 37.9294C32.0611 35.8302 31.6794 33.6355 30.916 31.3454C30.7252 30.5821 30.3912 29.8664 29.9141 29.1985C29.437 28.4351 28.9599 28.0057 28.4828 27.9103C28.0057 27.7195 27.7672 27.4809 27.7672 27.1947C27.8626 26.9084 28.3397 26.7653 29.1985 26.7653C31.0114 26.7653 32.4427 27.8149 33.4924 29.9141C34.6374 31.9179 35.3531 33.7309 35.6393 35.3531C35.7347 35.8302 35.7824 36.3073 35.7824 36.7844C35.8779 37.2615 35.9256 37.7386 35.9256 38.2157C35.9256 41.6508 35.0668 44.9905 33.3492 48.2347C31.6317 51.479 29.3893 54.0553 26.6221 55.9637C22.8053 58.7309 18.8454 60.1145 14.7424 60.1145C11.6889 60.1145 8.87405 59.3034 6.29771 57.6813C3.81679 55.9637 2.05153 53.3874 1.00191 49.9523C0.333969 47.9485 0 45.7538 0 43.3683C0 40.6011 0.429389 37.834 1.28817 35.0668C2.14695 32.2996 3.24427 29.7233 4.58015 27.3378C7.72901 21.6126 11.9752 16.7462 17.3187 12.7386C22.7576 8.6355 28.6737 5.48664 35.0668 3.29198C41.5553 1.09733 47.9008 0 54.1031 0C58.0153 0 61.5458 0.57252 64.6947 1.71756C67.9389 2.8626 70.4676 4.62786 72.2805 7.01336C73.7118 8.82634 74.7137 10.7347 75.2863 12.7386C75.8588 14.647 76.145 16.6508 76.145 18.75C76.145 22.2805 75.4771 25.9542 74.1412 29.771C72.8053 33.4924 71.1832 37.1183 69.2748 40.6489C67.3664 44.084 65.5534 47.1851 63.8359 49.9523C60.9733 54.7233 57.9676 59.876 54.8187 65.4103C51.7653 70.8492 49.1412 76.1928 46.9466 81.4408C44.8473 86.5935 43.7977 91.2691 43.7977 95.4676C43.7977 100.048 44.7042 103.197 46.5172 104.914C48.4256 106.727 50.7634 107.634 53.5305 107.634C58.0153 107.634 62.5477 106.059 67.1279 102.91C71.8034 99.7614 76.3836 95.6584 80.8683 90.6011C85.3531 85.4485 89.5992 79.8664 93.6069 73.855C97.6145 67.8435 101.24 61.9275 104.485 56.1069C107.729 50.2863 110.353 45.1336 112.357 40.6489C114.265 36.355 116.46 32.1088 118.941 27.9103C121.422 23.6164 124.141 19.895 127.099 16.7462C130.153 13.5973 133.397 11.6412 136.832 10.8779C137.118 10.7824 137.405 10.7347 137.691 10.7347C137.977 10.7347 138.216 10.7347 138.406 10.7347C139.742 10.7347 140.744 11.0687 141.412 11.7366C142.176 12.4046 142.557 13.1202 142.557 13.8836C142.557 14.6469 142.223 15.4103 141.555 16.1737C140.887 16.8416 139.885 17.1756 138.55 17.1756C135.401 17.271 132.586 18.3206 130.105 20.3244C127.624 22.2328 125.429 24.666 123.521 27.624C121.613 30.5821 119.99 33.6832 118.655 36.9275C117.319 40.0763 116.174 42.9389 115.219 45.5153C112.261 53.8168 109.542 62.166 107.061 70.563C104.676 78.8645 101.956 87.2137 98.9027 95.6107C95.8492 103.912 91.8416 112.214 86.8798 120.515C81.6317 129.198 75.5725 136.26 68.7023 141.698C61.8321 147.233 53.626 150 44.084 150Z" fill="#8EACCD"/>
<path d="M452.768 57.0294C452.678 57.7074 452.678 58.0471 452.43 58.3632C452.532 57.9117 452.644 57.4672 452.768 57.0294Z" fill="#D9D9D9"/>
<path d="M456.025 120.548C447.783 129.962 444.92 132.824 435.259 136.403C435.259 136.403 426.672 138.549 422.407 136.073C420.946 135.225 410.704 128.825 412.882 120.502C420.035 134.144 429.765 134.847 432.553 134.282C439.994 132.83 446.557 125.638 449.734 120.651C452.861 115.587 456.246 110.303 459.889 104.8C463.562 99.1684 467.049 93.6002 470.35 88.0958C473.682 82.462 476.383 77.1747 478.455 72.2339C480.558 67.1638 481.546 62.7486 481.419 58.9885C481.281 55.5654 480.267 52.3708 478.377 49.4048C476.538 46.5168 474.115 44.4942 471.108 43.337C468.133 42.0503 464.991 42.4609 461.682 44.5688C461.359 44.7744 460.98 45.0705 460.546 45.4571C460.142 45.7141 459.723 46.0359 459.289 46.4224C456.116 49.3372 453.942 52.8729 452.768 57.0294C452.927 55.825 453.369 53.5526 455.986 48.4469C456.73 46.9961 460.214 43.0036 461.021 42.4894C464.369 39.7771 467.51 38.2226 471.031 38.9419C474.553 39.6612 477.607 42.0502 480.192 46.109C481.435 48.0603 482.346 50.1136 482.925 52.2687C483.504 54.4238 483.896 56.6427 484.102 58.9254C484.409 62.7902 484.082 66.7293 483.121 70.7428C482.161 74.7562 480.961 78.4831 479.522 81.9235C476.837 88.5721 473.412 95.3073 469.249 102.129C465.117 108.822 460.642 114.269 456.025 120.548Z" fill="#8EACCD"/>
<path d="M469.038 89.4561C468.465 89.6469 467.988 89.5515 467.607 89.1698L478.055 84.7328C480.059 84.5419 482.063 84.4465 484.067 84.4465C488.742 84.4465 493.465 85.1622 498.236 86.5935C503.103 88.1202 507.54 90.2671 511.548 93.0343C515.651 95.8969 518.943 99.3797 521.423 103.483C523.904 107.586 525.145 112.309 525.145 117.653C525.145 122.328 523.761 126.813 520.994 131.107C518.227 135.401 513.647 138.884 507.254 141.555C502.673 143.559 496.853 145.086 489.792 146.135C482.826 147.28 475.574 147.853 468.036 147.853C462.693 147.853 457.254 147.424 451.719 146.565C446.185 145.801 440.841 144.561 435.689 142.843C430.536 141.126 425.908 138.931 421.805 136.26C417.702 133.588 414.41 130.391 411.929 126.67C410.498 124.571 409.353 122.233 408.494 119.656C407.635 117.176 407.206 114.408 407.206 111.355C407.206 107.634 408.065 104.58 409.782 102.195C411.595 99.8091 413.885 98.0438 416.652 96.8988C419.515 95.7538 422.473 95.1813 425.527 95.1813C428.771 95.1813 431.681 95.6584 434.257 96.6125C434.83 96.8034 435.116 97.1374 435.116 97.6145C435.116 97.8053 434.973 97.9007 434.687 97.9007C434.591 97.9007 434.496 97.853 434.401 97.7576H434.257C431.681 96.8988 429.2 96.4694 426.815 96.4694C423.761 96.4694 420.994 97.1374 418.513 98.4732C416.128 99.9045 414.506 101.956 413.647 104.628C413.074 106.345 412.788 108.111 412.788 109.924C412.788 113.836 413.79 117.748 415.794 121.66C417.797 125.572 420.04 128.769 422.521 131.25C425.86 134.494 429.964 137.166 434.83 139.265C439.696 141.46 444.944 143.082 450.574 144.132C456.299 145.277 461.977 145.849 467.607 145.849C474.954 145.849 482.063 145.086 488.933 143.559C495.803 142.128 501.433 140.029 505.822 137.261C509.735 134.78 512.693 131.679 514.696 127.958C516.7 124.237 517.702 120.324 517.702 116.221C517.702 111.641 516.653 107.49 514.553 103.769C512.549 100.143 509.83 97.0419 506.395 94.4656C502.96 91.9847 499.191 90.0286 495.088 88.5973C490.985 87.2614 486.881 86.5935 482.778 86.5935C478.866 86.5935 475.193 87.166 471.757 88.311L470.326 88.8836C469.944 89.0744 469.515 89.2652 469.038 89.4561Z" fill="#8EACCD"/>
<path d="M546.643 62.1182C547.502 62.1182 548.313 62.0704 549.076 61.975C555.279 61.4979 560.765 59.8281 565.536 56.9655C568.876 54.8662 571.5 52.0991 573.408 48.664C575.317 45.2288 576.271 41.6029 576.271 37.7861C576.271 35.1143 575.794 32.538 574.84 30.0571C573.122 25.3815 569.782 21.2785 564.821 17.7479C561.576 15.5533 558.332 14.0743 555.088 13.3109C554.992 13.3109 554.754 13.3586 554.372 13.454C554.086 13.5495 553.943 13.6926 553.943 13.8834C553.943 14.1697 554.277 14.4559 554.945 14.7422C556.281 15.2193 557.76 15.9349 559.382 16.8891C561.004 17.7479 562.578 18.7498 564.105 19.8949C566.872 21.9941 568.876 24.2365 570.116 26.622C571.452 29.0075 572.12 31.4407 572.12 33.9216C572.12 37.4521 570.927 40.7918 568.542 43.9407C566.156 47.0895 563.008 49.5704 559.095 51.3834C556.71 52.5285 554.038 53.3395 551.08 53.8166C548.122 54.2937 545.021 54.5323 541.777 54.5323C534.716 54.5323 527.273 53.6258 519.448 51.8128C511.624 50.0953 504.372 48.2823 497.693 46.3739L467.635 37.9292C466.777 37.7384 465.441 37.4521 463.628 37.0704C461.815 36.5933 460.145 36.3548 458.618 36.3548C457.187 36.3548 456.233 36.5456 455.756 36.9273C455.374 37.2136 455.231 37.4998 455.326 37.7861C455.422 38.0724 455.613 38.2155 455.899 38.2155H456.042C457.378 37.9292 459.143 38.0724 461.338 38.6449C463.628 39.122 465.489 39.5991 466.92 40.0762C468.828 40.7441 470.927 41.5075 473.218 42.3662L496.118 51.3834C500.889 53.2918 505.994 55.0571 511.433 56.6792C516.968 58.3014 522.55 59.5895 528.179 60.5437C533.809 61.5933 539.2 62.1182 544.353 62.1182H546.643Z" fill="#8EACCD"/>
<path d="M549.445 114.859C547.704 114.859 546.116 114.462 544.681 113.668C543.277 112.843 542.162 111.729 541.338 110.324C540.513 108.92 540.101 107.317 540.101 105.515C540.101 104.172 540.361 102.874 540.88 101.622C541.399 100.37 542.132 99.2403 543.078 98.2327C544.025 97.225 545.124 96.4311 546.376 95.851C547.628 95.2403 548.971 94.9349 550.406 94.9349C552.208 94.9349 553.842 95.3777 555.307 96.2632C556.773 97.1181 557.933 98.2479 558.788 99.6525C559.643 101.057 560.071 102.599 560.071 104.278C560.071 106.111 559.674 107.836 558.88 109.454C558.086 111.072 556.895 112.385 555.307 113.393C553.75 114.37 551.796 114.859 549.445 114.859ZM550.406 113.256C551.292 113.256 552.086 113.088 552.788 112.752C553.49 112.385 554.04 111.836 554.437 111.103C554.803 110.401 555.048 109.546 555.17 108.538C555.322 107.5 555.399 106.446 555.399 105.378C555.399 103.851 555.155 102.416 554.666 101.072C554.177 99.7288 553.506 98.6449 552.651 97.8204C551.796 96.996 550.788 96.5838 549.628 96.5838C548.926 96.5838 548.284 96.7059 547.704 96.9502C547.154 97.164 546.651 97.5456 546.193 98.0952C545.613 98.7975 545.231 99.7136 545.048 100.843C544.864 101.943 544.773 103.149 544.773 104.462C544.773 105.927 545.017 107.332 545.506 108.675C545.994 110.019 546.651 111.118 547.475 111.973C548.33 112.828 549.307 113.256 550.406 113.256Z" fill="#8EACCD"/>
<path d="M566.285 114.859C565.094 114.859 564.209 114.599 563.628 114.08C563.048 113.53 562.758 112.935 562.758 112.294C562.758 111.714 562.941 111.21 563.308 110.782C563.674 110.355 564.163 110.141 564.773 110.141C565.14 110.141 565.46 110.233 565.735 110.416C566.01 110.569 566.254 110.752 566.468 110.965C566.651 111.118 566.819 111.271 566.972 111.423C567.155 111.546 567.338 111.607 567.522 111.607C567.98 111.607 568.377 111.21 568.712 110.416C569.079 109.591 569.384 108.538 569.628 107.256C569.903 105.973 570.117 104.614 570.27 103.179C570.422 101.744 570.499 100.431 570.499 99.2403C570.499 98.3853 570.27 97.8357 569.812 97.5914C569.384 97.3472 568.773 97.1487 567.98 96.996C567.796 96.9349 567.598 96.8433 567.384 96.7212C567.17 96.5685 567.064 96.3701 567.064 96.1258C567.064 95.912 567.201 95.7441 567.476 95.622C567.751 95.4998 567.949 95.4388 568.071 95.4388C568.743 95.4388 569.308 95.4693 569.766 95.5304C570.224 95.5609 570.743 95.5762 571.323 95.5762H580.392C581.064 95.5762 581.628 95.5609 582.086 95.5304C582.544 95.4693 583.109 95.4388 583.781 95.4388C583.903 95.4388 584.086 95.4998 584.331 95.622C584.605 95.7441 584.743 95.912 584.743 96.1258C584.743 96.3395 584.651 96.538 584.468 96.7212C584.285 96.8739 584.102 96.9655 583.918 96.996C583.247 97.1487 582.743 97.3777 582.407 97.683C582.071 97.9884 581.903 98.6754 581.903 99.7441V111.286C581.903 111.897 582.071 112.294 582.407 112.477C582.743 112.66 583.14 112.828 583.598 112.981C583.842 113.072 584.071 113.179 584.285 113.301C584.499 113.423 584.606 113.607 584.606 113.851C584.606 114.065 584.499 114.202 584.285 114.263C584.102 114.324 583.918 114.355 583.735 114.355C583.125 114.355 582.621 114.324 582.224 114.263C581.827 114.233 581.445 114.202 581.079 114.172C580.743 114.141 580.3 114.126 579.751 114.126C579.231 114.126 578.789 114.141 578.422 114.172C578.056 114.202 577.674 114.233 577.277 114.263C576.88 114.324 576.392 114.355 575.812 114.355C575.628 114.355 575.43 114.324 575.216 114.263C575.033 114.202 574.941 114.065 574.941 113.851C574.941 113.607 575.048 113.423 575.262 113.301C575.476 113.179 575.705 113.072 575.949 112.981C576.407 112.828 576.819 112.66 577.186 112.477C577.552 112.294 577.735 111.897 577.735 111.286V98.9197C577.735 98.5838 577.659 98.2327 577.506 97.8662C577.384 97.4693 577.125 97.2708 576.728 97.2708H573.201C572.773 97.2708 572.514 97.4846 572.422 97.912C572.331 98.3395 572.285 98.6907 572.285 98.9655C572.285 100.217 572.209 101.561 572.056 102.996C571.934 104.431 571.72 105.851 571.415 107.256C571.14 108.66 570.773 109.943 570.315 111.103C569.857 112.233 569.293 113.149 568.621 113.851C567.949 114.523 567.17 114.859 566.285 114.859Z" fill="#8EACCD"/>
<path d="M590.094 114.355C589.942 114.355 589.743 114.324 589.499 114.263C589.285 114.202 589.178 114.08 589.178 113.897C589.178 113.683 589.27 113.53 589.453 113.439C589.636 113.317 589.85 113.21 590.094 113.118C590.613 112.935 591.056 112.752 591.422 112.569C591.819 112.385 592.018 111.988 592.018 111.378V98.5075C592.018 97.8968 591.88 97.4846 591.606 97.2708C591.331 97.0265 590.919 96.8281 590.369 96.6754C590.125 96.5838 589.896 96.4769 589.682 96.3548C589.499 96.2327 589.407 96.08 589.407 95.8968C589.407 95.7136 589.514 95.5914 589.728 95.5304C589.941 95.4693 590.14 95.4388 590.323 95.4388C590.964 95.4388 591.453 95.4693 591.789 95.5304C592.155 95.5609 592.491 95.6067 592.796 95.6678C593.132 95.6983 593.575 95.7136 594.125 95.7136C594.705 95.7136 595.148 95.6983 595.453 95.6678C595.789 95.6067 596.14 95.5609 596.506 95.5304C596.873 95.4693 597.377 95.4388 598.018 95.4388C598.17 95.4388 598.354 95.4693 598.567 95.5304C598.812 95.5914 598.934 95.7136 598.934 95.8968C598.934 96.08 598.842 96.2327 598.659 96.3548C598.476 96.4769 598.262 96.5838 598.018 96.6754C597.468 96.8281 597.025 97.0265 596.69 97.2708C596.384 97.4846 596.232 97.8968 596.232 98.5075V103.133C596.232 103.286 596.277 103.393 596.369 103.454C596.491 103.485 596.598 103.485 596.69 103.454C596.995 103.301 597.468 103.194 598.109 103.133C598.781 103.072 599.361 103.042 599.85 103.042C600.43 103.042 601.087 103.133 601.819 103.317C602.552 103.5 603.254 103.805 603.926 104.233C604.628 104.63 605.193 105.179 605.621 105.882C606.079 106.553 606.308 107.408 606.308 108.446C606.308 109.882 605.926 111.042 605.163 111.927C604.43 112.782 603.438 113.408 602.186 113.805C600.964 114.172 599.636 114.355 598.201 114.355C597.621 114.355 597.117 114.324 596.69 114.263C596.293 114.233 595.896 114.217 595.499 114.217C595.132 114.187 594.659 114.172 594.079 114.172C593.59 114.172 593.148 114.187 592.751 114.217C592.354 114.217 591.942 114.233 591.514 114.263C591.087 114.324 590.613 114.355 590.094 114.355ZM598.338 112.889C599.254 112.889 600.064 112.553 600.766 111.882C601.499 111.179 601.865 110.156 601.865 108.813C601.865 107.378 601.545 106.324 600.903 105.652C600.262 104.95 599.3 104.599 598.018 104.599C597.346 104.599 596.873 104.691 596.598 104.874C596.415 104.996 596.308 105.179 596.277 105.423C596.247 105.637 596.232 105.805 596.232 105.927V110.782C596.232 111.454 596.445 111.973 596.873 112.34C597.331 112.706 597.819 112.889 598.338 112.889Z" fill="#8EACCD"/>
<path d="M611.305 114.355C611.122 114.355 610.908 114.324 610.664 114.263C610.42 114.202 610.298 114.065 610.298 113.851C610.298 113.607 610.404 113.423 610.618 113.301C610.862 113.179 611.107 113.072 611.351 112.981C611.809 112.828 612.191 112.66 612.496 112.477C612.832 112.263 613 111.851 613 111.24V98.5075C613 97.8968 612.832 97.4846 612.496 97.2708C612.191 97.0571 611.809 96.8891 611.351 96.767C611.107 96.6754 610.862 96.5685 610.618 96.4464C610.404 96.3243 610.298 96.1411 610.298 95.8968C610.298 95.683 610.42 95.5609 610.664 95.5304C610.908 95.4693 611.122 95.4388 611.305 95.4388C611.916 95.4388 612.405 95.454 612.771 95.4846C613.168 95.5151 613.55 95.5609 613.916 95.622C614.282 95.6525 614.725 95.6678 615.244 95.6678C615.794 95.6678 616.221 95.6525 616.527 95.622C616.863 95.5609 617.214 95.5151 617.58 95.4846C617.946 95.454 618.435 95.4388 619.046 95.4388C619.229 95.4388 619.427 95.4693 619.641 95.5304C619.885 95.5914 620.008 95.7136 620.008 95.8968C620.008 96.1105 619.901 96.2937 619.687 96.4464C619.473 96.5685 619.244 96.6754 619 96.767C618.542 96.9197 618.13 97.1029 617.763 97.3166C617.397 97.4998 617.214 97.8968 617.214 98.5075V110.599C617.214 110.935 617.275 111.301 617.397 111.698C617.55 112.065 617.824 112.248 618.221 112.248H623.076C623.473 112.248 623.733 112.065 623.855 111.698C623.977 111.301 624.038 110.935 624.038 110.599V98.5075C624.038 97.8968 623.855 97.4846 623.488 97.2708C623.122 97.0571 622.71 96.8891 622.252 96.767C622.008 96.6754 621.779 96.5685 621.565 96.4464C621.351 96.3243 621.244 96.1411 621.244 95.8968C621.244 95.683 621.351 95.5609 621.565 95.5304C621.779 95.4693 621.992 95.4388 622.206 95.4388C622.817 95.4388 623.305 95.454 623.672 95.4846C624.038 95.5151 624.389 95.5609 624.725 95.622C625.092 95.6525 625.534 95.6678 626.053 95.6678C626.603 95.6678 627.046 95.6525 627.382 95.622C627.748 95.5609 628.114 95.5151 628.481 95.4846C628.847 95.454 629.336 95.4388 629.947 95.4388C630.13 95.4388 630.328 95.4693 630.542 95.5304C630.786 95.5609 630.908 95.683 630.908 95.8968C630.908 96.1411 630.801 96.3243 630.588 96.4464C630.374 96.5685 630.145 96.6754 629.901 96.767C629.443 96.8891 629.046 97.0571 628.71 97.2708C628.404 97.4846 628.252 97.8968 628.252 98.5075V110.599C628.252 110.935 628.313 111.301 628.435 111.698C628.557 112.065 628.817 112.248 629.214 112.248H633.885C634.313 112.248 634.588 112.065 634.71 111.698C634.832 111.301 634.893 110.935 634.893 110.599V98.5075C634.893 97.8968 634.71 97.4846 634.343 97.2708C633.977 97.0571 633.565 96.8891 633.107 96.767C632.863 96.6754 632.634 96.5685 632.42 96.4464C632.206 96.3243 632.099 96.1411 632.099 95.8968C632.099 95.683 632.206 95.5609 632.42 95.5304C632.664 95.4693 632.878 95.4388 633.061 95.4388C633.672 95.4388 634.16 95.454 634.527 95.4846C634.893 95.5151 635.26 95.5609 635.626 95.622C635.992 95.6525 636.435 95.6678 636.954 95.6678C637.504 95.6678 637.946 95.6525 638.282 95.622C638.618 95.5609 638.969 95.5151 639.336 95.4846C639.733 95.454 640.221 95.4388 640.801 95.4388C641.015 95.4388 641.229 95.4693 641.443 95.5304C641.656 95.5609 641.763 95.683 641.763 95.8968C641.763 96.1411 641.656 96.3243 641.443 96.4464C641.229 96.5685 641 96.6754 640.756 96.767C640.298 96.8891 639.901 97.0571 639.565 97.2708C639.259 97.4846 639.107 97.8968 639.107 98.5075V111.286C639.107 111.897 639.275 112.294 639.611 112.477C639.946 112.66 640.343 112.828 640.801 112.981C641.046 113.072 641.275 113.179 641.489 113.301C641.702 113.423 641.809 113.607 641.809 113.851C641.809 114.065 641.687 114.202 641.443 114.263C641.229 114.324 641.03 114.355 640.847 114.355C640.237 114.355 639.763 114.34 639.427 114.309C639.122 114.278 638.847 114.248 638.603 114.217C638.359 114.187 638.038 114.172 637.641 114.172H614.557C614.16 114.172 613.824 114.187 613.55 114.217C613.305 114.248 613.015 114.278 612.679 114.309C612.374 114.34 611.916 114.355 611.305 114.355Z" fill="#8EACCD"/>
<path d="M654.88 114.904C653.231 114.904 651.765 114.492 650.483 113.668C649.231 112.813 648.238 111.637 647.506 110.141C646.773 108.614 646.406 106.859 646.406 104.874C646.406 103.072 646.819 101.423 647.643 99.9273C648.498 98.4311 649.628 97.2403 651.032 96.3548C652.437 95.4388 653.979 94.9807 655.658 94.9807C656.91 94.9807 658.025 95.2403 659.002 95.7594C660.009 96.2479 660.788 96.9502 661.338 97.8662C661.918 98.7517 662.208 99.7746 662.208 100.935C662.208 101.943 661.735 102.446 660.788 102.446H651.307C650.88 102.446 650.574 102.569 650.391 102.813C650.208 103.057 650.116 103.5 650.116 104.141C650.116 105.485 650.422 106.721 651.032 107.851C651.643 108.95 652.452 109.836 653.46 110.507C654.467 111.179 655.582 111.515 656.803 111.515C657.719 111.515 658.544 111.347 659.277 111.011C660.04 110.645 660.742 110.141 661.384 109.5C661.475 109.378 661.551 109.286 661.613 109.225C661.704 109.164 661.796 109.133 661.887 109.133C662.162 109.133 662.3 109.301 662.3 109.637C662.3 110.126 662.086 110.706 661.658 111.378C661.231 112.019 660.681 112.614 660.01 113.164C659.368 113.683 658.605 114.095 657.719 114.401C656.864 114.736 655.918 114.904 654.88 114.904ZM651.353 100.889H655.017C655.811 100.889 656.437 100.874 656.895 100.843C657.353 100.813 657.78 100.752 658.177 100.66C658.33 100.599 658.437 100.477 658.498 100.294C658.559 100.08 658.59 99.8204 658.59 99.5151C658.59 98.6601 658.238 97.9426 657.536 97.3624C656.834 96.7517 655.994 96.4464 655.017 96.4464C654.345 96.4464 653.674 96.6449 653.002 97.0418C652.361 97.4388 651.826 97.9426 651.399 98.5533C650.971 99.1334 650.773 99.7288 650.803 100.34C650.803 100.706 650.987 100.889 651.353 100.889Z" fill="#8EACCD"/>
</svg>
