<svg width="468" height="150" viewBox="0 0 468 150" fill="none" xmlns="http://www.w3.org/2000/svg">
<path d="M174.283 98.8302C172.109 98.8302 170.177 98.2868 168.487 97.2C166.836 96.073 165.528 94.5233 164.562 92.5509C163.596 90.5384 163.113 88.2239 163.113 85.6076C163.113 83.2327 163.656 81.0591 164.743 79.0868C165.87 77.1145 167.36 75.5447 169.211 74.3774C171.063 73.1698 173.095 72.566 175.309 72.566C176.96 72.566 178.429 72.9082 179.717 73.5925C181.045 74.2365 182.072 75.1623 182.796 76.3698C183.561 77.5371 183.943 78.8855 183.943 80.4151C183.943 81.7434 183.319 82.4076 182.072 82.4076H169.573C169.01 82.4076 168.607 82.5686 168.366 82.8906C168.124 83.2126 168.004 83.7962 168.004 84.6415C168.004 86.4126 168.406 88.0428 169.211 89.5321C170.016 90.9811 171.083 92.1484 172.411 93.034C173.739 93.9195 175.209 94.3623 176.819 94.3623C178.026 94.3623 179.113 94.1409 180.079 93.6981C181.085 93.2151 182.011 92.5509 182.856 91.7057C182.977 91.5447 183.078 91.4239 183.158 91.3434C183.279 91.2629 183.4 91.2226 183.521 91.2226C183.883 91.2226 184.064 91.444 184.064 91.8868C184.064 92.5308 183.782 93.2956 183.219 94.1811C182.655 95.0264 181.931 95.8113 181.045 96.5359C180.2 97.2201 179.194 97.7635 178.026 98.166C176.899 98.6088 175.651 98.8302 174.283 98.8302ZM169.634 80.3547H174.464C175.511 80.3547 176.336 80.3346 176.939 80.2943C177.543 80.2541 178.107 80.1736 178.63 80.0528C178.831 79.9723 178.972 79.8113 179.053 79.5698C179.133 79.2881 179.173 78.9459 179.173 78.5434C179.173 77.4164 178.711 76.4704 177.785 75.7057C176.859 74.9006 175.752 74.4981 174.464 74.4981C173.578 74.4981 172.693 74.7598 171.807 75.283C170.962 75.8063 170.258 76.4704 169.694 77.2755C169.131 78.0403 168.869 78.8252 168.909 79.6302C168.909 80.1132 169.151 80.3547 169.634 80.3547Z" fill="#8EACCD"/>
<path d="M191.454 98.1057C191.212 98.1057 190.95 98.0654 190.669 97.9849C190.427 97.9044 190.306 97.7434 190.306 97.5019C190.306 97.1799 190.427 96.9384 190.669 96.7774C190.95 96.6164 191.252 96.4755 191.574 96.3547C192.299 96.1132 192.903 95.8717 193.386 95.6302C193.869 95.3484 194.11 94.8252 194.11 94.0604V78.8453C194.11 77.839 193.889 77.0138 193.446 76.3698C193.044 75.7258 192.319 75.283 191.272 75.0415C191.071 75.0013 190.85 74.8805 190.608 74.6792C190.367 74.478 190.246 74.2365 190.246 73.9547C190.246 73.7132 190.407 73.5321 190.729 73.4113C191.091 73.2503 191.353 73.1698 191.514 73.1698C192.4 73.1698 193.184 73.2101 193.869 73.2906C194.553 73.3711 195.298 73.4113 196.103 73.4113H205.703C206.91 73.4113 207.796 73.3308 208.359 73.1698C208.963 73.0088 209.446 72.9283 209.808 72.9283C209.889 72.9283 209.989 72.9887 210.11 73.1094C210.271 73.2302 210.352 73.3912 210.352 73.5925C210.352 74.156 210.311 74.961 210.231 76.0075C210.15 77.0541 210.11 77.9396 210.11 78.6642C210.11 79.2277 210.05 79.8314 209.929 80.4755C209.849 81.0792 209.627 81.3811 209.265 81.3811C208.822 81.3811 208.44 80.6969 208.118 79.3283C207.997 78.7245 207.776 78.1409 207.454 77.5774C207.172 77.0138 206.81 76.5509 206.367 76.1887C205.924 75.7862 205.441 75.5849 204.918 75.5849C204.636 75.5849 204.254 75.5849 203.771 75.5849C203.288 75.5447 202.825 75.5245 202.382 75.5245C201.939 75.5245 201.577 75.5245 201.295 75.5245C200.571 75.5245 200.108 75.7862 199.906 76.3094C199.745 76.8327 199.665 77.2755 199.665 77.6377V94.0604C199.665 94.7849 199.947 95.2881 200.51 95.5698C201.074 95.8516 201.738 96.1132 202.503 96.3547C202.825 96.4755 203.106 96.6164 203.348 96.7774C203.63 96.8981 203.771 97.1195 203.771 97.4415C203.771 97.7233 203.63 97.9044 203.348 97.9849C203.066 98.0654 202.784 98.1057 202.503 98.1057C201.738 98.1057 201.074 98.0654 200.51 97.9849C199.947 97.9447 199.403 97.9044 198.88 97.8642C198.357 97.8239 197.733 97.8038 197.008 97.8038C196.324 97.8038 195.7 97.8239 195.137 97.8642C194.613 97.9044 194.07 97.9447 193.506 97.9849C192.943 98.0654 192.259 98.1057 191.454 98.1057Z" fill="#8EACCD"/>
<path d="M216.639 98.1057C216.398 98.1057 216.136 98.0654 215.855 97.9849C215.573 97.9044 215.432 97.7233 215.432 97.4415C215.432 97.1195 215.573 96.878 215.855 96.717C216.177 96.556 216.499 96.4151 216.821 96.2943C217.424 96.0931 217.968 95.8717 218.451 95.6302C218.974 95.3484 219.236 94.805 219.236 94V77.2755C219.236 76.4704 218.994 75.9271 218.511 75.6453C218.068 75.3233 217.545 75.0818 216.941 74.9208C216.619 74.8 216.297 74.6591 215.975 74.4981C215.694 74.3371 215.553 74.0956 215.553 73.7736C215.553 73.5321 215.694 73.3711 215.975 73.2906C216.297 73.2101 216.559 73.1698 216.76 73.1698C217.565 73.1698 218.229 73.1899 218.753 73.2302C219.316 73.2704 219.839 73.3308 220.322 73.4113C220.806 73.4516 221.389 73.4717 222.073 73.4717C222.798 73.4717 223.382 73.4516 223.824 73.4113C224.267 73.3308 224.73 73.2704 225.213 73.2302C225.736 73.1899 226.4 73.1698 227.206 73.1698C227.407 73.1698 227.648 73.2101 227.93 73.2906C228.212 73.3711 228.353 73.5321 228.353 73.7736C228.353 74.0554 228.212 74.2969 227.93 74.4981C227.648 74.6591 227.346 74.8 227.024 74.9208C226.421 75.122 225.897 75.3635 225.455 75.6453C225.012 75.9271 224.79 76.4704 224.79 77.2755V88.6868C224.79 88.9283 224.871 89.0893 225.032 89.1698C225.193 89.2503 225.334 89.2302 225.455 89.1094L235.9 77.9396C236.021 77.7786 236.101 77.6579 236.141 77.5774C236.222 77.4969 236.262 77.356 236.262 77.1547C236.262 76.3497 236.061 75.8264 235.658 75.5849C235.296 75.3031 234.813 75.0818 234.209 74.9208C233.887 74.8 233.585 74.6591 233.304 74.4981C233.022 74.3371 232.881 74.0956 232.881 73.7736C232.881 73.5321 233.002 73.3711 233.243 73.2906C233.525 73.2101 233.787 73.1698 234.028 73.1698C234.833 73.1698 235.477 73.1899 235.96 73.2302C236.483 73.2704 236.967 73.3308 237.409 73.4113C237.892 73.4516 238.476 73.4717 239.16 73.4717C239.885 73.4717 240.468 73.4516 240.911 73.4113C241.394 73.3308 241.897 73.2704 242.421 73.2302C242.944 73.1899 243.608 73.1698 244.413 73.1698C244.655 73.1698 244.896 73.2101 245.138 73.2906C245.419 73.3711 245.56 73.5321 245.56 73.7736C245.56 74.0956 245.419 74.3371 245.138 74.4981C244.856 74.6591 244.554 74.8 244.232 74.9208C243.628 75.0818 243.065 75.3233 242.541 75.6453C242.058 75.9271 241.817 76.4704 241.817 77.2755V94C241.817 94.805 242.078 95.3484 242.602 95.6302C243.165 95.8717 243.749 96.0931 244.353 96.2943C244.675 96.4151 244.977 96.556 245.258 96.717C245.54 96.878 245.681 97.1195 245.681 97.4415C245.681 97.7233 245.54 97.9044 245.258 97.9849C244.977 98.0654 244.735 98.1057 244.534 98.1057C243.729 98.1057 243.045 98.0654 242.481 97.9849C241.958 97.9447 241.434 97.9044 240.911 97.8642C240.428 97.8239 239.824 97.8038 239.1 97.8038C238.416 97.8038 237.812 97.8239 237.289 97.8642C236.806 97.9044 236.282 97.9447 235.719 97.9849C235.195 98.0654 234.531 98.1057 233.726 98.1057C233.525 98.1057 233.283 98.0654 233.002 97.9849C232.72 97.9044 232.579 97.7233 232.579 97.4415C232.579 97.1195 232.72 96.878 233.002 96.717C233.283 96.556 233.585 96.4151 233.907 96.2943C234.511 96.0931 235.055 95.8717 235.538 95.6302C236.021 95.3484 236.262 94.805 236.262 94V81.5623C236.262 81.361 236.222 81.2403 236.141 81.2C236.101 81.1195 236.041 81.1396 235.96 81.2604L225.153 92.9736C224.911 93.2151 224.79 93.5572 224.79 94C224.79 94.8453 225.052 95.3887 225.575 95.6302C226.099 95.8717 226.662 96.0931 227.266 96.2943C227.588 96.4151 227.89 96.556 228.172 96.717C228.453 96.878 228.594 97.1195 228.594 97.4415C228.594 97.683 228.453 97.844 228.172 97.9245C227.89 98.0453 227.648 98.1057 227.447 98.1057C226.642 98.1057 225.958 98.0654 225.394 97.9849C224.871 97.9447 224.368 97.9044 223.885 97.8642C223.402 97.8239 222.798 97.8038 222.073 97.8038C221.389 97.8038 220.785 97.8239 220.262 97.8642C219.739 97.9044 219.195 97.9447 218.632 97.9849C218.109 98.0654 217.445 98.1057 216.639 98.1057Z" fill="#8EACCD"/>
<path d="M262.939 98.8302C260.886 98.8302 259.034 98.3069 257.384 97.2604C255.733 96.1736 254.425 94.7044 253.459 92.8528C252.493 91.0013 252.01 88.9283 252.01 86.634C252.01 84.0176 252.594 81.6428 253.761 79.5094C254.928 77.3761 256.498 75.6855 258.471 74.4377C260.443 73.1899 262.617 72.566 264.991 72.566C267.849 72.566 270.305 73.3912 272.357 75.0415C272.8 75.444 273.022 75.8264 273.022 76.1887C273.022 76.4704 272.861 76.8327 272.539 77.2755C272.257 77.678 271.894 78.0403 271.452 78.3623C271.049 78.644 270.667 78.7849 270.305 78.7849C270.063 78.7849 269.801 78.7044 269.52 78.5434C269.278 78.3824 269.037 78.2013 268.795 78C267.829 77.2352 266.803 76.5711 265.716 76.0075C264.669 75.4038 263.764 75.1019 262.999 75.1019C261.188 75.1019 259.739 75.927 258.652 77.5774C257.605 79.1874 257.082 81.4616 257.082 84.4C257.082 86.3321 257.444 88.0428 258.169 89.5321C258.933 91.0214 259.96 92.1887 261.248 93.034C262.576 93.8792 264.086 94.3019 265.776 94.3019C266.944 94.3019 267.95 94.1208 268.795 93.7585C269.681 93.356 270.606 92.6918 271.572 91.766C271.693 91.6855 271.814 91.605 271.935 91.5245C272.096 91.444 272.237 91.4038 272.357 91.4038C272.8 91.4038 273.022 91.7057 273.022 92.3094C273.022 92.5107 272.961 92.7723 272.84 93.0943C272.72 93.3761 272.539 93.6981 272.297 94.0604C271.734 94.8654 270.989 95.6503 270.063 96.4151C269.137 97.1396 268.071 97.7233 266.863 98.166C265.656 98.6088 264.347 98.8302 262.939 98.8302Z" fill="#8EACCD"/>
<path d="M285.109 98.1057C284.868 98.1057 284.586 98.0654 284.264 97.9849C283.982 97.9044 283.841 97.7434 283.841 97.5019C283.841 97.1799 283.962 96.9384 284.204 96.7774C284.485 96.6164 284.787 96.4755 285.109 96.3547C285.834 96.1132 286.458 95.8516 286.981 95.5698C287.504 95.2881 287.766 94.7447 287.766 93.9396L287.705 77.4566C287.705 77.0541 287.665 76.6516 287.585 76.2491C287.504 75.8063 287.283 75.5849 286.921 75.5849H283.841C283.278 75.5849 282.795 75.766 282.392 76.1283C281.99 76.4503 281.628 76.9132 281.305 77.517C281.024 78.0805 280.762 78.7648 280.521 79.5698C280.44 79.8918 280.279 80.2541 280.038 80.6566C279.796 81.0189 279.494 81.2 279.132 81.2C278.931 81.2 278.75 81.0994 278.589 80.8981C278.468 80.6566 278.407 80.3748 278.407 80.0528C278.407 79.8516 278.448 79.5899 278.528 79.2679C278.609 78.9459 278.669 78.644 278.709 78.3623C278.83 77.7585 278.951 76.9937 279.072 76.0679C279.233 75.1019 279.313 74.2767 279.313 73.5925C279.313 73.2302 279.394 72.9484 279.555 72.7472C279.716 72.5459 279.937 72.4453 280.219 72.4453C280.5 72.4453 280.762 72.5057 281.004 72.6264C281.285 72.7069 281.628 72.8075 282.03 72.9283C282.433 73.0893 282.875 73.2101 283.358 73.2906C283.882 73.3711 284.485 73.4113 285.17 73.4113H297.97C298.533 73.4113 299.097 73.3912 299.66 73.351C300.264 73.2704 300.646 73.1698 300.807 73.0491C301.049 72.8478 301.29 72.7069 301.532 72.6264C301.814 72.5057 301.995 72.4453 302.075 72.4453C302.236 72.4453 302.397 72.5459 302.558 72.7472C302.719 72.9082 302.8 73.1497 302.8 73.4717C302.8 73.8742 302.76 74.3572 302.679 74.9208C302.599 75.444 302.558 75.9874 302.558 76.5509C302.558 77.0742 302.558 77.6377 302.558 78.2415C302.599 78.805 302.639 79.3082 302.679 79.7509C302.719 80.073 302.659 80.395 302.498 80.717C302.337 81.039 302.095 81.2 301.773 81.2C301.492 81.2 301.25 80.9987 301.049 80.5962C300.848 80.1937 300.727 79.8516 300.687 79.5698C300.646 78.8855 300.485 78.2415 300.204 77.6377C299.962 77.034 299.6 76.5509 299.117 76.1887C298.674 75.7862 298.111 75.5849 297.426 75.5849H294.226C293.783 75.5849 293.502 75.8063 293.381 76.2491C293.3 76.6516 293.26 77.0541 293.26 77.4566V94C293.26 94.7245 293.522 95.2478 294.045 95.5698C294.609 95.8516 295.273 96.1132 296.038 96.3547C296.36 96.4755 296.641 96.6164 296.883 96.7774C297.165 96.8981 297.306 97.1195 297.306 97.4415C297.306 97.7233 297.144 97.9044 296.822 97.9849C296.541 98.0654 296.279 98.1057 296.038 98.1057C295.273 98.1057 294.609 98.0654 294.045 97.9849C293.482 97.9447 292.938 97.9044 292.415 97.8642C291.892 97.8239 291.268 97.8038 290.543 97.8038C289.859 97.8038 289.255 97.8239 288.732 97.8642C288.209 97.9044 287.665 97.9447 287.102 97.9849C286.578 98.0654 285.914 98.1057 285.109 98.1057Z" fill="#8EACCD"/>
<path d="M308.767 114.649C308.525 114.649 308.244 114.589 307.922 114.468C307.64 114.387 307.499 114.226 307.499 113.985C307.499 113.663 307.64 113.421 307.922 113.26C308.203 113.099 308.525 112.958 308.888 112.838C309.572 112.636 310.156 112.395 310.639 112.113C311.122 111.831 311.363 111.308 311.363 110.543V80.5359C311.363 80.1736 311.262 79.6906 311.061 79.0868C310.9 78.483 310.618 77.9195 310.216 77.3962C309.813 76.873 309.31 76.5711 308.706 76.4906C308.505 76.4101 308.344 76.3094 308.223 76.1887C308.143 76.0277 308.103 75.8264 308.103 75.5849C308.103 75.3434 308.143 75.1623 308.223 75.0415C308.344 74.8805 308.485 74.7799 308.646 74.7396C310.095 74.3774 311.464 73.9748 312.752 73.5321C314.04 73.0893 315.187 72.6264 316.193 72.1434C316.314 72.1434 316.394 72.1233 316.435 72.083C316.515 72.0025 316.596 71.9623 316.676 71.9623C316.797 71.9623 316.898 72.0428 316.978 72.2038C317.059 72.3245 317.099 72.4453 317.099 72.566C317.099 72.9283 317.039 73.4918 316.918 74.2566C316.837 75.0214 316.797 75.6654 316.797 76.1887C316.797 76.5107 316.817 76.6918 316.857 76.7321C317.26 76.3296 317.984 75.8264 319.031 75.2226C320.078 74.5786 321.285 73.995 322.654 73.4717C324.022 72.9484 325.33 72.6868 326.578 72.6868C328.671 72.6868 330.462 73.2503 331.952 74.3774C333.441 75.5044 334.588 76.9535 335.393 78.7245C336.198 80.4956 336.601 82.327 336.601 84.2189C336.601 86.0704 336.239 87.8616 335.514 89.5925C334.83 91.3233 333.844 92.8931 332.556 94.3019C331.308 95.6704 329.859 96.7774 328.208 97.6226C326.558 98.4277 324.767 98.8302 322.835 98.8302C322.311 98.8302 321.688 98.7497 320.963 98.5887C320.239 98.4679 319.514 98.2667 318.789 97.9849C318.105 97.7434 317.562 97.4616 317.159 97.1396C317.119 97.1396 317.079 97.3208 317.039 97.683C316.998 98.005 316.958 98.3472 316.918 98.7094C316.918 99.112 316.918 99.3937 316.918 99.5547V110.362C316.918 110.886 317.099 111.308 317.461 111.63C317.823 111.952 318.246 112.194 318.729 112.355C319.252 112.556 319.776 112.737 320.299 112.898C320.661 113.019 320.983 113.14 321.265 113.26C321.547 113.421 321.688 113.663 321.688 113.985C321.688 114.226 321.547 114.387 321.265 114.468C320.983 114.589 320.701 114.649 320.42 114.649C319.252 114.649 318.186 114.589 317.22 114.468C316.254 114.387 315.247 114.347 314.201 114.347C313.517 114.347 312.913 114.367 312.389 114.408C311.866 114.448 311.323 114.488 310.759 114.528C310.236 114.609 309.572 114.649 308.767 114.649ZM323.378 96.6566C323.942 96.6566 324.606 96.4956 325.371 96.1736C326.135 95.8113 326.9 95.2277 327.665 94.4226C328.47 93.6176 329.134 92.5509 329.657 91.2226C330.181 89.8943 330.442 88.244 330.442 86.2717C330.442 83.9774 330.161 82.1459 329.597 80.7774C329.074 79.4088 328.41 78.3824 327.605 77.6981C326.8 76.9736 325.974 76.4906 325.129 76.2491C324.324 76.0076 323.64 75.8868 323.076 75.8868C322.191 75.8868 321.265 76.0881 320.299 76.4906C319.373 76.8528 318.588 77.2755 317.944 77.7585C317.34 78.2415 317.039 78.6239 317.039 78.9057C317.039 79.6302 317.018 80.4553 316.978 81.3811C316.978 82.2667 316.958 83.1925 316.918 84.1585C316.918 85.0843 316.918 85.9296 316.918 86.6943C316.918 87.4591 316.918 88.0025 316.918 88.3245C316.918 89.6931 317.22 91.0214 317.823 92.3094C318.467 93.5975 319.272 94.644 320.239 95.4491C321.245 96.2541 322.291 96.6566 323.378 96.6566Z" fill="#8EACCD"/>
<path d="M347.928 98.7698C347.082 98.7698 346.257 98.4881 345.452 97.9245C344.647 97.4013 343.983 96.7371 343.46 95.9321C342.936 95.0868 342.675 94.2616 342.675 93.4566C342.675 92.1283 343.037 91.0616 343.762 90.2566C344.526 89.4516 345.694 88.727 347.264 88.083L353.12 85.6076C353.925 85.2855 354.408 85.0038 354.569 84.7623C354.73 84.4805 354.831 83.9371 354.871 83.1321L354.992 79.4491C355.032 78.3623 354.77 77.4566 354.207 76.7321C353.643 76.0076 352.818 75.6453 351.731 75.6453C351.168 75.6453 350.584 75.766 349.98 76.0075C349.417 76.2088 348.954 76.4503 348.592 76.7321C348.391 76.8931 348.25 77.1145 348.169 77.3962C348.129 77.678 348.109 77.9799 348.109 78.3019C348.109 78.5031 348.109 78.7447 348.109 79.0264C348.149 79.2679 348.169 79.4692 348.169 79.6302C348.169 79.8717 347.887 80.1736 347.324 80.5359C346.801 80.8579 346.177 81.1598 345.452 81.4415C344.768 81.7233 344.184 81.8642 343.701 81.8642C343.46 81.8642 343.258 81.8038 343.097 81.683C342.977 81.522 342.916 81.3208 342.916 81.0792C342.916 80.4352 343.118 79.7711 343.52 79.0868C343.963 78.3623 344.607 77.6377 345.452 76.9132C346.418 76.0679 347.465 75.3233 348.592 74.6792C349.759 73.995 350.886 73.4717 351.973 73.1094C353.1 72.7472 354.086 72.566 354.931 72.566C356.622 72.566 357.991 73.1497 359.037 74.317C360.124 75.444 360.627 76.9132 360.547 78.7245L360.245 92.3698C360.204 93.2553 360.386 93.9799 360.788 94.5434C361.191 95.1069 361.694 95.3887 362.297 95.3887C363.223 95.3887 363.948 95.1472 364.471 94.6642C364.632 94.5031 364.773 94.4226 364.894 94.4226C365.095 94.4226 365.256 94.483 365.377 94.6038C365.538 94.7245 365.618 94.8855 365.618 95.0868C365.618 95.5698 365.336 96.073 364.773 96.5962C364.089 97.2805 363.344 97.8038 362.539 98.166C361.774 98.5686 361.03 98.7698 360.305 98.7698C358.292 98.7698 356.682 97.683 355.475 95.5094H355.294C353.965 96.6365 352.718 97.4616 351.55 97.9849C350.383 98.5082 349.175 98.7698 347.928 98.7698ZM351.067 95.5094C351.752 95.5094 352.315 95.4088 352.758 95.2076C353.241 94.966 353.664 94.644 354.026 94.2415C354.227 94.0403 354.368 93.7987 354.448 93.517C354.569 93.195 354.65 92.712 354.69 92.0679L354.811 88.6264C354.851 88.2239 354.831 87.9421 354.75 87.7811C354.67 87.5799 354.509 87.4792 354.267 87.4792C354.187 87.4792 354.066 87.4994 353.905 87.5396C353.744 87.5799 353.523 87.6604 353.241 87.7811C351.43 88.4654 350.162 89.1899 349.437 89.9547C348.713 90.6792 348.35 91.4843 348.35 92.3698C348.35 93.4566 348.632 94.2616 349.196 94.7849C349.799 95.2679 350.423 95.5094 351.067 95.5094Z" fill="#8EACCD"/>
<path d="M397.805 106.679C397.322 106.679 397 106.458 396.838 106.015C396.677 105.572 396.577 105.089 396.537 104.566C396.496 103.962 396.456 103.439 396.416 102.996C396.416 102.553 396.416 102.091 396.416 101.608C396.335 100.038 396.074 99.0315 395.631 98.5887C395.188 98.1459 394.504 97.9245 393.578 97.9245H375.888C375.364 97.9245 374.922 97.9245 374.559 97.9245C374.237 97.9648 373.855 98.005 373.412 98.0453C373.01 98.0855 372.406 98.1057 371.601 98.1057C371.4 98.1057 371.118 98.0654 370.755 97.9849C370.433 97.9044 370.272 97.7233 370.272 97.4415C370.272 97.1195 370.413 96.878 370.695 96.717C371.017 96.556 371.339 96.4151 371.661 96.2943C372.265 96.0931 372.768 95.8717 373.171 95.6302C373.613 95.3484 373.835 94.805 373.835 94V77.2151C373.835 76.4101 373.613 75.8667 373.171 75.5849C372.768 75.3031 372.265 75.0818 371.661 74.9208C371.339 74.8 371.017 74.6591 370.695 74.4981C370.413 74.3371 370.272 74.0956 370.272 73.7736C370.272 73.4918 370.433 73.3308 370.755 73.2906C371.077 73.2101 371.359 73.1698 371.601 73.1698C372.406 73.1698 373.05 73.1899 373.533 73.2302C374.056 73.2704 374.559 73.3308 375.042 73.4113C375.525 73.4516 376.109 73.4717 376.793 73.4717C377.518 73.4717 378.081 73.4516 378.484 73.4113C378.927 73.3308 379.389 73.2704 379.872 73.2302C380.355 73.1899 380.999 73.1698 381.805 73.1698C382.046 73.1698 382.308 73.2101 382.589 73.2906C382.911 73.3711 383.072 73.5321 383.072 73.7736C383.072 74.0554 382.932 74.2969 382.65 74.4981C382.368 74.6591 382.066 74.8 381.744 74.9208C381.14 75.122 380.597 75.3635 380.114 75.6453C379.631 75.8868 379.389 76.4101 379.389 77.2151V93.1547C379.389 93.6377 379.47 94.1409 379.631 94.6642C379.792 95.1472 380.154 95.3887 380.718 95.3887H388.567C389.09 95.3887 389.432 95.1472 389.593 94.6642C389.794 94.1409 389.895 93.6377 389.895 93.1547V77.2151C389.895 76.4101 389.654 75.8667 389.171 75.5849C388.688 75.3031 388.144 75.0818 387.54 74.9208C387.218 74.8 386.917 74.6591 386.635 74.4981C386.353 74.3371 386.212 74.0956 386.212 73.7736C386.212 73.4918 386.353 73.3308 386.635 73.2906C386.917 73.2101 387.198 73.1698 387.48 73.1698C388.285 73.1698 388.929 73.1899 389.412 73.2302C389.895 73.2704 390.358 73.3308 390.801 73.4113C391.284 73.4516 391.867 73.4717 392.552 73.4717C393.276 73.4717 393.86 73.4516 394.303 73.4113C394.786 73.3308 395.269 73.2704 395.752 73.2302C396.235 73.1899 396.859 73.1698 397.623 73.1698C397.865 73.1698 398.147 73.2101 398.469 73.2906C398.791 73.3308 398.952 73.4918 398.952 73.7736C398.952 74.0956 398.811 74.3371 398.529 74.4981C398.247 74.6591 397.945 74.8 397.623 74.9208C397.02 75.0818 396.496 75.3031 396.054 75.5849C395.611 75.8667 395.389 76.4101 395.389 77.2151V94.5434C395.389 94.7849 395.651 94.9862 396.174 95.1472C396.738 95.2679 397.322 95.3283 397.925 95.3283C398.207 95.3283 398.529 95.2881 398.891 95.2076C399.254 95.127 399.596 95.0868 399.918 95.0868C400.481 95.0868 400.763 95.2478 400.763 95.5698C400.763 95.6101 400.763 95.6906 400.763 95.8113C400.763 95.8918 400.743 95.9723 400.703 96.0528C400.582 96.4553 400.421 96.9987 400.22 97.683C400.018 98.3673 399.797 99.273 399.555 100.4C399.354 101.567 399.213 103.016 399.133 104.747C399.093 105.311 398.932 105.774 398.65 106.136C398.368 106.498 398.086 106.679 397.805 106.679Z" fill="#8EACCD"/>
<path d="M406.805 98.1057C406.563 98.1057 406.301 98.0654 406.02 97.9849C405.738 97.9044 405.597 97.7233 405.597 97.4415C405.597 97.1195 405.738 96.878 406.02 96.717C406.342 96.556 406.664 96.4151 406.986 96.2943C407.589 96.0931 408.133 95.8717 408.616 95.6302C409.139 95.3484 409.401 94.805 409.401 94V77.2755C409.401 76.4704 409.159 75.9271 408.676 75.6453C408.233 75.3233 407.71 75.0818 407.106 74.9208C406.784 74.8 406.462 74.6591 406.14 74.4981C405.859 74.3371 405.718 74.0956 405.718 73.7736C405.718 73.5321 405.859 73.3711 406.14 73.2906C406.462 73.2101 406.724 73.1698 406.925 73.1698C407.73 73.1698 408.394 73.1899 408.918 73.2302C409.481 73.2704 410.005 73.3308 410.488 73.4113C410.971 73.4516 411.554 73.4717 412.238 73.4717C412.963 73.4717 413.547 73.4516 413.989 73.4113C414.432 73.3308 414.895 73.2704 415.378 73.2302C415.901 73.1899 416.566 73.1698 417.371 73.1698C417.572 73.1698 417.813 73.2101 418.095 73.2906C418.377 73.3711 418.518 73.5321 418.518 73.7736C418.518 74.0554 418.377 74.2969 418.095 74.4981C417.813 74.6591 417.511 74.8 417.189 74.9208C416.586 75.122 416.062 75.3635 415.62 75.6453C415.177 75.9271 414.955 76.4704 414.955 77.2755V88.6868C414.955 88.9283 415.036 89.0893 415.197 89.1698C415.358 89.2503 415.499 89.2302 415.62 89.1094L426.065 77.9396C426.186 77.7786 426.266 77.6579 426.306 77.5774C426.387 77.4969 426.427 77.356 426.427 77.1547C426.427 76.3497 426.226 75.8264 425.823 75.5849C425.461 75.3031 424.978 75.0818 424.374 74.9208C424.052 74.8 423.75 74.6591 423.469 74.4981C423.187 74.3371 423.046 74.0956 423.046 73.7736C423.046 73.5321 423.167 73.3711 423.408 73.2906C423.69 73.2101 423.952 73.1698 424.193 73.1698C424.998 73.1698 425.642 73.1899 426.125 73.2302C426.649 73.2704 427.132 73.3308 427.574 73.4113C428.057 73.4516 428.641 73.4717 429.325 73.4717C430.05 73.4717 430.633 73.4516 431.076 73.4113C431.559 73.3308 432.062 73.2704 432.586 73.2302C433.109 73.1899 433.773 73.1698 434.578 73.1698C434.82 73.1698 435.061 73.2101 435.303 73.2906C435.584 73.3711 435.725 73.5321 435.725 73.7736C435.725 74.0956 435.584 74.3371 435.303 74.4981C435.021 74.6591 434.719 74.8 434.397 74.9208C433.793 75.0818 433.23 75.3233 432.706 75.6453C432.223 75.9271 431.982 76.4704 431.982 77.2755V94C431.982 94.805 432.244 95.3484 432.767 95.6302C433.33 95.8717 433.914 96.0931 434.518 96.2943C434.84 96.4151 435.142 96.556 435.423 96.717C435.705 96.878 435.846 97.1195 435.846 97.4415C435.846 97.7233 435.705 97.9044 435.423 97.9849C435.142 98.0654 434.9 98.1057 434.699 98.1057C433.894 98.1057 433.21 98.0654 432.646 97.9849C432.123 97.9447 431.6 97.9044 431.076 97.8642C430.593 97.8239 429.989 97.8038 429.265 97.8038C428.581 97.8038 427.977 97.8239 427.454 97.8642C426.971 97.9044 426.447 97.9447 425.884 97.9849C425.361 98.0654 424.696 98.1057 423.891 98.1057C423.69 98.1057 423.449 98.0654 423.167 97.9849C422.885 97.9044 422.744 97.7233 422.744 97.4415C422.744 97.1195 422.885 96.878 423.167 96.717C423.449 96.556 423.75 96.4151 424.072 96.2943C424.676 96.0931 425.22 95.8717 425.703 95.6302C426.186 95.3484 426.427 94.805 426.427 94V81.5623C426.427 81.361 426.387 81.2403 426.306 81.2C426.266 81.1195 426.206 81.1396 426.125 81.2604L415.318 92.9736C415.076 93.2151 414.955 93.5572 414.955 94C414.955 94.8453 415.217 95.3887 415.74 95.6302C416.264 95.8717 416.827 96.0931 417.431 96.2943C417.753 96.4151 418.055 96.556 418.337 96.717C418.618 96.878 418.759 97.1195 418.759 97.4415C418.759 97.683 418.618 97.844 418.337 97.9245C418.055 98.0453 417.813 98.1057 417.612 98.1057C416.807 98.1057 416.123 98.0654 415.559 97.9849C415.036 97.9447 414.533 97.9044 414.05 97.8642C413.567 97.8239 412.963 97.8038 412.238 97.8038C411.554 97.8038 410.95 97.8239 410.427 97.8642C409.904 97.9044 409.361 97.9447 408.797 97.9849C408.274 98.0654 407.61 98.1057 406.805 98.1057Z" fill="#8EACCD"/>
<path d="M443.685 98.5887C442.598 98.5887 441.612 98.4478 440.726 98.166C439.881 97.8843 439.458 97.5824 439.458 97.2604C439.458 96.5761 439.821 96.234 440.545 96.234C441.551 96.234 442.437 95.912 443.202 95.2679C444.007 94.6239 444.751 93.7987 445.436 92.7925C446.16 91.7862 446.844 90.8201 447.488 89.8943C448.213 88.8478 448.797 88.0629 449.239 87.5396C449.682 87.0164 450.165 86.6138 450.688 86.3321C451.172 86.0503 451.232 85.8692 450.87 85.7887C449.219 85.3862 447.911 84.7421 446.945 83.8566C445.979 82.9711 445.496 81.6428 445.496 79.8717C445.496 78.4629 445.939 77.2554 446.824 76.2491C447.75 75.2428 448.958 74.4981 450.447 74.0151C451.936 73.4918 453.546 73.2302 455.277 73.2302C456.002 73.2302 456.686 73.2503 457.33 73.2906C457.974 73.3308 458.598 73.3711 459.202 73.4113C459.846 73.4113 460.53 73.4113 461.255 73.4113C462.019 73.4113 462.603 73.4113 463.005 73.4113C463.408 73.3711 463.831 73.3308 464.273 73.2906C464.756 73.2503 465.421 73.2302 466.266 73.2302C466.467 73.2302 466.709 73.2704 466.99 73.351C467.312 73.4315 467.473 73.5925 467.473 73.834C467.473 74.0755 467.353 74.2767 467.111 74.4377C466.87 74.5987 466.588 74.7195 466.266 74.8C465.541 75.0013 464.958 75.283 464.515 75.6453C464.112 75.9673 463.911 76.5912 463.911 77.517V94.3019C463.911 95.1472 464.153 95.6704 464.636 95.8717C465.159 96.0327 465.783 96.234 466.507 96.4755C466.789 96.5962 467.051 96.7371 467.292 96.8981C467.574 97.0189 467.715 97.2201 467.715 97.5019C467.715 97.7434 467.554 97.9044 467.232 97.9849C466.91 98.0654 466.668 98.1057 466.507 98.1057C465.823 98.1057 465.179 98.0654 464.575 97.9849C464.012 97.9447 463.468 97.9245 462.945 97.9245C462.422 97.8843 461.818 97.8642 461.134 97.8642C460.409 97.8642 459.785 97.8843 459.262 97.9245C458.739 97.9245 458.195 97.9447 457.632 97.9849C457.109 98.0654 456.424 98.1057 455.579 98.1057C455.378 98.1057 455.116 98.0654 454.794 97.9849C454.472 97.9044 454.311 97.7434 454.311 97.5019C454.311 97.1799 454.432 96.9384 454.673 96.7774C454.955 96.6164 455.257 96.4755 455.579 96.3547C456.344 96.1132 456.988 95.8717 457.511 95.6302C458.075 95.3887 458.356 94.8654 458.356 94.0604V87.2981C458.356 86.8956 458.175 86.6943 457.813 86.6943C457.41 86.6541 457.068 86.634 456.787 86.634C456.505 86.634 456.243 86.6742 456.002 86.7547C455.519 86.8352 455.076 87.1774 454.673 87.7811C454.271 88.3849 453.607 89.4918 452.681 91.1019C451.795 92.5912 450.89 93.8994 449.964 95.0264C449.038 96.1535 448.052 97.039 447.005 97.683C445.999 98.2868 444.892 98.5887 443.685 98.5887ZM455.7 84.8226C456.545 84.8226 457.189 84.7421 457.632 84.5811C458.115 84.4201 458.356 84.1384 458.356 83.7359V77.1547C458.356 76.3497 458.135 75.8063 457.692 75.5245C457.249 75.2428 456.485 75.1019 455.398 75.1019C454.231 75.1019 453.244 75.5044 452.439 76.3094C451.634 77.1145 451.232 78.2616 451.232 79.7509C451.232 81.0792 451.614 82.2667 452.379 83.3132C453.184 84.3195 454.291 84.8226 455.7 84.8226Z" fill="#8EACCD"/>
<path d="M16.7925 150C15.5346 150 13.522 149.811 10.7547 149.434C8.11321 149.057 5.66038 148.239 3.39623 146.981C1.13208 145.723 0 143.774 0 141.132C0 139.497 0.377358 138.239 1.13208 137.358C1.63522 136.73 2.13836 136.415 2.64151 136.415C3.14465 136.415 3.27044 136.73 3.01887 137.358C2.64151 139.245 3.33333 141.006 5.09434 142.642C6.85535 144.403 8.61635 145.535 10.3774 146.038C11.6352 146.289 12.8302 146.478 13.9623 146.604C15.0943 146.855 16.1635 146.981 17.1698 146.981C22.2013 146.981 26.7925 145.66 30.9434 143.019C35.0943 140.503 38.805 137.233 42.0755 133.208C45.4717 129.308 48.4906 125.346 51.1321 121.321C54.9057 115.535 58.6163 108.931 62.2641 101.509C65.9119 94.088 69.6855 86.478 73.5849 78.6792C77.4843 70.7547 81.5723 63.0818 85.849 55.6604C90.2516 48.239 95.0314 41.6352 100.189 35.8491C105.346 29.9371 111.006 25.4088 117.17 22.2642C121.195 20.1258 125.031 19.0566 128.679 19.0566C130.692 19.0566 132.516 19.3082 134.151 19.8113C134.654 19.9371 134.78 20.2516 134.528 20.7547C134.403 21.2579 134.088 21.4465 133.585 21.3208C133.082 21.0692 132.516 20.9434 131.887 20.9434C131.384 20.9434 130.818 20.9434 130.189 20.9434C123.648 20.9434 116.792 25.1572 109.623 33.5849C103.208 41.1321 97.8616 49.2453 93.5849 57.9245C89.3082 66.478 85.1572 75.2201 81.1321 84.1509H81.3207C82.5786 84.7799 83.9623 85.3459 85.4717 85.8491C91.0063 87.6101 96.5409 88.4906 102.075 88.4906C108.113 88.4906 114.151 87.4843 120.189 85.4717C126.226 83.4591 131.698 80.566 136.604 76.7925C141.635 73.0189 145.66 68.4906 148.679 63.2075C151.698 57.7987 153.208 51.761 153.208 45.0943C153.208 39.1824 151.761 33.522 148.868 28.1132C145.975 22.7044 141.572 18.1761 135.66 14.5283C129.497 10.5031 122.138 7.61007 113.585 5.84906C105.157 3.96227 96.3522 3.01887 87.1698 3.01887C76.6038 3.01887 66.2893 4.71699 56.2264 8.11321C46.2893 11.3836 38.1761 16.0377 31.8868 22.0755C28.6163 25.2201 25.6604 29.434 23.0189 34.717C20.5031 39.8742 19.2453 45.0314 19.2453 50.1887C19.2453 51.3208 19.3082 52.4528 19.434 53.5849C19.5597 54.717 19.8113 55.8491 20.1887 56.9811C21.3208 60.5031 23.4591 63.2076 26.6038 65.0943C29.8742 66.9811 33.4591 67.9245 37.3585 67.9245C38.9937 67.9245 40.6289 67.7359 42.2641 67.3585C44.0252 66.9811 45.7233 66.5409 47.3585 66.0377H47.7358C48.1132 66.0377 48.3019 66.2264 48.3019 66.6038C48.3019 67.1069 47.9874 67.4843 47.3585 67.7358C43.8365 68.8679 40.0629 69.434 36.0377 69.434C32.0126 69.434 28.1132 68.7421 24.3396 67.3585C20.6918 65.8491 17.673 63.5849 15.283 60.566C13.0189 57.4214 11.8868 53.3333 11.8868 48.3019C11.8868 44.4025 12.3899 40.7547 13.3962 37.3585C14.5283 33.9623 16.0377 30.8176 17.9245 27.9245C22.0755 21.6352 27.9245 16.478 35.4717 12.4528C43.1447 8.30189 51.5723 5.22013 60.7547 3.20755C70.0629 1.06918 79.2453 0 88.3019 0C97.6101 0 106.604 0.628934 115.283 1.8868C123.962 3.14466 131.509 5.22013 137.925 8.11321C147.233 12.0126 153.899 17.1069 157.925 23.3962C162.075 29.5598 164.151 36.0377 164.151 42.8302C164.151 50.6289 162.327 57.6101 158.679 63.7736C155.031 69.8113 150.189 74.9057 144.151 79.0566C138.113 83.2075 131.509 86.3522 124.34 88.4906C117.296 90.6289 110.377 91.6981 103.585 91.6981C100.189 91.6981 96.8553 91.4465 93.5849 90.9434C90.3145 90.3145 87.1069 89.5597 83.9623 88.6792C83.3333 88.4277 82.7044 88.1761 82.0755 87.9245C81.5723 87.673 81.0063 87.4214 80.3774 87.1698C80.2516 87.1698 80.1258 87.1698 80 87.1698C79.8742 87.044 79.7484 86.9811 79.6226 86.9811C76.8553 93.0189 73.9623 98.9937 70.9434 104.906C68.0503 110.692 64.717 116.289 60.9434 121.698C57.5472 126.478 53.7107 130.943 49.434 135.094C45.1572 139.371 40.4402 142.83 35.283 145.472C32.3899 146.855 29.3711 147.925 26.2264 148.679C23.2075 149.56 20.0629 150 16.7925 150Z" fill="#8EACCD"/>
</svg>
